<svg width="57" height="59" viewBox="0 0 57 59" fill="none" xmlns="http://www.w3.org/2000/svg">
<path d="M0.928426 58.1242L7.57988 58.1242L7.57987 51.241L0.928425 51.241L0.928426 58.1242ZM56.3047 1.66183C56.3047 1.19625 55.94 0.818818 55.4901 0.818818L48.1584 0.818817C47.7085 0.818817 47.3438 1.19625 47.3438 1.66183C47.3438 2.12741 47.7085 2.50484 48.1584 2.50484L54.6755 2.50484L54.6755 9.24892C54.6755 9.71451 55.0402 10.0919 55.4901 10.0919C55.94 10.0919 56.3047 9.71451 56.3047 9.24892L56.3047 1.66183ZM4.83018 55.2787L56.0661 2.25793L54.9141 1.06573L3.67812 54.0865L4.83018 55.2787Z" fill="#2D2D2D"/>
</svg>
