<svg width="39" height="24" viewBox="0 0 39 24" fill="none" xmlns="http://www.w3.org/2000/svg">
<path d="M15.6921 10.7832C17.8429 9.81404 18.9657 8.34759 18.9657 6.06504C18.9657 1.56369 15.408 0.467041 11.3023 0.467041H0V23.0631H11.6202C15.9761 23.0631 20.0682 21.0929 20.0682 16.5023C20.0682 13.6651 18.6411 11.5674 15.6921 10.7832ZM5.26901 4.32443H10.2134C12.114 4.32443 13.8252 4.82812 13.8252 6.90665C13.8252 8.82578 12.4928 9.59726 10.6124 9.59726H5.26901V4.32443ZM10.9033 19.2248H5.26901V13.002H11.0115C13.3315 13.002 14.7992 13.9137 14.7992 16.2281C14.7992 18.5107 13.0474 19.2248 10.9033 19.2248ZM35.1516 3.87812H25.4319V1.65295H35.1516V3.87812ZM38.9596 15.1187C38.9596 10.2795 35.9565 6.24356 30.5116 6.24356C25.2223 6.24356 21.6307 9.99256 21.6307 14.902C21.6307 19.9963 25.0329 23.4902 30.5116 23.4902C34.6578 23.4902 37.343 21.7305 38.6349 17.9879H34.4278C33.9747 19.3842 32.1078 20.1238 30.6604 20.1238C27.8669 20.1238 26.3992 18.5808 26.3992 15.9604H38.919C38.9393 15.6926 38.9596 15.4057 38.9596 15.1187ZM26.4059 13.1295C26.5615 10.9808 28.0766 9.63551 30.3628 9.63551C32.7572 9.63551 33.9611 10.9617 34.164 13.1295H26.4059Z" fill="#2D2D2D"/>
</svg>
