<svg width="37" height="31" viewBox="0 0 37 31" fill="none" xmlns="http://www.w3.org/2000/svg">
<path d="M18.6688 7.91668C13.529 7.91668 9.38312 11.4069 9.38312 15.734C9.38312 20.0611 13.529 23.5513 18.6688 23.5513C23.8087 23.5513 27.9545 20.0611 27.9545 15.734C27.9545 11.4069 23.8087 7.91668 18.6688 7.91668ZM18.6688 20.8162C15.3473 20.8162 12.6319 18.5371 12.6319 15.734C12.6319 12.9309 15.3392 10.6517 18.6688 10.6517C21.9984 10.6517 24.7058 12.9309 24.7058 15.734C24.7058 18.5371 21.9904 20.8162 18.6688 20.8162ZM30.5002 7.59692C30.5002 8.61065 29.5304 9.42027 28.3344 9.42027C27.1302 9.42027 26.1685 8.60384 26.1685 7.59692C26.1685 6.58999 27.1383 5.77356 28.3344 5.77356C29.5304 5.77356 30.5002 6.58999 30.5002 7.59692ZM36.6503 9.44749C36.5129 7.00501 35.8502 4.84147 33.7248 3.05894C31.6074 1.2764 29.0375 0.718512 26.1362 0.596048C23.146 0.453173 14.1836 0.453173 11.1934 0.596048C8.30019 0.711708 5.73026 1.2696 3.60481 3.05214C1.47936 4.83467 0.824754 6.9982 0.679286 9.44068C0.509574 11.958 0.509574 19.5032 0.679286 22.0205C0.816673 24.463 1.47936 26.6265 3.60481 28.409C5.73026 30.1916 8.29211 30.7495 11.1934 30.8719C14.1836 31.0148 23.146 31.0148 26.1362 30.8719C29.0375 30.7563 31.6074 30.1984 33.7248 28.409C35.8421 26.6265 36.5048 24.463 36.6503 22.0205C36.82 19.5032 36.82 11.9648 36.6503 9.44749ZM32.7873 24.7215C32.1569 26.055 30.9366 27.0823 29.3446 27.6198C26.9605 28.4158 21.3034 28.2321 18.6688 28.2321C16.0342 28.2321 10.3691 28.409 7.99309 27.6198C6.40911 27.0891 5.1888 26.0618 4.55035 24.7215C3.60481 22.7144 3.82301 17.9519 3.82301 15.734C3.82301 13.516 3.61289 8.74672 4.55035 6.74647C5.18071 5.41297 6.40103 4.38563 7.99309 3.84815C10.3772 3.05213 16.0342 3.23583 18.6688 3.23583C21.3034 3.23583 26.9686 3.05894 29.3446 3.84815C30.9286 4.37883 32.1489 5.40617 32.7873 6.74647C33.7328 8.75352 33.5146 13.516 33.5146 15.734C33.5146 17.9519 33.7328 22.7212 32.7873 24.7215Z" fill="#2D2D2D"/>
</svg>
