<svg width="37" height="34" viewBox="0 0 37 34" fill="none" xmlns="http://www.w3.org/2000/svg">
<path d="M8.21295 33.4681H0.702617V11.4496H8.21295V33.4681ZM4.45374 8.44603C2.05218 8.44603 0.104248 6.63508 0.104248 4.44869C0.104248 3.39849 0.562497 2.3913 1.37819 1.64869C2.19387 0.906083 3.30019 0.488892 4.45374 0.488892C5.6073 0.488892 6.71361 0.906083 7.5293 1.64869C8.34499 2.3913 8.80324 3.39849 8.80324 4.44869C8.80324 6.63508 6.8545 8.44603 4.45374 8.44603ZM36.3217 33.4681H28.8276V22.7496C28.8276 20.1951 28.771 16.9192 24.9228 16.9192C21.018 16.9192 20.4197 19.6945 20.4197 22.5656V33.4681H12.9174V11.4496H20.1205V14.4531H20.2256C21.2283 12.7231 23.6776 10.8974 27.3316 10.8974C34.9326 10.8974 36.3298 15.4543 36.3298 21.373V33.4681H36.3217Z" fill="#2D2D2D"/>
</svg>
