<svg width="42" height="37" viewBox="0 0 42 37" fill="none" xmlns="http://www.w3.org/2000/svg">
<path d="M16.5098 22.0202C15.3878 22.0202 14.4854 21.1986 14.4854 20.1994C14.4854 19.1779 15.3878 18.3563 16.5098 18.3563C17.6156 18.3563 18.5099 19.1779 18.5099 20.1994C18.5099 21.206 17.6074 22.0202 16.5098 22.0202ZM41.1042 18.3563C41.1042 28.4967 32.0795 36.7127 20.9409 36.7127C9.80229 36.7127 0.777588 28.4967 0.777588 18.3563C0.777588 8.21594 9.80229 0 20.9409 0C32.0795 0 41.1042 8.21594 41.1042 18.3563ZM30.3477 15.3068C29.5835 15.3068 28.9086 15.5955 28.4127 16.047C26.5915 14.8997 24.1361 14.1595 21.4124 14.0781L22.8271 8.28256L27.3313 9.20777C27.3313 10.2144 28.2338 11.0286 29.3314 11.0286C30.4534 11.0286 31.3559 10.1922 31.3559 9.18557C31.3559 8.17893 30.4534 7.34253 29.3314 7.34253C28.5428 7.34253 27.8679 7.77184 27.5346 8.36398L22.5588 7.35734C22.3149 7.29812 22.0629 7.46096 21.9978 7.68301L20.4449 14.0781C17.7456 14.1817 15.3147 14.9145 13.4935 16.0618C12.9975 15.5881 12.2983 15.3068 11.5341 15.3068C8.69656 15.3068 7.7697 18.7782 10.3633 19.9551C10.2738 20.3252 10.2251 20.7101 10.2251 21.1024C10.2251 24.9957 15.0382 28.1488 20.9571 28.1488C26.9004 28.1488 31.7136 24.9957 31.7136 21.1024C31.7136 20.7101 31.6648 20.303 31.5591 19.9329C34.1039 18.7486 33.1689 15.3068 30.3477 15.3068ZM24.7459 23.9076C23.2662 25.2548 18.5587 25.2326 17.1359 23.9076C16.957 23.7448 16.6399 23.7448 16.4611 23.9076C16.2578 24.0927 16.2578 24.3814 16.4611 24.5442C18.3148 26.2318 23.5589 26.2318 25.4207 24.5442C25.624 24.3814 25.624 24.0927 25.4207 23.9076C25.2418 23.7448 24.9248 23.7448 24.7459 23.9076ZM25.3719 18.3563C24.2662 18.3563 23.3719 19.1779 23.3719 20.1994C23.3719 21.206 24.2743 22.0202 25.3719 22.0202C26.4939 22.0202 27.3964 21.1986 27.3964 20.1994C27.3964 19.1779 26.502 18.3563 25.3719 18.3563Z" fill="#2D2D2D"/>
</svg>
