<svg width="43" height="30" viewBox="0 0 43 30" fill="none" xmlns="http://www.w3.org/2000/svg">
<path d="M37.7378 8.02207C37.7642 8.34193 37.7642 8.66185 37.7642 8.98171C37.7642 18.7378 29.1663 29.9792 13.4517 29.9792C8.61036 29.9792 4.11297 28.7682 0.329834 26.6663C1.0177 26.7348 1.67902 26.7576 2.39335 26.7576C6.38805 26.7576 10.0654 25.5924 13.002 23.6046C9.24529 23.536 6.09709 21.4111 5.0124 18.4866C5.54155 18.5551 6.07062 18.6008 6.62624 18.6008C7.39342 18.6008 8.16069 18.5093 8.87494 18.3495C4.95955 17.664 2.02291 14.6938 2.02291 11.1066V11.0152C3.16045 11.5636 4.48333 11.9063 5.88536 11.9519C3.58374 10.6267 2.07584 8.36478 2.07584 5.80577C2.07584 4.4349 2.49905 3.17825 3.23985 2.08153C7.44627 6.55977 13.7691 9.48429 20.8591 9.80422C20.7269 9.25586 20.6475 8.68471 20.6475 8.11349C20.6475 4.04647 24.4571 0.733521 29.1926 0.733521C31.6529 0.733521 33.8751 1.6246 35.4361 3.06403C37.3672 2.74418 39.2191 2.12724 40.8594 1.28188C40.2244 2.99553 38.8752 4.43497 37.1027 5.34883C38.8224 5.18898 40.4891 4.77762 42.0234 4.20647C40.8596 5.66869 39.4045 6.97099 37.7378 8.02207Z" fill="#2D2D2D"/>
</svg>
