<svg width="66" height="45" viewBox="0 0 66 45" fill="none" xmlns="http://www.w3.org/2000/svg">
<path fill-rule="evenodd" clip-rule="evenodd" d="M34.4423 3.20504C31.8363 4.70166 29.6788 5.9357 29.6478 5.94732C29.6169 5.95895 32.5978 11.1916 36.2721 17.5756L42.9526 29.1827H49.3724H55.7923L55.6369 28.9067C55.2767 28.2665 39.3227 0.692876 39.2549 0.593244C39.1889 0.496275 38.6454 0.791273 34.4423 3.20504ZM23.4365 13.3114C20.8109 14.8246 18.6707 16.0939 18.6804 16.1321C18.6902 16.1703 20.3925 19.1296 22.4635 22.7084L26.2289 29.2152L26.2291 30.5629L26.2293 31.9106H27.5932H28.9572V30.547V29.1835L33.9595 29.1669L38.9619 29.1503L33.5963 19.8625C30.6453 14.7543 28.2262 10.5715 28.2205 10.5675C28.2149 10.5634 26.0621 11.7982 23.4365 13.3114ZM12.2044 23.1432C9.61677 24.6422 7.47767 25.891 7.45085 25.9182C7.42402 25.9455 7.8156 26.6911 8.3211 27.5752L9.24013 29.1827H15.6309C20.7168 29.1827 22.0152 29.1662 21.9903 29.1015C21.9135 28.9018 17.0099 20.4484 16.9624 20.4339C16.9331 20.425 14.792 21.6441 12.2044 23.1432ZM22.1375 31.4901V33.7975L21.6666 33.5399C20.0073 32.6322 18.0153 32.6077 16.2596 33.4733C15.1134 34.0384 14.2859 34.8552 13.7304 35.9699C13.2628 36.9084 13.1438 37.4274 13.1499 38.5029C13.156 39.5891 13.2817 40.1457 13.7224 41.0359C14.6897 42.9904 16.7023 44.2499 18.8576 44.2499C19.7868 44.2499 20.6956 44.0212 21.6001 43.5597L22.1375 43.2854V43.6382V43.9911H23.5015H24.8654V36.5869V29.1827H23.5015H22.1375V31.4901ZM39.0243 31.4803V33.7779L38.5534 33.5268C36.5484 32.4575 34.0681 32.655 32.2654 34.0275C31.2055 34.8345 30.43 36.0599 30.1534 37.3647C30.0464 37.8695 30.0343 38.9436 30.1296 39.4814C30.6718 42.5426 33.4933 44.603 36.579 44.1912C37.2314 44.1041 38.2535 43.7611 38.7141 43.4748L39.0243 43.2821V43.6366V43.9911H40.3882H41.7521V36.5869V29.1827H40.3882H39.0243V31.4803ZM5.4032 32.8841C3.21214 33.1935 1.38025 34.717 0.716731 36.7818C-0.132284 39.4236 1.09415 42.3549 3.57222 43.6067C5.25706 44.4578 7.13091 44.4593 8.8392 43.6109L9.47245 43.2964V43.6438V43.9911H10.8039H12.1354V38.4704V32.9498H10.8039H9.47245V33.3666V33.7835L8.85582 33.4696C8.48549 33.281 8.01097 33.102 7.66758 33.0214C7.00354 32.8655 5.97598 32.8032 5.4032 32.8841ZM47.5789 32.8863C46.1591 33.1107 44.7444 33.9161 43.9014 34.9799C43.4658 35.5297 43.0958 36.2416 42.8807 36.9441C42.7197 37.4699 42.7019 37.6234 42.704 38.4704C42.7067 39.5602 42.8237 40.1098 43.2366 40.971C43.985 42.5325 45.3416 43.6381 47.078 44.1019C47.676 44.2615 49.1521 44.2581 49.7627 44.0956C50.3241 43.9462 50.8693 43.7253 51.2933 43.4752L51.6244 43.2801V43.6356V43.9911H52.9883H54.3523V38.4704V32.9498H52.9883H51.6244V33.3799C51.6244 33.716 51.6067 33.7955 51.5432 33.7436C51.3143 33.5567 50.3573 33.1424 49.8768 33.0223C49.2495 32.8656 48.1295 32.7993 47.5789 32.8863ZM59.5807 32.8625C57.6043 33.0971 56.2689 34.0162 55.8352 35.4404C55.7232 35.8079 55.7049 36.0019 55.7297 36.559C55.7572 37.1763 55.7802 37.2744 56.0033 37.726C56.5956 38.9243 57.456 39.3525 60.1718 39.8009C61.5023 40.0205 61.9512 40.1654 62.2082 40.458C62.6172 40.9238 62.3691 41.6081 61.659 41.9731C61.3657 42.1239 61.262 42.1401 60.5874 42.1401C60.0032 42.1401 59.7649 42.1121 59.4938 42.0115C58.8621 41.7773 58.4365 41.2879 58.3401 40.6847L58.2975 40.4189H56.877H55.4564V40.6326C55.4564 40.9783 55.638 41.5762 55.8868 42.0498C56.6702 43.5404 58.5633 44.3546 60.9497 44.227C63.6229 44.0841 65.1897 42.8798 65.3708 40.8287C65.5228 39.107 64.3874 37.8525 62.2652 37.3974C61.8604 37.3106 61.12 37.167 60.6199 37.0785C59.4844 36.8774 59.0886 36.7507 58.7975 36.4955C58.5085 36.2423 58.4449 35.9298 58.611 35.5798C58.7007 35.3908 58.8095 35.2964 59.0889 35.1654C59.4231 35.0087 59.5179 34.9957 60.3276 34.9957C61.1665 34.9957 61.2175 35.0034 61.5073 35.1737C61.869 35.3863 62.0761 35.6969 62.1361 36.1162L62.1801 36.4245L63.5596 36.4421C65.1352 36.4621 65.0067 36.5253 64.8389 35.8136C64.6384 34.9627 63.9575 34.0359 63.191 33.5702C62.293 33.0247 60.7544 32.7231 59.5807 32.8625ZM26.2293 38.4704V43.9911H27.5932H28.9572V38.4704V32.9498H27.5932H26.2293V38.4704ZM7.07375 35.4576C8.32448 35.8286 9.22207 36.84 9.41776 38.0986C9.56793 39.0645 9.23065 40.0043 8.47269 40.7321C6.99393 42.1521 4.67759 41.8753 3.55812 40.1448C3.215 39.6143 3.08523 39.0787 3.11803 38.3281C3.14154 37.7919 3.17311 37.6592 3.38205 37.2192C4.05498 35.8023 5.65773 35.0374 7.07375 35.4576ZM19.7388 35.4565C20.3234 35.6282 20.8175 35.9309 21.2258 36.3673C22.4454 37.6711 22.4083 39.512 21.1378 40.7321C19.902 41.9187 18.0402 41.9498 16.7871 40.8046C16.1873 40.2563 15.8755 39.6623 15.7724 38.8712C15.5783 37.3816 16.625 35.857 18.1175 35.4557C18.5875 35.3293 19.307 35.3296 19.7388 35.4565ZM37.0183 35.5749C38.2247 36.0646 39.0243 37.2447 39.0243 38.5354C39.0243 40.0558 37.9176 41.3346 36.3725 41.5995C35.3601 41.7731 34.3807 41.4485 33.6391 40.6935C32.9443 39.9861 32.6914 39.3226 32.7351 38.3219C32.7581 37.7953 32.7907 37.6577 32.9928 37.2341C33.3957 36.3897 34.0454 35.8072 34.931 35.4966C35.5216 35.2894 36.3955 35.3222 37.0183 35.5749ZM49.2907 35.4576C49.869 35.6291 50.2665 35.8661 50.6814 36.2868C51.6966 37.316 51.9089 38.6969 51.2515 39.9949C51.0088 40.4742 50.354 41.0964 49.8383 41.3377C47.7376 42.3208 45.3198 40.7743 45.3251 38.451C45.3281 37.126 46.3735 35.8169 47.7275 35.4425C48.1422 35.3278 48.8773 35.3349 49.2907 35.4576Z" fill="#2D2D2D"/>
</svg>
