<svg width="39" height="47" viewBox="0 0 39 47" fill="none" xmlns="http://www.w3.org/2000/svg">
<path fill-rule="evenodd" clip-rule="evenodd" d="M28.654 0.0238611C26.6773 0.214361 24.3566 1.3593 22.7284 2.94736C20.9865 4.64628 19.8094 7.00795 19.603 9.21795C19.5713 9.55733 19.5859 10.3649 19.6278 10.5905L19.6561 10.743L19.8522 10.7708C20.1385 10.8115 20.8431 10.787 21.2051 10.7239C22.5862 10.4831 24.0245 9.80336 25.3101 8.78394C25.6987 8.47571 26.4175 7.74832 26.7713 7.30502C27.2863 6.65981 27.7236 5.97031 28.0766 5.2468C28.5908 4.19306 28.8954 3.19622 29.062 2.02226C29.1101 1.68297 29.1323 0.625799 29.097 0.35281C29.0482 -0.0241183 29.0575 -0.00209532 28.9494 0.00142652C28.8974 0.00311883 28.7644 0.013227 28.654 0.0238611ZM27.7685 11.3344C27.2363 11.3658 26.5144 11.4822 25.8818 11.6385C25.049 11.8443 24.4241 12.0567 22.9545 12.6334C21.7622 13.1013 21.3924 13.2316 20.9128 13.353C20.3043 13.5071 19.7705 13.5032 19.1125 13.3401C18.6466 13.2246 18.3062 13.1035 17.0817 12.618C15.9033 12.1508 15.4736 11.9952 14.916 11.8339C13.5583 11.4412 12.4747 11.3539 11.1083 11.5269C9.63505 11.7134 8.20954 12.2017 6.92329 12.9604C4.42262 14.4353 2.55442 16.8175 1.54853 19.8138C0.805577 22.0269 0.545464 24.5356 0.773103 27.2926C0.981555 29.817 1.59868 32.4966 2.55596 35.0338C3.17043 36.6624 4.00142 38.378 4.82675 39.722C5.58131 40.9507 7.10215 43.0136 8.04701 44.09C9.80453 46.0922 11.4346 46.945 13.2559 46.815C14.2148 46.7465 14.8229 46.5756 16.2991 45.9597C17.2513 45.5623 17.649 45.4137 18.1416 45.2713C19.6309 44.8406 21.3137 44.8028 22.7716 45.1671C23.3817 45.3196 23.7329 45.4466 24.7726 45.8908C26.0623 46.4417 26.5562 46.5974 27.3683 46.7089C27.7289 46.7584 28.5019 46.7776 28.809 46.7447C30.2282 46.5927 31.5233 45.8881 32.8117 44.5669C33.598 43.7607 34.3934 42.7472 35.537 41.0941C36.7979 39.2717 37.9206 37.0471 38.6187 34.9881C38.8309 34.3623 38.8322 34.3564 38.7642 34.3354C38.534 34.2642 37.6531 33.7807 37.1906 33.4717C34.5476 31.7062 32.952 29.1609 32.6071 26.1606C32.3202 23.665 32.8707 21.2914 34.2061 19.2656C34.9802 18.0912 36.0988 16.9715 37.2992 16.1691C37.4533 16.0662 37.5793 15.9708 37.5793 15.9573C37.5793 15.9185 37.2654 15.4984 36.9929 15.1723C35.0657 12.867 32.3419 11.5423 29.1178 11.3422C28.7706 11.3206 28.0705 11.3166 27.7685 11.3344Z" fill="#2D2D2D"/>
</svg>
