<svg width="117" height="39" viewBox="0 0 117 39" fill="none" xmlns="http://www.w3.org/2000/svg">
<path d="M49.6729 20.4167C49.6729 25.9139 45.3724 29.9647 40.0947 29.9647C34.8171 29.9647 30.5166 25.9139 30.5166 20.4167C30.5166 14.8807 34.8171 10.8687 40.0947 10.8687C45.3724 10.8687 49.6729 14.8807 49.6729 20.4167ZM45.48 20.4167C45.48 16.9814 42.9876 14.631 40.0947 14.631C37.2019 14.631 34.7095 16.9814 34.7095 20.4167C34.7095 23.8174 37.2019 26.2023 40.0947 26.2023C42.9876 26.2023 45.48 23.8131 45.48 20.4167Z" fill="#2D2D2D"/>
<path d="M70.336 20.4167C70.336 25.9139 66.0355 29.9647 60.7578 29.9647C55.4802 29.9647 51.1797 25.9139 51.1797 20.4167C51.1797 14.885 55.4802 10.8687 60.7578 10.8687C66.0355 10.8687 70.336 14.8807 70.336 20.4167ZM66.1431 20.4167C66.1431 16.9814 63.6506 14.631 60.7578 14.631C57.865 14.631 55.3725 16.9814 55.3725 20.4167C55.3725 23.8174 57.865 26.2023 60.7578 26.2023C63.6506 26.2023 66.1431 23.8131 66.1431 20.4167Z" fill="#2D2D2D"/>
<path d="M90.1377 11.4455V28.5871C90.1377 35.6384 85.9793 38.5183 81.0632 38.5183C76.4356 38.5183 73.6504 35.4231 72.6 32.8919L76.2505 31.3723C76.9005 32.9264 78.4932 34.7602 81.0589 34.7602C84.2057 34.7602 86.1558 32.8187 86.1558 29.164V27.7907H86.0094C85.0709 28.9487 83.2629 29.9604 80.9814 29.9604C76.2074 29.9604 71.8337 25.8019 71.8337 20.4511C71.8337 15.0615 76.2074 10.8687 80.9814 10.8687C83.2586 10.8687 85.0666 11.8803 86.0094 13.0038H86.1558V11.4498H90.1377V11.4455ZM86.4528 20.4511C86.4528 17.0891 84.21 14.631 81.3559 14.631C78.4631 14.631 76.0395 17.0891 76.0395 20.4511C76.0395 23.7787 78.4631 26.2023 81.3559 26.2023C84.21 26.2023 86.4528 23.7787 86.4528 20.4511Z" fill="#2D2D2D"/>
<path d="M96.7026 1.39819V29.3793H92.613V1.39819H96.7026Z" fill="#2D2D2D"/>
<path d="M112.639 23.5591L115.893 25.7287C114.843 27.2827 112.312 29.9603 107.938 29.9603C102.514 29.9603 98.4631 25.7674 98.4631 20.4123C98.4631 14.7343 102.548 10.8643 107.469 10.8643C112.424 10.8643 114.847 14.8074 115.639 16.9383L116.074 18.0231L103.31 23.3094C104.288 25.225 105.807 26.2022 107.938 26.2022C110.073 26.2022 111.554 25.1518 112.639 23.5591ZM102.622 20.1238L111.154 16.581C110.684 15.3886 109.272 14.5578 107.611 14.5578C105.48 14.5578 102.514 16.439 102.622 20.1238Z" fill="#2D2D2D"/>
<path d="M15.0366 17.9329V13.8821H28.6871C28.8205 14.588 28.8894 15.4232 28.8894 16.3272C28.8894 19.3664 28.0586 23.1244 25.381 25.802C22.7766 28.514 19.449 29.9604 15.0409 29.9604C6.87043 29.9604 0 23.3052 0 15.1348C0 6.96427 6.87043 0.309082 15.0409 0.309082C19.5609 0.309082 22.7809 2.08265 25.2002 4.39432L22.3418 7.2527C20.607 5.62549 18.2566 4.35988 15.0366 4.35988C9.07018 4.35988 4.40379 9.16832 4.40379 15.1348C4.40379 21.1012 9.07018 25.9096 15.0366 25.9096C18.9066 25.9096 21.1107 24.3556 22.5226 22.9436C23.6677 21.7986 24.421 20.1627 24.7181 17.9286L15.0366 17.9329Z" fill="#2D2D2D"/>
</svg>
