<svg width="119" height="31" viewBox="0 0 119 31" fill="none" xmlns="http://www.w3.org/2000/svg">
<path fill-rule="evenodd" clip-rule="evenodd" d="M3.39303 0.311242C1.83812 0.532051 0.571792 1.70688 0.23376 3.24225C0.16486 3.55522 0.159009 4.69664 0.170901 15.5267L0.18402 27.4661L0.291286 27.8116C0.694914 29.1116 1.61543 30.0182 2.94472 30.425L3.29865 30.5333L14.9313 30.5471C22.6372 30.5562 26.7177 30.5445 27.0194 30.5125C28.5311 30.3521 29.7292 29.4003 30.2303 27.9616L30.3865 27.5133V15.4559C30.3865 1.85299 30.4258 3.21837 30.0098 2.36029C29.54 1.39131 28.6797 0.687971 27.5786 0.372638C27.2834 0.288119 26.8264 0.284532 15.474 0.277925C8.98521 0.27415 3.54876 0.289157 3.39303 0.311242ZM15.7935 4.42303C15.901 4.48249 16.0536 4.62317 16.1326 4.73572L16.2763 4.94034L16.2893 12.5459C16.3038 21.0469 16.3294 20.3987 15.9662 20.7097C15.5355 21.0783 14.9648 21.0596 14.5685 20.6639C14.4499 20.5454 14.3506 20.3913 14.3202 20.2782C14.2848 20.1468 14.2732 17.8048 14.2819 12.5194L14.2942 4.94893L14.4239 4.75294C14.727 4.295 15.3085 4.15493 15.7935 4.42303ZM10.5949 4.86327C10.8493 4.95303 11.0464 5.13311 11.1609 5.38054C11.2447 5.56157 11.2484 5.85642 11.2494 12.5673L11.2504 19.5653L11.152 19.7581C11.0325 19.9924 10.8558 20.1647 10.6421 20.2554C10.4508 20.3367 10.0547 20.344 9.85825 20.2699C9.66137 20.1956 9.41489 19.951 9.31083 19.7267C9.22674 19.5455 9.22324 19.258 9.22324 12.5536C9.22324 5.85486 9.22683 5.56157 9.31064 5.38054C9.53438 4.8973 10.0746 4.6797 10.5949 4.86327ZM20.6939 4.86327C20.9483 4.95303 21.1453 5.13311 21.2599 5.38054C21.3437 5.56157 21.3473 5.85642 21.3483 12.5673L21.3493 19.5653L21.251 19.7581C21.1315 19.9924 20.9548 20.1647 20.7411 20.2554C20.5497 20.3367 20.1536 20.344 19.9572 20.2699C19.7603 20.1956 19.5138 19.951 19.4098 19.7267C19.3257 19.5455 19.3222 19.258 19.3222 12.5536C19.3222 5.85486 19.3258 5.56157 19.4096 5.38054C19.6333 4.8973 20.1736 4.6797 20.6939 4.86327ZM5.61145 6.90789C5.84783 7.0153 6.08629 7.28226 6.15382 7.51515C6.19002 7.63997 6.2012 9.12131 6.19134 12.4863L6.17732 17.2797L6.04859 17.4742C5.74751 17.9291 5.12109 18.0709 4.65871 17.7887C4.48929 17.6853 4.39816 17.5846 4.30147 17.3939L4.17169 17.1378V12.3785C4.17169 7.17037 4.15763 7.4395 4.44554 7.13247C4.726 6.83337 5.2326 6.73578 5.61145 6.90789ZM25.8094 6.90789C26.0457 7.0153 26.2842 7.28226 26.3517 7.51515C26.3879 7.63997 26.3991 9.12131 26.3892 12.4863L26.3752 17.2797L26.2465 17.4742C25.9454 17.9291 25.319 18.0709 24.8566 17.7887C24.6872 17.6853 24.5961 17.5846 24.4994 17.3939L24.3696 17.1378V12.3785C24.3696 7.17037 24.3555 7.4395 24.6434 7.13247C24.9239 6.83337 25.4305 6.73578 25.8094 6.90789ZM89.2341 9.91832C87.6946 10.1608 86.3897 11.2617 85.9146 12.7188C85.6363 13.5727 85.5261 14.8576 85.6145 16.219C85.6779 17.1958 85.7805 17.7572 85.9986 18.3208C86.4637 19.5229 87.5441 20.4875 88.7858 20.8094C89.2101 20.9193 90.214 20.9599 90.6379 20.8841C91.5563 20.72 92.3085 20.3306 92.9647 19.6795C93.384 19.2636 93.6765 18.8166 93.759 18.4658C93.8024 18.2812 93.7077 17.9135 93.5704 17.7335C93.3785 17.4819 93.1214 17.3778 92.7448 17.399C92.3336 17.4223 92.1361 17.5694 91.8956 18.0315C91.5258 18.7419 91.0586 19.0784 90.2871 19.19C89.7734 19.2642 89.4196 19.207 88.9444 18.9726C88.1571 18.5844 87.7512 17.9126 87.6065 16.7585C87.5345 16.1844 87.5473 14.4269 87.6274 13.8958C87.79 12.8172 88.1753 12.2375 89.005 11.8232C89.8319 11.4103 90.9347 11.5887 91.521 12.2301C91.6546 12.3764 91.8182 12.6045 91.8846 12.7372C92.0285 13.0248 92.1574 13.1737 92.3488 13.2735C92.9123 13.5672 93.5524 13.3168 93.721 12.7365C93.7876 12.5075 93.7877 12.4585 93.7221 12.2329C93.52 11.5375 92.7658 10.7507 91.8873 10.3186C91.2517 10.006 90.8987 9.92601 90.0836 9.90997C89.6943 9.90228 89.312 9.90605 89.2341 9.91832ZM99.4747 9.95527C98.9425 10.0606 98.4069 10.27 97.9905 10.5353C96.9335 11.209 96.321 12.2023 96.0666 13.6553C95.9623 14.2515 95.9499 16.4454 96.0472 17.084C96.3104 18.8099 97.1811 19.9955 98.6276 20.5977C99.2265 20.847 99.7967 20.9426 100.536 20.9175C101.815 20.8743 102.732 20.4899 103.558 19.6513C104.527 18.6664 104.887 17.3551 104.812 15.0784C104.762 13.5566 104.587 12.7261 104.159 11.9745C103.633 11.0514 102.697 10.3325 101.622 10.0263C101.163 9.89557 99.9748 9.85626 99.4747 9.95527ZM46.054 10.1402C45.7689 10.2735 45.5522 10.4876 45.407 10.7792L45.299 10.9963L45.286 15.3601C45.2773 18.2922 45.2893 19.8027 45.3228 19.9641C45.495 20.793 46.5633 21.0166 47.0444 20.3243L47.1866 20.1198L47.1994 16.7732C47.2064 14.9326 47.2276 13.4272 47.2466 13.4279C47.2655 13.4287 48.2446 14.9682 49.4223 16.8492C50.7968 19.0443 51.6285 20.3277 51.7446 20.4326C51.9779 20.6434 52.3713 20.7614 52.7317 20.7288C53.2072 20.6856 53.5924 20.4098 53.8001 19.9637L53.9104 19.7267L53.9109 15.2538C53.9113 11.3226 53.9026 10.7597 53.8383 10.6061C53.5399 9.89166 52.551 9.81648 52.1417 10.4771L52.0001 10.7057L51.9765 13.972L51.9529 17.2383L49.8529 13.9058C48.6979 12.0729 47.6666 10.486 47.561 10.3793C47.2089 10.0233 46.5331 9.9161 46.054 10.1402ZM66.014 10.1176C65.756 10.2348 65.5864 10.4496 65.5247 10.7377C65.4627 11.027 65.4556 19.7082 65.5171 20.0268C65.5611 20.2543 65.6715 20.4258 65.869 20.5732C65.9971 20.6689 66.0517 20.6708 69.1694 20.6838C71.9382 20.6953 72.364 20.6877 72.5322 20.6239C72.9051 20.4824 73.1514 20.0886 73.0964 19.7219C73.0428 19.3642 72.7772 19.0737 72.4304 18.9932C72.3285 18.9696 71.1566 18.9498 69.826 18.9492L67.4068 18.9481L67.4193 17.4733L67.4317 15.9986L69.6497 15.975C71.8326 15.9518 71.8704 15.9498 72.0347 15.8475C72.469 15.5774 72.5481 14.8936 72.1852 14.546C71.9045 14.2772 71.8945 14.2761 69.5568 14.2761H67.4081V13.0255V11.775L69.8975 11.7739C72.2167 11.773 72.3997 11.7669 72.5756 11.6858C72.804 11.5804 72.9478 11.4309 73.0452 11.1977C73.131 10.9924 73.1346 10.9153 73.069 10.6792C73.0038 10.4445 72.8103 10.2233 72.5775 10.1176C72.3987 10.0363 72.1939 10.031 69.2958 10.031C66.3977 10.031 66.1928 10.0363 66.014 10.1176ZM108.365 10.0912C107.873 10.23 107.441 10.7055 107.333 11.2283C107.299 11.3931 107.287 12.8517 107.295 15.7642C107.308 20.0506 107.309 20.0573 107.41 20.2458C107.534 20.4775 107.638 20.5747 107.863 20.6688C108.341 20.8685 108.886 20.6417 109.107 20.1514C109.13 20.0995 109.16 18.4758 109.172 16.5432L109.196 13.0293L110.419 16.4016C111.092 18.2564 111.69 19.8695 111.748 19.9863C112.014 20.5208 112.598 20.7458 113.113 20.5117C113.5 20.3362 113.497 20.3428 114.854 16.6589C115.553 14.7644 116.142 13.1942 116.164 13.1695C116.186 13.1448 116.204 14.683 116.204 16.5877C116.204 20.0203 116.205 20.0527 116.304 20.2576C116.444 20.547 116.69 20.699 117.064 20.7272C117.314 20.746 117.394 20.7317 117.573 20.6356C117.689 20.573 117.849 20.4313 117.926 20.3208L118.068 20.1198L118.082 15.7704C118.095 11.9024 118.088 11.3897 118.021 11.1379C117.719 10.0067 116.337 9.66198 115.554 10.5228C115.337 10.7615 115.296 10.8613 114.084 14.1149C113.399 15.9556 112.815 17.5086 112.786 17.5662C112.742 17.6564 112.576 17.2418 111.584 14.5459C110.951 12.8272 110.368 11.254 110.289 11.0498C110.035 10.3969 109.602 10.0756 108.937 10.0456C108.737 10.0367 108.487 10.0566 108.365 10.0912ZM40.8382 10.1823C40.7155 10.2443 40.5692 10.3734 40.4861 10.4931L40.3439 10.6977V15.401V20.1042L40.4855 20.3132C40.8202 20.8072 41.5065 20.88 41.9408 20.4675C42.2513 20.1726 42.23 20.5125 42.2463 15.5739C42.257 12.3248 42.2462 11.0217 42.2068 10.84C42.0736 10.2236 41.3981 9.89907 40.8382 10.1823ZM56.2352 10.1162C56.0578 10.1673 55.7935 10.4081 55.7189 10.5866C55.5415 11.0113 55.7127 11.5348 56.096 11.7397C56.2853 11.8408 56.3537 11.8465 57.5569 11.861L58.8193 11.8762V16.0097V20.1431L58.9393 20.3479C59.1049 20.6306 59.3642 20.7611 59.7631 20.7627C60.129 20.7641 60.385 20.641 60.5662 20.3765L60.6834 20.2056L60.6959 16.0408L60.7085 11.8761L61.9937 11.8609C63.4045 11.8443 63.446 11.8365 63.6939 11.5419C64.0659 11.0999 63.9356 10.4199 63.4323 10.1762C63.2271 10.0768 63.1994 10.0761 59.7836 10.0808C57.8906 10.0834 56.2938 10.0993 56.2352 10.1162ZM75.9997 10.1801C75.8844 10.2397 75.7251 10.37 75.6458 10.4698L75.5014 10.6511L75.489 15.3665C75.4769 19.934 75.4794 20.0873 75.5669 20.2582C75.6886 20.4954 75.8406 20.6293 76.0868 20.7161C76.4485 20.8437 76.7887 20.7833 77.0624 20.543C77.3922 20.2535 77.3866 20.2881 77.4127 18.4054L77.4363 16.7065H78.6329H79.8296L80.6499 18.5469C81.5246 20.5091 81.5643 20.5751 81.9384 20.6872C82.5948 20.8838 83.17 20.4722 83.17 19.806C83.17 19.5926 83.0796 19.3578 82.468 17.9829L81.766 16.4046L82.1633 16.1816C82.8743 15.7825 83.3888 15.1049 83.5961 14.2946C83.7094 13.8515 83.7195 13.0841 83.6184 12.6008C83.437 11.7337 82.7862 10.8972 81.9903 10.5077C81.1813 10.1119 81.1408 10.1071 78.5217 10.0884L76.2093 10.0718L75.9997 10.1801ZM100.985 11.6977C101.641 11.8736 102.244 12.3533 102.505 12.9076C102.808 13.5495 102.925 14.4612 102.881 15.8334C102.848 16.8641 102.749 17.4093 102.497 17.9315C101.813 19.3534 99.923 19.6606 98.7667 18.5376C98.4082 18.1894 98.1475 17.6115 98.0364 16.9188C97.952 16.3925 97.9234 15.0532 97.9835 14.4413C98.0559 13.7042 98.1424 13.3432 98.3501 12.9113C98.631 12.3273 99.1723 11.8842 99.8286 11.7011C100.113 11.6216 100.694 11.6199 100.985 11.6977ZM80.5523 11.8009C81.2785 11.9901 81.747 12.5529 81.7913 13.2891C81.8238 13.8321 81.7214 14.1283 81.3852 14.4624C81.169 14.6773 81.0555 14.7489 80.7977 14.8328C80.4954 14.9312 80.3966 14.9368 78.969 14.9368H77.4599V13.3323V11.7278H78.8657C79.9832 11.7278 80.3291 11.7428 80.5523 11.8009ZM5.37951 21.4957C5.43387 21.4961 5.77011 21.6858 6.12678 21.9172C8.04421 23.1617 10.1684 23.9353 12.6661 24.299C14.2282 24.5265 16.4076 24.5275 17.9516 24.3017C20.7075 23.8987 22.933 23.0339 24.8224 21.6322C25.2639 21.3046 25.9275 21.4491 26.2302 21.9387C26.4236 22.2515 26.4514 22.6321 26.3031 22.9384C25.9991 23.5664 23.8204 24.7889 21.6922 25.5256C19.5883 26.2538 16.5874 26.6453 14.2033 26.5024C10.792 26.298 7.89674 25.4485 5.49428 23.9471C4.38858 23.2562 4.17169 23.0207 4.17169 22.5114C4.17169 22.2117 4.24894 22.002 4.42808 21.8154C4.62869 21.6063 5.00613 21.437 5.18631 21.4752C5.23822 21.4861 5.32514 21.4954 5.37951 21.4957Z" fill="#2D2D2D"/>
</svg>
