<svg width="87" height="31" viewBox="0 0 87 31" fill="none" xmlns="http://www.w3.org/2000/svg">
<path fill-rule="evenodd" clip-rule="evenodd" d="M85.1503 0.404775C84.4214 0.600709 80.4121 1.67345 76.2409 2.78868C72.0696 3.90398 67.5302 5.11824 66.1533 5.48714C64.7764 5.85603 60.9991 6.86655 57.7593 7.73283C40.1826 12.4325 25.1406 16.4572 23.226 16.9725C20.6236 17.6729 19.5608 17.8282 17.8509 17.7577C15.2019 17.6486 13.0427 16.8223 11.4921 15.3243C9.86004 13.7477 9.11378 11.6875 9.22202 9.05754C9.30515 7.03782 9.85532 4.96133 10.9377 2.58236C11.1945 2.01783 11.3972 1.54901 11.388 1.54047C11.3788 1.53185 10.9659 2.01333 10.4705 2.61034C4.71855 9.54167 1.31124 15.6381 0.550252 20.36C0.384507 21.3883 0.400485 23.0666 0.584565 23.97C0.966714 25.8449 1.95765 27.2655 3.78814 28.5622C7.50581 31.1957 12.0602 31.4799 18.1904 29.4609C20.5615 28.68 23.4602 27.4976 34.2339 22.9165C35.7121 22.288 38.3794 21.1547 40.1613 20.3981C41.9432 19.6414 43.6165 18.9291 43.8797 18.8152C44.1429 18.7013 46.3961 17.7391 48.8867 16.6769C55.3138 13.9358 67.4551 8.7449 81.1742 2.87277C84.171 1.59003 86.6856 0.479803 86.7621 0.405656C86.9355 0.237554 86.8696 0.0357315 86.6437 0.0431684C86.5513 0.0461873 85.8793 0.208914 85.1503 0.404775Z" fill="#2D2D2D"/>
</svg>
