<svg width="114" height="19" viewBox="0 0 114 19" fill="none" xmlns="http://www.w3.org/2000/svg">
<path fill-rule="evenodd" clip-rule="evenodd" d="M5.20959 0.728929C3.22156 0.884412 1.79289 1.55585 1.03831 2.68928C0.577159 3.38201 0.378411 4.08655 0.348677 5.13404C0.331817 5.7279 0.361344 6.08921 0.462382 6.52566C0.712749 7.60708 1.43676 8.48892 2.83587 9.41662C3.33494 9.7475 3.68584 9.9541 4.84543 10.5997C6.29785 11.4084 6.73656 11.7006 7.20979 12.1744C7.5565 12.5215 7.70936 12.7663 7.78807 13.1001C7.88159 13.4969 7.82122 14.0497 7.64353 14.4239C7.39643 14.9442 6.93382 15.1887 6.19836 15.1878C5.34872 15.1867 4.78795 14.8107 4.60848 14.1216C4.57244 13.9833 4.56295 13.759 4.56295 13.0462V12.1455H2.39232H0.22168V12.8986C0.22168 13.71 0.252634 14.1428 0.341689 14.5766C0.698417 16.3141 1.92762 17.447 3.94432 17.8969C5.39083 18.2196 7.25713 18.1841 8.61095 17.808C9.46059 17.572 10.1407 17.2046 10.6684 16.6967C11.3561 16.0348 11.6899 15.3172 11.8381 14.1824C11.9103 13.6297 11.9099 12.462 11.8374 11.9968C11.6409 10.736 10.9135 9.78991 9.3608 8.7758C8.84678 8.44007 8.38895 8.1776 7.22421 7.55085C5.78918 6.7787 5.26758 6.43892 4.88875 6.02965C4.58629 5.70284 4.47375 5.40323 4.47375 4.92477C4.47375 4.00623 5.02699 3.46197 5.95929 3.46343C6.59449 3.46441 7.05767 3.69946 7.29248 4.14001C7.45245 4.44015 7.47696 4.59388 7.47696 5.29791V5.93096H9.49892H11.5209L11.5206 5.31397C11.5201 4.11197 11.4178 3.5182 11.1022 2.88642C10.5101 1.70146 9.26874 0.99779 7.37098 0.77145C6.90206 0.715519 5.68666 0.691612 5.20959 0.728929ZM57.8179 0.817509C55.6396 0.987086 54.158 1.75543 53.4673 3.07363C53.3224 3.35022 53.1754 3.74367 53.1074 4.03692C52.917 4.85837 52.9217 5.92671 53.1192 6.67959C53.3845 7.69111 54.1606 8.59427 55.5283 9.48316C55.9371 9.74887 56.3668 10.0005 57.2553 10.4944C57.6874 10.7345 58.243 11.0521 58.4901 11.1999C59.503 11.8061 60.0792 12.3448 60.2891 12.8819C60.3818 13.1192 60.4021 13.6551 60.3307 13.981C60.198 14.5861 59.8783 14.9282 59.3046 15.0791C59.0462 15.147 58.4949 15.1478 58.2423 15.0806C57.8171 14.9675 57.4623 14.701 57.3031 14.3751C57.1593 14.0807 57.135 13.8766 57.1345 12.9558L57.134 12.1158H54.9898H52.8457L52.8609 13.0896C52.8736 13.8963 52.8866 14.1195 52.9368 14.3905C53.2591 16.1291 54.3948 17.2658 56.2973 17.7539C57.8018 18.14 59.7904 18.1202 61.2243 17.7049C62.0797 17.4572 62.6928 17.113 63.2337 16.5772C64.0851 15.7337 64.4024 14.7595 64.401 12.993C64.4005 12.2455 64.368 11.9401 64.2387 11.4647C63.9866 10.5377 63.1592 9.59818 61.8469 8.74892C61.4094 8.46582 60.8901 8.16975 59.8319 7.60018C58.3474 6.80124 57.8399 6.47106 57.461 6.05751C57.0947 5.65773 56.9703 5.17225 57.0898 4.60827C57.2386 3.90576 57.7516 3.52367 58.5464 3.5234C59.1424 3.52322 59.6153 3.7699 59.8507 4.20388C60.001 4.4808 60.024 4.61565 60.0398 5.31397L60.0545 5.9607H62.0435H64.0324V5.27796C64.0324 4.90247 64.0176 4.45755 63.9995 4.28928C63.7858 2.30439 62.4234 1.15738 59.929 0.862082C59.4466 0.804991 58.2919 0.780608 57.8179 0.817509ZM106.657 0.805525C106.28 0.843259 105.658 0.946528 105.341 1.02402C104.394 1.2558 103.686 1.63168 103.101 2.21293C102.424 2.88529 102.091 3.60484 101.911 4.78617C101.859 5.12087 101.836 12.8969 101.885 13.5133C101.929 14.0752 101.982 14.3769 102.107 14.777C102.734 16.7807 104.828 17.8728 107.876 17.7856C110.967 17.6971 112.841 16.4266 113.214 14.1675C113.314 13.5646 113.333 13.0105 113.333 10.6458V8.33948H110.463H107.594V9.52887V10.7183H108.426H109.259L109.258 12.1232C109.258 13.6575 109.246 13.7964 109.09 14.0823C108.822 14.5745 108.337 14.8443 107.668 14.8729C106.775 14.9111 106.139 14.5088 105.937 13.7778C105.888 13.6002 105.884 13.3099 105.884 9.36532C105.884 5.38735 105.887 5.12964 105.938 4.91243C106.126 4.1136 106.687 3.69182 107.564 3.69182C108.099 3.69182 108.465 3.82479 108.772 4.13079C109.132 4.48936 109.199 4.7234 109.221 5.70052L109.237 6.40672H111.27H113.303V5.89067C113.303 4.1035 112.971 3.06896 112.129 2.22878C111.398 1.49906 110.484 1.09407 109.066 0.870378C108.747 0.820067 108.513 0.808083 107.728 0.801542C107.204 0.797201 106.723 0.798984 106.657 0.805525ZM68.1781 1.24307C68.1696 1.26528 68.1675 4.1054 68.1736 7.55448C68.1834 13.1423 68.1898 13.86 68.2326 14.1418C68.3985 15.2337 68.7208 15.9213 69.3667 16.5616C70.2297 17.417 71.4212 17.8417 73.2573 17.9483C74.4955 18.0201 75.7595 17.875 76.6901 17.5541C78.4066 16.9622 79.3425 15.7283 79.4933 13.8584C79.5134 13.6096 79.5242 11.3201 79.5242 7.33905V1.20314H77.4879H75.4516L75.4437 7.51434L75.4357 13.8255L75.3692 14.021C75.2006 14.5169 74.8698 14.8354 74.364 14.9892C74.0955 15.0708 73.5375 15.0624 73.2811 14.973C72.8246 14.8138 72.5397 14.5383 72.3478 14.0707L72.2838 13.9147L72.269 7.56637L72.2541 1.21801L70.2238 1.21036C68.5364 1.204 68.191 1.20953 68.1781 1.24307ZM17.5149 1.31464C17.4634 1.56135 14.5538 17.3939 14.5538 17.4276C14.5538 17.4613 14.915 17.468 16.7231 17.468H18.8924L18.9092 17.3714C18.9438 17.1724 21.0955 2.7858 21.0955 2.75342C21.0955 2.73481 21.1222 2.71961 21.1549 2.71961C21.1876 2.71961 21.2144 2.73638 21.2144 2.75687C21.2144 2.7932 23.3081 17.1796 23.3413 17.3714L23.358 17.468H25.5278H27.6977L27.6822 17.4011C27.6626 17.3163 24.7231 1.27195 24.7231 1.2495C24.7231 1.24037 23.1051 1.23287 21.1275 1.23287H17.532L17.5149 1.31464ZM31.2833 1.44833C31.2689 1.63875 30.9343 16.9689 30.9367 17.3268L30.9377 17.468H32.9596H34.9816L34.9818 16.2266C34.9824 13.1445 35.0734 2.88348 35.1004 2.85648C35.1163 2.84063 35.1373 2.83572 35.1472 2.8456C35.1571 2.85547 35.7662 6.11945 36.5008 10.0989C37.2354 14.0783 37.8433 17.3644 37.8517 17.4011L37.867 17.468H39.914H41.961L41.9919 17.3119C42.0088 17.2261 42.6148 13.9445 43.3385 10.0195C44.0622 6.0945 44.6657 2.87045 44.6796 2.8549C44.6955 2.83706 44.7144 2.83706 44.7307 2.8549C44.75 2.87604 44.8593 15.545 44.8544 17.193L44.8535 17.468H46.8768H48.9L48.8822 16.9402C48.8724 16.6499 48.7987 13.2814 48.7185 9.45453C48.6383 5.62767 48.564 2.21228 48.5534 1.86474L48.5341 1.23287L45.2442 1.2329L41.9544 1.23296L40.9587 7.43622C40.0199 13.2852 39.942 13.7324 39.8753 13.6582C39.8698 13.6521 39.4179 10.8573 38.8711 7.44743L37.8769 1.24774L34.5883 1.24019L31.2996 1.23261L31.2833 1.44833ZM84.0439 9.27612V17.3194H86.0213H87.9986L87.9984 16.9551C87.9982 16.7548 87.9515 13.8478 87.8945 10.4952C87.8375 7.14265 87.7908 4.32939 87.7907 4.24352C87.7904 3.99826 87.861 4.0376 87.9507 4.33272C87.9917 4.46766 88.4011 5.82243 88.8606 7.34336C89.32 8.86429 90.1861 11.7312 90.7851 13.7142L91.8743 17.3197L94.7461 17.3121L97.6178 17.3045L97.6253 9.26869L97.6328 1.23287H95.6249H93.617L93.6341 1.835C93.6434 2.16619 93.69 4.8055 93.7375 7.70018C93.7851 10.5949 93.8305 13.1941 93.8386 13.4762C93.852 13.949 93.8491 13.9891 93.8015 13.9891C93.7584 13.9891 93.4462 12.9448 91.9103 7.66301C90.8986 4.18366 90.0647 1.31351 90.0571 1.28491C90.0442 1.23579 89.8755 1.23287 87.0436 1.23287H84.0439V9.27612Z" fill="#2D2D2D"/>
</svg>
