<svg width="345" height="86" viewBox="0 0 345 86" fill="none" xmlns="http://www.w3.org/2000/svg">
<path d="M64.3365 42.754C64.3319 46.5281 64.3342 50.3048 64.3342 54.0811C64.3342 57.9117 64.3342 61.7441 64.3365 65.5769C64.3365 65.6575 64.3317 65.7436 64.3269 65.8306C64.3118 66.1044 64.2961 66.3898 64.4245 66.5599C64.7134 66.9434 65.1288 67.3723 65.5667 67.4751C66.1626 67.6165 66.6412 67.2039 66.7992 66.5843C66.8715 66.3011 66.8715 65.9921 66.8714 65.6948V65.6691C66.8759 58.006 66.8759 50.3408 66.8714 42.6777V42.6507C66.8715 42.3538 66.8715 42.0474 66.8014 41.7621C66.6479 41.1403 66.1716 40.7251 65.5757 40.8644C65.1378 40.9655 64.7179 41.3897 64.4268 41.7711C64.2963 41.9412 64.312 42.227 64.3271 42.5016C64.3318 42.5882 64.3365 42.6739 64.3365 42.754Z" fill="white" fill-opacity="0.15"/>
<path fill-rule="evenodd" clip-rule="evenodd" d="M47.4742 0.841548C46.3216 0.626876 45.1656 0.433629 44.0094 0.240381L44.0046 0.239096C43.5298 0.159826 43.055 0.0805556 42.5804 0H38.0093L37.8919 0.0274232L37.8021 0.049276L37.7947 0.0505615C37.65 0.0865544 37.505 0.122976 37.357 0.139258C25.68 1.47185 17.0774 7.29285 11.7434 17.6755C10.8722 19.371 10.2528 21.193 9.61765 23.0616L9.42168 23.6366L9.29987 23.9923C9.16935 24.3715 9.03641 24.752 8.89882 25.1333C8.83095 25.3214 8.76196 25.5095 8.69159 25.6976L8.42447 25.6959C8.13509 25.6942 7.74344 25.6917 7.35302 25.6998C5.97381 25.7289 5.14087 26.5101 5.09121 27.8834L5.08376 28.0865C5.04714 29.0818 5.01023 30.0845 5.11378 31.0696C5.17247 31.6352 5.41173 32.4587 5.82257 32.6606C6.82622 33.1529 6.80301 33.9045 6.77765 34.725L6.77289 34.8887C6.77018 35.0091 6.76281 35.1321 6.75539 35.2559C6.73189 35.6475 6.70804 36.0448 6.83158 36.3875C7.037 36.9579 7.34624 37.6332 7.82254 37.9271C8.40039 38.284 8.47264 38.6542 8.47038 39.2108C8.4605 42.9083 8.46271 46.6035 8.46494 50.3009L8.46586 51.8911L8.46549 52.023C8.46438 52.2874 8.46327 52.5539 8.50198 52.8136C8.6013 53.4867 9.02792 53.8814 9.69834 53.8972C10.4116 53.9131 10.8609 53.5159 10.9692 52.8046C11.0166 52.5017 11.0053 52.1897 11.0053 51.8821C11.0076 47.7107 11.0076 43.5416 11.0076 39.3698V38.3577H18.5718V69.9706H11.0076C11.0076 66.3756 11.0076 62.8505 11.0053 59.3253L11.0056 59.207C11.0065 58.911 11.0074 58.6114 10.9557 58.3222C10.8383 57.6512 10.3936 57.2831 9.71867 57.2921C9.04373 57.3011 8.61709 57.6829 8.50649 58.3535C8.46654 58.5956 8.46725 58.8467 8.46793 59.0944L8.46811 59.1908C8.46586 62.4644 8.46586 65.7406 8.46586 69.0147V69.9685C5.3711 70.325 4.23569 71.613 4.23344 74.6356V76.682C1.11385 77.0681 0.00325611 78.3227 0.00100188 81.3474C0.00100188 81.9914 -0.00125235 82.6354 0.00100188 83.2794C0.00777792 85.2946 0.721076 85.999 2.7549 85.999H45.1582C56.0474 85.999 66.9388 86.0012 77.828 85.999C79.6384 85.9969 80.3968 85.2496 80.4149 83.45C80.4239 82.6667 80.4194 81.8813 80.4172 81.0984C80.4081 78.345 79.1508 76.9897 76.3811 76.736C76.3536 76.7334 76.327 76.7116 76.2819 76.6747C76.2528 76.6507 76.2161 76.6208 76.1667 76.5856C76.1667 76.296 76.1713 76.0007 76.176 75.7017C76.1867 75.0229 76.1977 74.3249 76.1554 73.6303C76.0335 71.6267 74.5798 70.2037 72.5776 70.0448C72.3902 70.0289 72.2029 69.9998 71.9546 69.9685L71.9547 60.681C71.955 53.5223 71.9553 46.3649 71.9478 39.2061C71.9478 38.6452 71.9704 38.221 72.6182 37.9472C73.3134 37.6554 73.6092 36.978 73.6317 36.2286C73.6566 35.4744 73.6611 34.7182 73.643 33.9619C73.6317 33.509 73.7085 33.2013 74.2028 32.9836C74.9251 32.6674 75.3021 32.0255 75.3179 31.2358L75.3227 30.9903C75.3441 29.896 75.3656 28.8003 75.3089 27.7103C75.2457 26.4852 74.3969 25.7401 73.1441 25.7019C72.7572 25.6912 72.3702 25.6942 72.0025 25.6972H71.9908C71.8308 25.6985 71.6744 25.6998 71.5234 25.6998C71.4642 25.4997 71.4067 25.3004 71.3503 25.1025C71.2623 24.794 71.1771 24.4872 71.0924 24.1829C70.8023 23.1404 70.5194 22.1241 70.1623 21.1334C67.449 13.6117 62.5687 7.88073 55.5688 3.93137C54.6614 3.41975 53.8917 3.55644 53.517 4.25445C53.1377 4.96145 53.4447 5.59647 54.3589 6.1505C55.4153 6.79023 56.4763 7.43425 57.4808 8.15239C58.1351 8.61987 58.7531 9.13577 59.3115 9.60196C59.5411 9.7935 59.7605 9.97689 59.9683 10.1449L54.623 15.5438C50.9233 12.2877 46.5058 10.5198 41.5646 10.0909V2.32454L43.4784 2.70847L43.5916 2.7316C45.3317 3.07954 47.0226 3.41847 48.7112 3.76554C49.499 3.92708 50.1468 3.63957 50.3568 2.98655C50.5847 2.27527 50.2326 1.61797 49.4312 1.36002C48.7902 1.15349 48.1356 0.964953 47.4742 0.841548ZM77.8777 83.414H2.54498C2.54498 82.5073 2.53142 81.6705 2.54723 80.8336C2.5698 79.7003 3.0032 79.2829 4.16345 79.2829C10.0031 79.2787 15.8427 79.2808 21.6823 79.2808C21.9081 79.2808 22.1338 79.2898 22.3595 79.2761C23.1563 79.229 23.6733 78.7443 23.6823 78.0373C23.6913 77.3239 23.1857 76.8191 22.3956 76.7652C22.33 76.7609 22.2644 76.7587 22.1988 76.7579C22.1054 76.7562 22.012 76.7574 21.9185 76.7592L21.7184 76.7609H6.84061C6.84061 76.4425 6.83356 76.1276 6.82657 75.8152C6.80885 75.0251 6.79156 74.2534 6.89027 73.4958C6.93285 73.1702 7.46945 72.8638 7.87122 72.6345L7.94217 72.5938C8.09106 72.5073 8.30218 72.5266 8.51237 72.5458C8.60174 72.554 8.69094 72.5621 8.77512 72.5621H71.6566C73.3293 72.5621 73.6407 72.8676 73.6453 74.5057C73.6475 75.2282 73.6453 75.9485 73.6453 76.7609H29.0659C27.6935 76.7609 27.0931 77.1555 27.1111 78.0442C27.1269 78.9037 27.7138 79.2808 29.0321 79.2808H75.9184C77.5617 79.2808 77.8755 79.5949 77.8777 81.2531V83.414ZM61.7975 39.6033L61.7967 38.3423C64.3858 38.3423 66.8553 38.3423 69.3632 38.3444V69.9886H61.7922V49.7259C61.7922 48.377 61.3746 47.76 60.4875 47.7849C59.6342 47.8071 59.2528 48.3972 59.2528 49.7101V69.9886H56.7991L56.7994 67.1936C56.7998 65.2641 56.8002 63.3355 56.7968 61.4056C56.7968 60.3755 56.3025 59.7765 55.4966 59.7988C54.7224 59.8189 54.2641 60.3978 54.2619 61.3855C54.2585 63.5198 54.2589 65.6532 54.2594 67.8076L54.2596 69.9886H51.6773V16.3922C54.9142 18.8491 57.0496 21.8965 58.3069 25.5875C56.2415 26.0567 55.8668 26.5255 55.8668 28.6349L55.8664 29.1761C55.8656 29.8073 55.8648 30.4376 55.8736 31.0696C55.8849 31.9561 56.2934 32.5911 57.0609 33.0621C57.3047 33.2125 57.5101 33.5895 57.5372 33.8813C57.5833 34.3724 57.5761 34.8681 57.5689 35.3635C57.5667 35.5139 57.5645 35.6643 57.5639 35.8142L57.5643 36.0623C57.5733 36.9801 57.9729 37.6464 58.79 38.1156C59.0157 38.2459 59.2234 38.6092 59.2324 38.8719C59.2628 39.7199 59.2594 40.5687 59.256 41.4171C59.2544 41.8285 59.2528 42.2398 59.255 42.6507C59.2618 43.8196 59.6636 44.3715 60.501 44.3853C61.3746 44.3985 61.79 43.8355 61.7945 42.6126C61.7993 41.6198 61.7984 40.6257 61.7975 39.6033ZM49.0972 69.9728H41.4811L41.4817 65.6481C41.4828 61.3615 41.484 57.0745 41.4698 52.7887C41.4675 52.212 41.5984 51.9271 42.2102 51.7227C46.7519 50.2084 48.0295 44.5712 44.5939 41.2504C44.1988 40.8691 44.0047 40.5053 43.9957 39.9556C43.9709 38.461 43.2553 37.3641 41.9506 36.6099C41.7339 36.4844 41.5014 36.1613 41.5014 35.9278C41.4826 28.8796 41.487 21.831 41.4913 14.7828L41.4923 13.0127C41.4923 12.9317 41.5307 12.8533 41.5691 12.7008C43.2621 12.7162 44.8896 13.1091 46.481 13.643C49.0972 14.521 49.0972 14.5364 49.0972 17.2663V69.9728ZM24.522 27.7394C24.4611 26.4672 23.8042 25.9265 22.1112 25.6145C23.3369 21.921 25.4926 18.8984 28.7003 16.4213V69.9886H21.2173C21.2015 69.7037 21.1699 69.4119 21.1699 69.118L21.1691 60.9463C21.1688 53.68 21.1685 46.4141 21.1586 39.1479C21.1586 38.5981 21.2331 38.2279 21.811 37.9652C22.5356 37.6353 22.8313 36.951 22.8493 36.1703C22.8652 35.414 22.8742 34.6577 22.8539 33.9036C22.8403 33.4708 22.9374 33.2013 23.3911 32.9995C24.1089 32.6786 24.5062 32.0547 24.5243 31.2624C24.5513 30.0892 24.5784 28.9109 24.522 27.7394ZM33.2105 13.9263C33.4091 13.8358 33.6228 13.739 33.8604 13.6366C33.8604 15.2991 33.8604 16.7757 33.8537 18.2523C33.8544 18.5406 33.8529 18.829 33.8514 19.1174C33.8481 19.752 33.8448 20.3874 33.865 21.0211C33.892 21.903 34.3728 22.3966 35.1268 22.3966C35.8807 22.3944 36.3751 21.8987 36.3841 21.0169L36.3912 20.3664C36.4146 18.233 36.4382 16.0965 36.3705 13.9661C36.3435 13.1044 36.6663 12.8242 37.4337 12.7882C37.7287 12.7749 38.0228 12.7462 38.3452 12.7145C38.5138 12.6982 38.6901 12.6811 38.8784 12.6648C38.8847 12.7646 38.8924 12.8619 38.9 12.9574C38.9166 13.1683 38.9326 13.3714 38.9326 13.5736C38.9341 16.019 38.9343 18.4644 38.9346 20.9097V20.929C38.9351 25.8082 38.9356 30.6874 38.9461 35.5666C38.9484 36.1232 38.822 36.4617 38.2847 36.7535C37.0545 37.4245 36.4473 38.5373 36.4202 39.9264C36.4089 40.4629 36.2486 40.8374 35.8423 41.2277C32.3571 44.5669 33.6595 50.1835 38.2622 51.7454L38.2933 51.7557C38.6644 51.8808 38.9528 51.9776 38.9506 52.5059C38.9343 56.6301 38.9333 60.7539 38.9323 64.8781L38.9303 69.6317C38.9303 69.7393 38.8965 69.8451 38.8694 69.9929H36.4857V66.6696C36.4857 66.5787 36.4873 66.4875 36.4888 66.3962C36.4926 66.1794 36.4964 65.9621 36.4789 65.7475C36.4225 65.0182 35.9146 64.5177 35.2442 64.5023C34.5421 64.4864 33.9801 65.007 33.9575 65.7766C33.9348 66.5603 33.9389 67.3457 33.943 68.1303L33.9454 68.6278L33.9462 69.0507V69.9976H31.3729C31.3548 69.6947 31.3255 69.3982 31.3255 69.1042L31.3246 59.3926C31.3234 44.8056 31.3222 30.2178 31.3074 15.6312C31.3074 14.9739 31.4722 14.5857 32.1178 14.377C32.4659 14.2643 32.8021 14.1118 33.1978 13.9318L33.2105 13.9263ZM20.3731 10.1581C25.5107 5.49106 31.6912 2.95742 38.9055 2.54221L38.9032 9.80378C38.1646 10.0086 37.428 10.201 36.6957 10.3921C35.0445 10.8232 33.4145 11.2486 31.8289 11.7988C29.5287 12.5975 27.5332 13.9931 25.7342 15.6089L20.3731 10.1581ZM11.6012 25.6998C12.6644 20.5207 14.9375 16.0353 18.4205 12.1193L23.7906 17.532C23.7784 17.5517 23.76 17.5932 23.7345 17.6421C23.7084 17.6922 23.6748 17.7501 23.6326 17.8011C21.7884 19.9979 20.4566 22.4664 19.5627 25.1813C19.4928 25.3969 19.1722 25.6754 18.9645 25.6775C17.076 25.7058 15.1874 25.7036 13.2529 25.7015H13.2333L11.6012 25.6998ZM62.0247 12.2564C65.4445 16.0893 67.7154 20.5412 68.8237 25.6976L67.2787 25.6985C65.2877 25.6994 63.3578 25.7002 61.4265 25.6844C61.2505 25.6818 60.957 25.534 60.9141 25.3947C60.018 22.4686 58.5507 19.8522 56.6659 17.6442L62.0247 12.2564ZM21.9555 30.6724H7.64872V28.2827H21.9555V30.6724ZM72.7446 30.6724H58.4379V28.2827H72.7446V30.6724ZM37.7114 48.6174C36.3073 47.4121 35.9958 45.2872 37.0184 43.8758C39.5285 45.9852 41.1018 45.9827 43.3772 43.8646C44.3952 45.13 44.1582 47.2373 42.858 48.485C41.4337 49.8493 39.2147 49.9076 37.7114 48.6174ZM9.37103 33.3247H20.2918V35.7122H9.37103V33.3247ZM71.0516 35.7122H60.1308V33.3226H71.0516V35.7122ZM41.4585 40.8151C41.472 40.8172 41.4856 40.8172 41.4991 40.8172C41.492 40.9299 41.4885 41.0435 41.485 41.1575C41.4814 41.2732 41.4778 41.3888 41.4705 41.5037C41.462 41.6357 41.4486 41.7672 41.4246 41.8966C41.2982 42.5676 40.8422 42.8997 40.1696 42.8838C39.533 42.8684 39.077 42.5338 39.0048 41.8966C38.9303 41.2367 38.9348 40.5636 38.9732 39.8994C39.0138 39.1903 39.445 38.7866 40.1673 38.7459C40.8671 38.7057 41.3659 39.1547 41.4517 39.8994C41.4724 40.0717 41.4716 40.2469 41.4672 40.4226L41.4641 40.5306L41.4623 40.5923C41.4602 40.6668 41.4585 40.7414 41.4585 40.8151Z" fill="white" fill-opacity="0.15"/>
<path d="M117.034 15.4799H104.425V24.3256H114.705V28.748H104.425V37.6991H117.034V42.122H98.8655V11.0571H117.034V15.4799Z" fill="white" fill-opacity="0.15"/>
<path d="M130.504 42.5432C128.924 42.5432 127.609 42.2762 126.56 41.7428C125.525 41.2093 124.707 40.5074 124.105 39.6368C123.518 38.7661 123.098 37.8045 122.847 36.7513C122.609 35.6985 122.49 34.6453 122.49 33.5921V19.7554H128.029V32.1601C128.029 33.1572 128.147 34.0836 128.385 34.9401C128.623 35.7825 129.057 36.4634 129.686 36.9831C130.329 37.5025 131.231 37.7626 132.392 37.7626C133.497 37.7626 134.448 37.4395 135.246 36.7937C136.043 36.1334 136.658 35.3052 137.092 34.3085C137.539 33.3114 137.763 32.3006 137.763 31.2757V19.7554H143.281V42.122H137.763V38.8479C137.586 39.0981 137.398 39.3402 137.197 39.5738C136.4 40.5002 135.434 41.2303 134.302 41.7638C133.183 42.2835 131.917 42.5432 130.504 42.5432Z" fill="white" fill-opacity="0.15"/>
<path d="M148.592 42.122V19.7554H154.11V22.7617C154.399 22.2869 154.734 21.8533 155.117 21.4612C155.746 20.8013 156.508 20.2889 157.403 19.9238C158.298 19.5587 159.32 19.3762 160.466 19.3762C161.376 19.3762 162.089 19.4465 162.606 19.5866C163.138 19.713 163.467 19.8184 163.592 19.9028L162.585 24.9782C162.546 24.9504 162.495 24.9208 162.431 24.89C162.355 24.8522 162.261 24.812 162.15 24.7691C162.029 24.7224 161.887 24.6727 161.725 24.6204C161.306 24.4657 160.739 24.3886 160.026 24.3886C158.893 24.3886 157.942 24.5853 157.173 24.9782C156.417 25.3574 155.816 25.8768 155.368 26.5371C154.921 27.1828 154.599 27.8988 154.403 28.6851C154.305 29.0724 154.231 29.4598 154.182 29.8471C154.134 30.2319 154.11 30.6171 154.11 31.0019V42.122H148.592Z" fill="white" fill-opacity="0.15"/>
<path fill-rule="evenodd" clip-rule="evenodd" d="M177.614 42.5642C175.264 42.5642 173.194 42.0727 171.404 41.0902C169.614 40.0931 168.208 38.7172 167.187 36.9621C166.18 35.2071 165.676 33.1992 165.676 30.9385C165.676 28.6641 166.18 26.663 167.187 24.9362C168.208 23.1953 169.614 21.8331 171.404 20.8502C173.194 19.8677 175.264 19.3762 177.614 19.3762C179.964 19.3762 182.034 19.8677 183.824 20.8502C185.614 21.8331 187.013 23.1953 188.02 24.9362C189.041 26.663 189.551 28.6641 189.551 30.9385C189.551 33.1992 189.041 35.2071 188.02 36.9621C187.013 38.7172 185.614 40.0931 183.824 41.0902C182.034 42.0727 179.964 42.5642 177.614 42.5642ZM177.614 38.0364C178.887 38.0364 179.999 37.7411 180.95 37.1515C181.901 36.5619 182.642 35.7405 183.174 34.6873C183.705 33.6204 183.971 32.3709 183.971 30.9385C183.971 29.5065 183.705 28.2707 183.174 27.2321C182.642 26.1788 181.901 25.3643 180.95 24.7888C179.999 24.2129 178.887 23.9254 177.614 23.9254C176.355 23.9254 175.243 24.2129 174.278 24.7888C173.327 25.3643 172.586 26.1788 172.054 27.2321C171.523 28.2707 171.257 29.5065 171.257 30.9385C171.257 32.3709 171.523 33.6204 172.054 34.6873C172.586 35.7405 173.327 36.5619 174.278 37.1515C175.243 37.7411 176.355 38.0364 177.614 38.0364Z" fill="white" fill-opacity="0.15"/>
<path fill-rule="evenodd" clip-rule="evenodd" d="M194.117 51.3255V19.7554H199.634V22.4364C200.281 21.7461 201.015 21.1613 201.837 20.6818C203.32 19.8115 204.928 19.3762 206.662 19.3762C208.467 19.3762 210.145 19.8184 211.698 20.7028C213.264 21.5876 214.523 22.8863 215.474 24.5994C216.439 26.3121 216.922 28.4044 216.922 30.8755C216.922 33.4168 216.453 35.558 215.516 37.2989C214.579 39.0399 213.334 40.36 211.782 41.2586C210.229 42.143 208.523 42.5852 206.662 42.5852C204.928 42.5852 203.32 42.1361 201.837 41.2376C201.015 40.7268 200.281 40.1124 199.634 39.3951V51.3255H194.117ZM199.634 31.8447V29.653L199.655 29.6539C199.655 28.5445 199.928 27.5757 200.473 26.7474C201.033 25.9192 201.746 25.273 202.613 24.8098C203.495 24.3325 204.425 24.0938 205.404 24.0938C207.026 24.0938 208.397 24.6414 209.516 25.7366C210.649 26.8177 211.215 28.5308 211.215 30.8755C211.215 33.206 210.649 34.926 209.516 36.0353C208.383 37.1447 207.012 37.6991 205.404 37.6991C204.411 37.6991 203.474 37.4605 202.592 36.9831C201.725 36.4917 201.019 35.8249 200.473 34.9821C199.928 34.126 199.655 33.1499 199.655 32.0547V31.8443L199.634 31.8447Z" fill="white" fill-opacity="0.15"/>
<path fill-rule="evenodd" clip-rule="evenodd" d="M226.713 34.8137C226.42 34.1864 226.21 33.491 226.083 32.7287H244.105C244.133 32.5744 244.154 32.3285 244.168 31.9917C244.182 31.6545 244.189 31.3387 244.189 31.0439C244.189 28.7271 243.713 26.6982 242.762 24.9572C241.811 23.2021 240.455 21.8331 238.692 20.8502C236.944 19.8677 234.867 19.3762 232.461 19.3762C230.125 19.3762 228.055 19.8677 226.251 20.8502C224.447 21.819 223.034 23.1743 222.013 24.9152C221.006 26.6562 220.503 28.6851 220.503 31.0019C220.503 33.2622 220.999 35.27 221.992 37.0251C222.999 38.7802 224.398 40.1492 226.188 41.1322C227.979 42.1151 230.07 42.6062 232.461 42.6062C234.224 42.6062 235.79 42.3958 237.161 41.9746C238.545 41.5392 239.72 40.9638 240.685 40.2474C241.65 39.5176 242.399 38.7099 242.93 37.8255C243.476 36.927 243.79 36.0075 243.874 35.0665H238.378C238.336 35.4316 238.196 35.7967 237.958 36.1617C237.734 36.5268 237.391 36.8709 236.93 37.1935C236.482 37.5025 235.902 37.7484 235.189 37.931C234.475 38.1135 233.629 38.2048 232.65 38.2048C231.209 38.2048 229.986 37.9168 228.979 37.3409C227.986 36.7513 227.23 35.9089 226.713 34.8137ZM238.483 28.7905H226.134C226.266 28.1473 226.466 27.5577 226.734 27.0212C227.279 25.9543 228.041 25.1398 229.021 24.578C230.014 24.0026 231.181 23.7146 232.524 23.7146C233.881 23.7146 235 23.9816 235.881 24.515C236.762 25.0344 237.419 25.7225 237.853 26.579C238.21 27.2732 238.42 28.0102 238.483 28.7905Z" fill="white" fill-opacity="0.15"/>
<path fill-rule="evenodd" clip-rule="evenodd" d="M256.375 42.5852C254.71 42.5852 253.249 42.3255 251.99 41.8062C250.731 41.2727 249.745 40.5074 249.032 39.5104C248.318 38.5137 247.962 37.3131 247.962 35.9089C247.962 34.3784 248.374 33.122 249.2 32.1391C250.039 31.142 251.165 30.3772 252.577 29.8433C253.99 29.2957 255.556 28.9447 257.277 28.7905C259.822 28.5377 261.599 28.299 262.606 28.0745C263.627 27.8358 264.137 27.4566 264.137 26.9368V26.8948C264.137 25.9119 263.697 25.1539 262.816 24.6204C261.934 24.087 260.69 23.82 259.081 23.82C257.389 23.82 256.088 24.1217 255.179 24.7254C254.284 25.3154 253.836 26.256 253.836 27.5479H248.381C248.381 25.7928 248.843 24.3115 249.766 23.104C250.703 21.8824 251.983 20.9556 253.605 20.324C255.228 19.692 257.067 19.3762 259.123 19.3762C261.039 19.3762 262.795 19.6641 264.389 20.2396C265.983 20.8155 267.263 21.6857 268.228 22.8512C269.193 24.0167 269.676 25.4697 269.676 27.2106V37.4043C269.676 37.9378 269.69 38.4644 269.718 38.9837C269.76 39.4894 269.837 39.9457 269.949 40.3528C270.089 40.8022 270.256 41.1815 270.452 41.49C270.648 41.7989 270.802 42.0097 270.914 42.122H265.459C265.361 42.0239 265.221 41.834 265.039 41.5534C264.872 41.2586 264.718 40.9214 264.578 40.5426C264.484 40.2606 264.406 39.9663 264.344 39.6595C264.206 39.8129 264.057 39.9616 263.9 40.106C263.719 40.2713 263.525 40.4312 263.319 40.5846C262.466 41.2162 261.445 41.7076 260.256 42.059C259.067 42.4099 257.773 42.5852 256.375 42.5852ZM257.717 38.2257C258.864 38.2257 259.927 38.0291 260.906 37.6362C261.885 37.2428 262.676 36.6391 263.277 35.8249C263.878 34.9962 264.179 33.9362 264.179 32.6447V31.5975C263.603 31.7526 262.974 31.891 262.291 32.0127C261.032 32.2235 259.759 32.3919 258.473 32.5183C256.822 32.6726 255.577 32.9605 254.738 33.3817C253.913 33.8029 253.5 34.4911 253.5 35.4457C253.5 36.3725 253.85 37.0676 254.549 37.5307C255.249 37.9939 256.305 38.2257 257.717 38.2257Z" fill="white" fill-opacity="0.15"/>
<path d="M290.555 42.122V29.5485C290.555 28.5377 290.408 27.6318 290.114 26.8319C289.835 26.0173 289.345 25.3784 288.646 24.9152C287.96 24.4516 287.009 24.2202 285.792 24.2202C284.729 24.2202 283.785 24.4799 282.96 24.9992C282.135 25.5048 281.485 26.2067 281.009 27.1057C280.547 27.9901 280.317 29.015 280.317 30.1805V42.122H274.799V19.7554H280.317V23.1289C281.08 22.1005 282.017 21.2637 283.128 20.6188C284.555 19.7901 286.135 19.3762 287.869 19.3762C289.66 19.3762 291.163 19.7271 292.38 20.429C293.611 21.1313 294.534 22.1279 295.149 23.4198C295.779 24.7117 296.094 26.2281 296.094 27.9691V42.122H290.555Z" fill="white" fill-opacity="0.15"/>
<path d="M115.057 69.1081C115.057 71.9627 114.393 74.0807 113.065 75.4634C111.738 76.8359 109.89 77.5219 107.522 77.5219C105.164 77.5219 103.322 76.8359 101.994 75.4634C100.667 74.0807 100.003 71.9627 100.003 69.1081V55.2191H102.544V69.0635C102.544 71.2711 102.965 72.8526 103.807 73.8073C104.649 74.7521 105.888 75.2247 107.522 75.2247C109.167 75.2247 110.41 74.7521 111.252 73.8073C112.104 72.8526 112.53 71.2711 112.53 69.0635V55.2191H115.057V69.1081Z" fill="white" fill-opacity="0.15"/>
<path d="M130.719 77.2236V67.6611C130.719 66.8354 130.58 66.1147 130.303 65.4981C130.025 64.8815 129.589 64.4037 128.995 64.0657C128.401 63.7276 127.623 63.5588 126.662 63.5588C125.82 63.5588 125.037 63.7773 124.314 64.2148C123.601 64.6428 123.026 65.2243 122.59 65.9604C122.164 66.6863 121.951 67.5021 121.951 68.4071V77.2236H119.425V61.3803H121.951V63.6997C122.479 63.0381 123.113 62.4893 123.853 62.0518C124.874 61.445 125.983 61.1417 127.182 61.1417C128.401 61.1417 129.466 61.3756 130.377 61.8431C131.288 62.3106 131.992 62.9816 132.487 63.857C132.993 64.7221 133.245 65.7663 133.245 66.9897V77.2236H130.719Z" fill="white" fill-opacity="0.15"/>
<path d="M137.801 77.2236V61.3803H140.298V77.2236H137.801Z" fill="white" fill-opacity="0.15"/>
<path d="M139.064 57.7403C138.598 57.7403 138.192 57.6114 137.845 57.3526C137.509 57.0839 137.34 56.721 137.34 56.2638C137.34 55.816 137.509 55.4629 137.845 55.2045C138.192 54.9359 138.598 54.8018 139.064 54.8018C139.53 54.8018 139.931 54.9359 140.268 55.2045C140.605 55.4629 140.773 55.816 140.773 56.2638C140.773 56.721 140.605 57.0839 140.268 57.3526C139.931 57.6114 139.53 57.7403 139.064 57.7403Z" fill="white" fill-opacity="0.15"/>
<path d="M157.612 61.3803L152.322 77.2236H149.008L143.599 61.3803H146.214L150.662 75.2475L154.997 61.3803H157.612Z" fill="white" fill-opacity="0.15"/>
<path fill-rule="evenodd" clip-rule="evenodd" d="M162.412 72.4499C162.089 71.8234 161.881 71.1121 161.787 70.3164H175.103L175.111 70.274L175.115 70.2457C175.121 70.2033 175.126 70.1515 175.131 70.0898C175.138 70.0079 175.143 69.9094 175.147 69.7945C175.154 69.624 175.158 69.4753 175.161 69.348L175.162 69.1676C175.162 67.6264 174.845 66.2539 174.211 65.0503C173.577 63.8368 172.676 62.8822 171.506 62.1859C170.337 61.49 168.955 61.1417 167.36 61.1417C165.795 61.1417 164.403 61.49 163.184 62.1859C161.966 62.8822 161.01 63.8471 160.316 65.0803C159.623 66.3036 159.276 67.7258 159.276 69.3468C159.276 70.948 159.618 72.3654 160.301 73.5986C160.995 74.8318 161.946 75.7963 163.155 76.4926C164.363 77.1889 165.76 77.5369 167.345 77.5369C168.544 77.5369 169.604 77.3826 170.526 77.0745C171.447 76.766 172.225 76.3585 172.859 75.8512C173.493 75.334 173.983 74.762 174.33 74.1355C174.677 73.5091 174.875 72.8775 174.924 72.2408H172.398C172.384 72.3629 172.36 72.4846 172.325 72.6067C172.3 72.6967 172.269 72.7867 172.232 72.8766C172.176 73.0129 172.108 73.1492 172.027 73.2854C171.924 73.4568 171.798 73.6222 171.647 73.7816C171.492 73.9457 171.311 74.1034 171.105 74.2551C170.709 74.5434 170.204 74.777 169.589 74.9561C168.975 75.1253 168.252 75.2097 167.42 75.2097C166.251 75.2097 165.24 74.9711 164.388 74.4937C163.536 74.0164 162.877 73.3351 162.412 72.4499ZM172.444 68.0489H161.821C161.931 67.3582 162.138 66.7368 162.441 66.1841C162.917 65.3091 163.581 64.6325 164.433 64.1552C165.285 63.6779 166.271 63.4392 167.39 63.4392C168.5 63.4392 169.431 63.668 170.184 64.1256C170.937 64.5828 171.502 65.1947 171.878 65.9604C172.205 66.5997 172.393 67.296 172.444 68.0489Z" fill="white" fill-opacity="0.15"/>
<path d="M179.1 77.2236V61.3803H181.626V63.4542C181.799 63.1735 181.997 62.9096 182.221 62.6636C182.647 62.1962 183.177 61.8281 183.811 61.5594C184.445 61.2809 185.188 61.1417 186.04 61.1417C186.674 61.1417 187.189 61.1965 187.585 61.3058C187.992 61.4052 188.244 61.4849 188.343 61.5444L187.689 64.0361L187.658 64.0155C187.636 64.0018 187.61 63.9872 187.58 63.9718L187.538 63.9513C187.472 63.9195 187.391 63.8848 187.295 63.8471C187.23 63.8218 187.159 63.7953 187.08 63.7674C187.051 63.7567 187.021 63.7469 186.99 63.7374C186.957 63.7272 186.922 63.7173 186.886 63.7083C186.814 63.6899 186.736 63.674 186.653 63.6607C186.589 63.6505 186.521 63.6415 186.451 63.6342C186.392 63.6277 186.331 63.6226 186.267 63.6183C186.124 63.6085 185.969 63.6033 185.802 63.6033C184.98 63.6033 184.296 63.7524 183.751 64.0507C183.216 64.3493 182.79 64.7469 182.473 65.2444C182.166 65.7316 181.948 66.2638 181.819 66.8405C181.691 67.4173 181.626 67.9893 181.626 68.5562V77.2236H179.1Z" fill="white" fill-opacity="0.15"/>
<path d="M196.801 77.5219C195.85 77.5219 194.969 77.4225 194.156 77.2236C193.354 77.015 192.65 76.7163 192.046 76.3285C191.451 75.9309 190.986 75.4433 190.649 74.8665C190.322 74.2898 190.159 73.6282 190.159 72.8826V72.4199H192.7V72.7481C192.7 73.5536 193.071 74.1702 193.814 74.5979C194.557 75.0156 195.573 75.2247 196.861 75.2247C197.653 75.2247 198.362 75.145 198.986 74.9861C199.61 74.8267 200.1 74.5833 200.457 74.2551C200.824 73.9269 201.007 73.5138 201.007 73.0167C201.007 72.1911 200.621 71.6045 199.848 71.2565C199.085 70.8983 197.941 70.5898 196.415 70.3314C195.613 70.1922 194.85 70.0131 194.126 69.7945C193.403 69.5657 192.759 69.2722 192.195 68.914C191.64 68.5562 191.199 68.1136 190.872 67.5865C190.555 67.0492 190.396 66.4078 190.396 65.6622C190.396 64.6973 190.679 63.8818 191.243 63.2155C191.818 62.539 192.591 62.0269 193.562 61.679C194.533 61.3208 195.613 61.1417 196.801 61.1417C197.951 61.1417 199.011 61.3259 199.982 61.694C200.952 62.0616 201.73 62.5989 202.315 63.3051C202.909 64.001 203.206 64.8614 203.206 65.8859V66.1841H200.68V65.9604C200.68 65.3837 200.497 64.9111 200.13 64.543C199.764 64.1651 199.288 63.8866 198.704 63.7079C198.119 63.5189 197.495 63.4242 196.831 63.4242C196.207 63.4242 195.593 63.4941 194.988 63.6333C194.384 63.7623 193.884 63.9812 193.487 64.2898C193.091 64.5978 192.893 65.0208 192.893 65.5576C192.893 66.0945 193.076 66.5273 193.443 66.8555C193.819 67.1739 194.344 67.4374 195.018 67.6461L195.255 67.7129C195.355 67.7408 195.458 67.7682 195.563 67.7952C196.118 67.9375 196.739 68.072 197.426 68.198C198.248 68.3471 199.026 68.5361 199.759 68.7649C200.492 68.9838 201.136 69.2671 201.691 69.6154C202.255 69.9633 202.696 70.406 203.013 70.9429C203.34 71.4703 203.504 72.1165 203.504 72.8826C203.504 73.6582 203.325 74.3344 202.969 74.9115C202.622 75.4883 202.136 75.9703 201.512 76.3585C200.898 76.7463 200.185 77.0347 199.372 77.2236C198.57 77.4225 197.713 77.5219 196.801 77.5219Z" fill="white" fill-opacity="0.15"/>
<path d="M207.577 77.2236V61.3803H210.073V77.2236H207.577Z" fill="white" fill-opacity="0.15"/>
<path d="M208.84 57.7403C208.374 57.7403 207.968 57.6114 207.621 57.3526C207.285 57.0839 207.116 56.721 207.116 56.2638C207.116 55.816 207.285 55.4629 207.621 55.2045C207.968 54.9359 208.374 54.8018 208.84 54.8018C209.306 54.8018 209.707 54.9359 210.044 55.2045C210.381 55.4629 210.549 55.816 210.549 56.2638C210.549 56.721 210.381 57.0839 210.044 57.3526C209.707 57.6114 209.306 57.7403 208.84 57.7403Z" fill="white" fill-opacity="0.15"/>
<path d="M220.325 77.425C220.248 77.4165 220.172 77.4066 220.096 77.395C219.925 77.3698 219.755 77.3376 219.586 77.2982C219.121 77.1889 218.7 76.9948 218.323 76.7163C217.957 76.4279 217.664 76.0252 217.446 75.508C217.228 74.9809 217.119 74.3048 217.119 73.4791V63.6183H213.271V61.3803H215.737C216.074 61.3803 216.337 61.3705 216.525 61.3508C216.598 61.3392 216.662 61.3225 216.719 61.3006C216.808 61.2659 216.878 61.2179 216.926 61.1567C217.015 61.0474 217.07 60.8833 217.09 60.6643C217.11 60.4355 217.119 60.1223 217.119 59.7247V56.1292H219.661V61.3803H224.594V63.6183H219.661V72.5244C219.661 73.3698 219.76 74.031 219.958 74.5083C220.166 74.9861 220.627 75.2247 221.34 75.2247C221.627 75.2247 221.9 75.1999 222.157 75.1502C222.277 75.127 222.384 75.1035 222.476 75.0803C222.581 75.0538 222.668 75.0272 222.737 75.0006V77.2086C222.623 77.2489 222.476 77.2875 222.298 77.323C222.253 77.3325 222.205 77.3415 222.156 77.35L222.024 77.3727C221.726 77.4323 221.389 77.4623 221.013 77.4623C220.781 77.4623 220.552 77.4499 220.325 77.425Z" fill="white" fill-opacity="0.15"/>
<path d="M228.308 83.9072C227.912 83.9072 227.55 83.8823 227.223 83.8322C227.083 83.815 226.965 83.7979 226.87 83.7808C226.745 83.7585 226.659 83.7358 226.614 83.7131V81.5051C226.743 81.5646 226.956 81.6148 227.253 81.6542C227.55 81.694 227.848 81.7142 228.145 81.7142C228.779 81.7142 229.314 81.5796 229.75 81.3114C230.186 81.0526 230.552 80.6948 230.849 80.2372C231.147 79.7894 231.389 79.2825 231.578 78.7156L232.053 77.3132L226.614 61.3803H229.259L233.448 74.4676L237.552 61.3803H240.152L234.371 78.5811C234.045 79.546 233.648 80.4309 233.183 81.2368C232.727 82.0424 232.113 82.6886 231.34 83.1762C230.577 83.6634 229.566 83.9072 228.308 83.9072Z" fill="white" fill-opacity="0.15"/>
<path fill-rule="evenodd" clip-rule="evenodd" d="M258.208 77.5073C256.623 77.5073 255.221 77.1542 254.003 76.4481C252.794 75.7316 251.843 74.7573 251.149 73.5241C250.466 72.2806 250.124 70.8683 250.124 69.2872C250.124 67.7057 250.466 66.3036 251.149 65.0803C251.843 63.857 252.794 62.8972 254.003 62.2009C255.221 61.505 256.623 61.1567 258.208 61.1567C259.793 61.1567 261.19 61.505 262.399 62.2009C263.618 62.8972 264.569 63.857 265.252 65.0803C265.946 66.3036 266.293 67.7057 266.293 69.2872C266.293 70.8683 265.946 72.2806 265.252 73.5241C264.569 74.7573 263.618 75.7316 262.399 76.4481C261.19 77.1542 259.793 77.5073 258.208 77.5073ZM258.208 75.1797C259.298 75.1797 260.259 74.9364 261.091 74.4488C261.924 73.9616 262.572 73.2751 263.038 72.3903C263.514 71.5051 263.751 70.4707 263.751 69.2872C263.751 68.1037 263.514 67.0792 263.038 66.2141C262.572 65.3387 261.924 64.6677 261.091 64.2002C260.259 63.7229 259.298 63.4838 258.208 63.4838C257.128 63.4838 256.167 63.7229 255.325 64.2002C254.493 64.6677 253.839 65.3387 253.364 66.2141C252.898 67.0792 252.665 68.1037 252.665 69.2872C252.665 70.4707 252.898 71.5051 253.364 72.3903C253.839 73.2751 254.493 73.9616 255.325 74.4488C256.167 74.9364 257.128 75.1797 258.208 75.1797Z" fill="white" fill-opacity="0.15"/>
<path d="M271.982 77.2236V63.6183H268.534V61.3803H271.982V59.3369C271.982 58.6307 272.061 57.9841 272.219 57.3975C272.388 56.8007 272.626 56.2736 272.933 55.816C273.25 55.3584 273.631 54.9706 274.077 54.6522C274.523 54.3343 275.028 54.0956 275.593 53.9362C276.167 53.7674 276.792 53.6826 277.465 53.6826C277.951 53.6826 278.337 53.7126 278.624 53.7721C278.79 53.8068 278.924 53.8394 279.027 53.8707C279.068 53.8827 279.104 53.8947 279.134 53.9062C279.161 53.9165 279.185 53.9264 279.204 53.9362V56.1742C279.085 56.1344 278.887 56.0894 278.61 56.0397C278.439 56.0092 278.262 55.9878 278.077 55.9763C277.96 55.969 277.841 55.9651 277.718 55.9651C277.044 55.9651 276.494 56.0697 276.068 56.2783C275.652 56.4874 275.33 56.7758 275.102 57.1439C274.875 57.5017 274.716 57.9096 274.627 58.3672C274.548 58.8244 274.508 59.3017 274.508 59.7992V61.3803H279.115V63.6183H274.508V77.2236H271.982Z" fill="white" fill-opacity="0.15"/>
<path fill-rule="evenodd" clip-rule="evenodd" d="M288.367 77.2236L294.401 55.1596H298.354L304.342 77.2236H301.727L300.194 71.3906H292.529L290.983 77.2236H288.367ZM296.377 56.8718L299.605 69.1531H293.122L296.377 56.8718Z" fill="white" fill-opacity="0.15"/>
<path d="M307.767 77.2236V61.3803H310.294V63.4538C310.466 63.1731 310.664 62.9096 310.888 62.6636C311.314 62.1962 311.844 61.8281 312.478 61.5594C313.112 61.2809 313.855 61.1417 314.707 61.1417C315.341 61.1417 315.857 61.1965 316.253 61.3058C316.659 61.4052 316.912 61.4849 317.011 61.5444L316.357 64.0361C316.302 63.9971 316.214 63.9521 316.094 63.9007C315.999 63.86 315.883 63.8158 315.748 63.7674C315.45 63.6582 315.024 63.6033 314.47 63.6033C313.647 63.6033 312.964 63.7524 312.419 64.0507C311.884 64.3493 311.458 64.7469 311.141 65.2444C310.834 65.7316 310.616 66.2638 310.487 66.8405C310.358 67.4173 310.294 67.9893 310.294 68.5562V77.2236H307.767Z" fill="white" fill-opacity="0.15"/>
<path d="M325.967 77.4623C325.677 77.4623 325.39 77.443 325.107 77.404C324.917 77.3775 324.728 77.3423 324.54 77.2982C324.075 77.1889 323.654 76.9948 323.277 76.7163C322.911 76.4279 322.618 76.0252 322.401 75.508C322.183 74.9809 322.074 74.3048 322.074 73.4791V63.6183H318.225V61.3803H320.692C321.028 61.3803 321.291 61.3705 321.479 61.3508C321.667 61.3208 321.801 61.2561 321.88 61.1567C321.906 61.1254 321.928 61.0898 321.948 61.05C321.961 61.0234 321.973 60.9947 321.984 60.9643C322.013 60.8794 322.033 60.7796 322.044 60.6643C322.064 60.4355 322.074 60.1223 322.074 59.7247V56.1292H324.615V61.3803H329.549V63.6183H324.615V72.5244C324.615 73.3698 324.714 74.031 324.912 74.5083C325.12 74.9861 325.581 75.2247 326.294 75.2247C326.581 75.2247 326.854 75.1999 327.111 75.1502C327.369 75.1005 327.562 75.0503 327.691 75.0006V77.2086C327.523 77.2682 327.285 77.323 326.978 77.3727C326.819 77.4045 326.65 77.4276 326.469 77.4426C326.311 77.4559 326.143 77.4623 325.967 77.4623Z" fill="white" fill-opacity="0.15"/>
<path d="M338.298 77.5219C337.347 77.5219 336.465 77.4225 335.653 77.2236C334.85 77.015 334.147 76.7163 333.542 76.3285C332.948 75.9309 332.482 75.4433 332.145 74.8665C331.819 74.2898 331.655 73.6282 331.655 72.8826V72.4199H334.196V72.7481C334.196 73.5536 334.568 74.1702 335.311 74.5979C336.054 75.0156 337.069 75.2247 338.357 75.2247C339.15 75.2247 339.858 75.145 340.482 74.9861C341.107 74.8267 341.597 74.5833 341.954 74.2551C342.32 73.9269 342.503 73.5138 342.503 73.0167C342.503 72.1911 342.117 71.6045 341.344 71.2565C340.581 70.8983 339.437 70.5898 337.911 70.3314C337.109 70.1922 336.346 70.0131 335.623 69.7945C334.9 69.5657 334.256 69.2722 333.691 68.914C333.136 68.5562 332.695 68.1136 332.368 67.5865C332.051 67.0492 331.893 66.4078 331.893 65.6622C331.893 64.6973 332.175 63.8818 332.74 63.2155C333.314 62.539 334.087 62.0269 335.058 61.679C336.029 61.3208 337.109 61.1417 338.298 61.1417C339.447 61.1417 340.507 61.3259 341.478 61.694C342.449 62.0616 343.227 62.5989 343.811 63.3051C344.406 64.001 344.703 64.8614 344.703 65.8859V66.1841H342.176V65.9604C342.176 65.3837 341.993 64.9111 341.627 64.543C341.26 64.1651 340.785 63.8866 340.2 63.7079C339.615 63.5189 338.991 63.4242 338.328 63.4242C337.703 63.4242 337.089 63.4941 336.485 63.6333C335.88 63.7623 335.38 63.9812 334.984 64.2898C334.588 64.5978 334.389 65.0208 334.389 65.5576C334.389 66.0945 334.573 66.5273 334.939 66.8555C335.316 67.1739 335.841 67.4374 336.515 67.6461C336.758 67.7168 337.016 67.7858 337.289 67.8526C337.575 67.9229 337.878 67.991 338.198 68.057C338.43 68.105 338.672 68.1521 338.922 68.198C339.744 68.3471 340.522 68.5361 341.255 68.7649C341.988 68.9838 342.632 69.2671 343.187 69.6154C343.752 69.9633 344.193 70.406 344.51 70.9429C344.837 71.4703 345 72.1165 345 72.8826C345 73.6582 344.822 74.3344 344.465 74.9115C344.118 75.4883 343.633 75.9703 343.009 76.3585C342.394 76.7463 341.681 77.0347 340.869 77.2236C340.066 77.4225 339.209 77.5219 338.298 77.5219Z" fill="white" fill-opacity="0.15"/>
<path d="M13.5451 54.0811C13.5451 50.3048 13.5428 46.5281 13.5473 42.754C13.5473 42.4194 13.4661 41.9952 13.6376 41.7711C13.9288 41.3897 14.3486 40.9655 14.7866 40.8644C15.3825 40.7251 15.8588 41.1403 16.0123 41.7621C16.0824 42.0474 16.0823 42.3534 16.0823 42.6507V42.6777C16.0856 48.425 16.0852 54.1736 16.0848 59.9218L16.0845 65.7089C16.0846 65.9467 16.0848 66.1867 16.0484 66.4206C15.9446 67.0916 15.5224 67.4867 14.852 67.5021C14.1387 67.5201 13.6895 67.1229 13.5812 66.4116C13.5338 66.1108 13.5473 65.7989 13.5451 65.4917V54.0811Z" fill="white" fill-opacity="0.15"/>
</svg>
