<svg width="20" height="13" viewBox="0 0 20 13" fill="none" xmlns="http://www.w3.org/2000/svg">
<path d="M7.7688 5.80455C8.83366 5.32476 9.38953 4.59875 9.38953 3.46871C9.38953 1.24019 7.62816 0.697266 5.59554 0.697266H0V11.8841H5.75293C7.90944 11.8841 9.93536 10.9087 9.93536 8.63597C9.93536 7.23131 9.2288 6.19281 7.7688 5.80455ZM2.60858 2.60697H5.05642C5.99738 2.60697 6.84458 2.85634 6.84458 3.88537C6.84458 4.83549 6.1849 5.21744 5.25398 5.21744H2.60858V2.60697ZM5.39798 9.98382H2.60858V6.90303H5.45155C6.60013 6.90303 7.32678 7.35442 7.32678 8.50024C7.32678 9.63029 6.45949 9.98382 5.39798 9.98382ZM17.4028 2.38602H12.5908V1.28438H17.4028V2.38602ZM19.2881 7.951C19.2881 5.55519 17.8013 3.55709 15.1056 3.55709C12.487 3.55709 10.7089 5.41314 10.7089 7.84368C10.7089 10.3658 12.3932 12.0955 15.1056 12.0955C17.1583 12.0955 18.4877 11.2243 19.1273 9.37145H17.0445C16.8201 10.0627 15.8959 10.4289 15.1793 10.4289C13.7963 10.4289 13.0697 9.66501 13.0697 8.36767H19.268C19.278 8.23509 19.2881 8.09305 19.2881 7.951ZM13.073 6.96616C13.15 5.90241 13.9001 5.23638 15.032 5.23638C16.2174 5.23638 16.8134 5.89294 16.9139 6.96616H13.073Z" fill="white"/>
</svg>
