<svg width="19" height="16" viewBox="0 0 19 16" fill="none" xmlns="http://www.w3.org/2000/svg">
<path d="M9.86867 3.90988C7.32403 3.90988 5.27151 5.63782 5.27151 7.78006C5.27151 9.9223 7.32403 11.6502 9.86867 11.6502C12.4133 11.6502 14.4658 9.9223 14.4658 7.78006C14.4658 5.63782 12.4133 3.90988 9.86867 3.90988ZM9.86867 10.2962C8.22425 10.2962 6.87992 9.1678 6.87992 7.78006C6.87992 6.39232 8.22025 5.26394 9.86867 5.26394C11.5171 5.26394 12.8574 6.39232 12.8574 7.78006C12.8574 9.1678 11.5131 10.2962 9.86867 10.2962ZM15.7261 3.75157C15.7261 4.25345 15.246 4.65428 14.6539 4.65428C14.0577 4.65428 13.5816 4.25008 13.5816 3.75157C13.5816 3.25307 14.0617 2.84887 14.6539 2.84887C15.246 2.84887 15.7261 3.25307 15.7261 3.75157ZM18.7709 4.66775C18.7029 3.45853 18.3748 2.38741 17.3225 1.50492C16.2743 0.622424 15.002 0.346224 13.5656 0.285595C12.0852 0.21486 7.64811 0.21486 6.16774 0.285595C4.73538 0.342856 3.46306 0.619056 2.41079 1.50155C1.35853 2.38404 1.03445 3.45516 0.96243 4.66438C0.878409 5.91065 0.878409 9.6461 0.96243 10.8924C1.03045 12.1016 1.35853 13.1727 2.41079 14.0552C3.46306 14.9377 4.73138 15.2139 6.16774 15.2745C7.64811 15.3453 12.0852 15.3453 13.5656 15.2745C15.002 15.2173 16.2743 14.9411 17.3225 14.0552C18.3708 13.1727 18.6989 12.1016 18.7709 10.8924C18.8549 9.6461 18.8549 5.91402 18.7709 4.66775ZM16.8584 12.2296C16.5463 12.8898 15.9422 13.3984 15.154 13.6645C13.9737 14.0586 11.173 13.9676 9.86867 13.9676C8.56434 13.9676 5.75963 14.0552 4.58334 13.6645C3.79914 13.4017 3.19499 12.8931 2.87891 12.2296C2.41079 11.2359 2.51882 8.87812 2.51882 7.78006C2.51882 6.68199 2.41479 4.32082 2.87891 3.33054C3.19099 2.67035 3.79514 2.16174 4.58334 1.89564C5.76364 1.50155 8.56434 1.59249 9.86867 1.59249C11.173 1.59249 13.9777 1.50492 15.154 1.89564C15.9382 2.15837 16.5423 2.66698 16.8584 3.33054C17.3265 4.32418 17.2185 6.68199 17.2185 7.78006C17.2185 8.87812 17.3265 11.2393 16.8584 12.2296Z" fill="white"/>
</svg>
