<svg width="21" height="19" viewBox="0 0 21 19" fill="none" xmlns="http://www.w3.org/2000/svg">
<path d="M8.62256 10.9017C8.06709 10.9017 7.6203 10.495 7.6203 10.0003C7.6203 9.49457 8.06709 9.08782 8.62256 9.08782C9.16998 9.08782 9.61275 9.49457 9.61275 10.0003C9.61275 10.4986 9.16596 10.9017 8.62256 10.9017ZM20.7987 9.08782C20.7987 14.1081 16.3308 18.1756 10.8163 18.1756C5.3018 18.1756 0.833862 14.1081 0.833862 9.08782C0.833862 4.06753 5.3018 0 10.8163 0C16.3308 0 20.7987 4.06753 20.7987 9.08782ZM15.4734 7.57807C15.095 7.57807 14.7609 7.72098 14.5154 7.94451C13.6138 7.37652 12.3982 7.01008 11.0497 6.96977L11.7501 4.10051L13.9801 4.55857C13.9801 5.05693 14.4269 5.46002 14.9703 5.46002C15.5257 5.46002 15.9725 5.04594 15.9725 4.54757C15.9725 4.04921 15.5257 3.63513 14.9703 3.63513C14.5798 3.63513 14.2457 3.84767 14.0807 4.14082L11.6173 3.64246C11.4965 3.61314 11.3718 3.69376 11.3396 3.80369L10.5707 6.96977C9.23439 7.02107 8.03086 7.38385 7.12922 7.95184C6.88369 7.71732 6.53752 7.57807 6.15916 7.57807C4.75438 7.57807 4.29551 9.29669 5.57954 9.87934C5.53526 10.0626 5.51111 10.2531 5.51111 10.4473C5.51111 12.3748 7.89401 13.9359 10.8243 13.9359C13.7667 13.9359 16.1496 12.3748 16.1496 10.4473C16.1496 10.2531 16.1255 10.0516 16.0731 9.86835C17.333 9.28203 16.8701 7.57807 15.4734 7.57807ZM12.7001 11.8362C11.9675 12.5031 9.6369 12.4921 8.9325 11.8362C8.84395 11.7555 8.68696 11.7555 8.59841 11.8362C8.49778 11.9278 8.49778 12.0707 8.59841 12.1513C9.51615 12.9868 12.1124 12.9868 13.0341 12.1513C13.1348 12.0707 13.1348 11.9278 13.0341 11.8362C12.9456 11.7555 12.7886 11.7555 12.7001 11.8362ZM13.01 9.08782C12.4626 9.08782 12.0198 9.49457 12.0198 10.0003C12.0198 10.4986 12.4666 10.9017 13.01 10.9017C13.5655 10.9017 14.0123 10.495 14.0123 10.0003C14.0123 9.49457 13.5695 9.08782 13.01 9.08782Z" fill="white"/>
</svg>
