<svg width="19" height="17" viewBox="0 0 19 17" fill="none" xmlns="http://www.w3.org/2000/svg">
<path d="M4.81315 16.5598H1.09495V5.65893H4.81315V16.5598ZM2.95205 4.17195C1.76309 4.17195 0.798706 3.27539 0.798706 2.19295C0.798706 1.67302 1.02558 1.17438 1.42941 0.806735C1.83324 0.439087 2.38095 0.232544 2.95205 0.232544C3.52315 0.232544 4.07086 0.439087 4.47469 0.806735C4.87852 1.17438 5.10539 1.67302 5.10539 2.19295C5.10539 3.27539 4.14061 4.17195 2.95205 4.17195ZM18.7292 16.5598H15.019V11.2533C15.019 9.98868 14.991 8.36685 13.0858 8.36685C11.1527 8.36685 10.8564 9.74085 10.8564 11.1622V16.5598H7.14224V5.65893H10.7083V7.14592H10.7604C11.2568 6.28944 12.4693 5.38559 14.2784 5.38559C18.0415 5.38559 18.7332 7.64158 18.7332 10.5718V16.5598H18.7292Z" fill="white"/>
</svg>
