<svg width="22" height="16" viewBox="0 0 22 16" fill="none" xmlns="http://www.w3.org/2000/svg">
<path d="M19.253 4.45703C19.2661 4.61539 19.2661 4.77378 19.2661 4.93214C19.2661 9.76219 15.0095 15.3275 7.22952 15.3275C4.83267 15.3275 2.60611 14.728 0.733154 13.6874C1.0737 13.7213 1.40111 13.7326 1.75476 13.7326C3.73245 13.7326 5.55303 13.1557 7.00686 12.1716C5.14701 12.1377 3.5884 11.0857 3.05139 9.63778C3.31337 9.67169 3.5753 9.69432 3.85037 9.69432C4.23019 9.69432 4.61004 9.64906 4.96365 9.56992C3.02523 9.23054 1.57136 7.76004 1.57136 5.98411V5.93888C2.13453 6.21036 2.78946 6.38004 3.48358 6.40263C2.34409 5.74654 1.59757 4.62671 1.59757 3.35979C1.59757 2.68111 1.80709 2.05897 2.17384 1.516C4.25635 3.73308 7.38667 5.18095 10.8968 5.33934C10.8313 5.06786 10.792 4.7851 10.792 4.5023C10.792 2.4888 12.678 0.848633 15.0225 0.848633C16.2405 0.848633 17.3407 1.28979 18.1135 2.00242C19.0696 1.84406 19.9864 1.53864 20.7985 1.12011C20.4841 1.96851 19.8162 2.68114 18.9386 3.13358C19.79 3.05443 20.6151 2.85078 21.3748 2.56802C20.7986 3.29193 20.0782 3.93667 19.253 4.45703Z" fill="white"/>
</svg>
