<svg width="80" height="14" viewBox="0 0 80 14" fill="none" xmlns="http://www.w3.org/2000/svg">
<path d="M79.5174 7L74.8953 2.2169L69.9455 7L74.5676 11.7831L79.5174 7ZM0.433904 6.4142C0.099101 6.73773 0.0811358 7.26228 0.393778 7.58581L5.48857 12.8581C5.80121 13.1816 6.32608 13.1816 6.66087 12.8581C6.99567 12.5346 7.01364 12.01 6.701 11.6865L2.17229 7.00001L7.02201 2.31354C7.35681 1.99001 7.37478 1.46546 7.06214 1.14193C6.7495 0.818393 6.22464 0.818393 5.88983 1.14193L0.433904 6.4142ZM74.7598 6.17154L1.02837 6.17155L0.971619 7.82846L74.7031 7.82846L74.7598 6.17154Z" fill="#2D2D2D"/>
</svg>
