<svg width="141" height="35" viewBox="0 0 141 35" fill="none" xmlns="http://www.w3.org/2000/svg">
<path d="M26.294 17.3999C26.2922 18.9359 26.2931 20.4729 26.2931 22.0097C26.2931 23.5687 26.2931 25.1284 26.294 26.6883C26.294 26.7211 26.2921 26.7561 26.2901 26.7915C26.284 26.903 26.2775 27.0191 26.33 27.0883C26.4481 27.2444 26.6178 27.419 26.7968 27.4608C27.0404 27.5184 27.2359 27.3504 27.3005 27.0983C27.3301 26.983 27.3301 26.8573 27.33 26.7362V26.7258C27.3319 23.6071 27.3319 20.4875 27.33 17.3688V17.3579C27.3301 17.237 27.3301 17.1123 27.3015 16.9962C27.2387 16.7432 27.0441 16.5742 26.8005 16.6308C26.6215 16.672 26.4499 16.8446 26.3309 16.9998C26.2776 17.0691 26.284 17.1854 26.2902 17.2972C26.2921 17.3324 26.294 17.3673 26.294 17.3999Z" fill="white"/>
<path fill-rule="evenodd" clip-rule="evenodd" d="M19.4025 0.342491C18.9314 0.255124 18.459 0.176477 17.9865 0.0978296L17.9845 0.0973064C17.7904 0.0650453 17.5964 0.0327842 17.4024 0H15.5343L15.4862 0.0111606L15.4495 0.0200542L15.4465 0.0205773C15.3874 0.0352256 15.3281 0.0500483 15.2676 0.0566749C10.4953 0.59901 6.97948 2.96802 4.7995 7.19352C4.4434 7.88356 4.19027 8.62504 3.93069 9.38553L3.8506 9.61956L3.80082 9.7643C3.74747 9.91863 3.69314 10.0735 3.63691 10.2287C3.60917 10.3052 3.58098 10.3818 3.55221 10.4583L3.44304 10.4576C3.32477 10.457 3.16471 10.4559 3.00515 10.4592C2.44147 10.4711 2.10105 10.789 2.08075 11.3479L2.07771 11.4305C2.06274 11.8356 2.04766 12.2437 2.08998 12.6446C2.11396 12.8748 2.21175 13.21 2.37966 13.2921C2.78985 13.4925 2.78036 13.7983 2.77 14.1323L2.76805 14.1989C2.76694 14.2479 2.76393 14.2979 2.7609 14.3483C2.75129 14.5077 2.74155 14.6694 2.79204 14.8089C2.87599 15.041 3.00238 15.3158 3.19704 15.4354C3.4332 15.5807 3.46273 15.7314 3.46181 15.9579C3.45777 17.4627 3.45867 18.9666 3.45958 20.4713L3.45996 21.1185L3.45981 21.1722C3.45935 21.2798 3.4589 21.3882 3.47472 21.4939C3.51531 21.7679 3.68967 21.9285 3.96367 21.9349C4.2552 21.9414 4.43878 21.7797 4.48307 21.4902C4.50244 21.367 4.49782 21.24 4.49782 21.1148C4.49875 19.4172 4.49875 17.7204 4.49875 16.0226V15.6107H7.5902V28.4764H4.49875C4.49875 27.0133 4.49875 25.5787 4.49782 24.144L4.49792 24.0959C4.49831 23.9754 4.4987 23.8535 4.47753 23.7358C4.42955 23.4627 4.24781 23.3129 3.97198 23.3166C3.69613 23.3202 3.52177 23.4756 3.47656 23.7485C3.46024 23.847 3.46053 23.9492 3.4608 24.05L3.46088 24.0893C3.45996 25.4216 3.45996 26.7549 3.45996 28.0874V28.4755C2.19515 28.6206 1.73111 29.1448 1.73019 30.3749V31.2078C0.455224 31.3649 0.00133076 31.8755 0.000409464 33.1065C0.000409464 33.3686 -0.000511831 33.6307 0.000409464 33.8928C0.0031788 34.7129 0.294701 34.9996 1.12592 34.9996H18.456C22.9063 34.9996 27.3576 35.0005 31.808 34.9996C32.5479 34.9987 32.8578 34.6946 32.8652 33.9622C32.8689 33.6434 32.8671 33.3238 32.8661 33.0052C32.8625 31.8846 32.3486 31.333 31.2166 31.2298C31.2054 31.2287 31.1945 31.2198 31.1761 31.2048C31.1642 31.1951 31.1492 31.1829 31.129 31.1686C31.129 31.0507 31.1309 30.9305 31.1328 30.8088C31.1372 30.5326 31.1417 30.2485 31.1244 29.9658C31.0746 29.1504 30.4804 28.5713 29.6621 28.5066C29.5856 28.5001 29.509 28.4883 29.4075 28.4755L29.4076 24.6958C29.4077 21.7823 29.4078 18.8694 29.4047 15.956C29.4047 15.7277 29.414 15.5551 29.6787 15.4436C29.9629 15.3249 30.0837 15.0492 30.093 14.7442C30.1031 14.4373 30.105 14.1295 30.0976 13.8217C30.093 13.6374 30.1243 13.5122 30.3264 13.4236C30.6216 13.2949 30.7757 13.0337 30.7821 12.7123L30.7841 12.6123C30.7928 12.167 30.8016 11.7211 30.7784 11.2774C30.7526 10.7789 30.4057 10.4756 29.8937 10.4601C29.7355 10.4557 29.5774 10.457 29.4271 10.4582H29.4223C29.3569 10.4587 29.293 10.4592 29.2313 10.4592C29.2071 10.3778 29.1836 10.2967 29.1605 10.2161C29.1246 10.0906 29.0898 9.96571 29.0552 9.8419C28.9366 9.41762 28.821 9.00398 28.675 8.6008C27.5661 5.53966 25.5716 3.20727 22.7107 1.59998C22.3399 1.39176 22.0253 1.44739 21.8721 1.73146C21.7172 2.0192 21.8426 2.27763 22.2163 2.50311C22.648 2.76347 23.0816 3.02557 23.4921 3.31783C23.7595 3.50809 24.0121 3.71805 24.2404 3.90778C24.3342 3.98573 24.4239 4.06036 24.5088 4.12872L22.3242 6.32596C20.8121 5.00082 19.0067 4.28131 16.9873 4.10675V0.946034L17.7694 1.10228L17.8157 1.1117C18.5269 1.2533 19.2179 1.39124 19.908 1.53249C20.23 1.59823 20.4948 1.48122 20.5806 1.21546C20.6738 0.92598 20.5298 0.658475 20.2023 0.553496C19.9403 0.469442 19.6728 0.392713 19.4025 0.342491ZM31.8283 33.9476H1.04012C1.04012 33.5786 1.03458 33.238 1.04104 32.8974C1.05027 32.4362 1.22739 32.2663 1.70158 32.2663C4.08821 32.2646 6.47485 32.2654 8.86147 32.2654C8.95373 32.2654 9.04598 32.2691 9.13823 32.2635C9.4639 32.2443 9.67516 32.0471 9.67885 31.7594C9.68254 31.469 9.47589 31.2636 9.153 31.2416C9.12619 31.2399 9.09938 31.239 9.07257 31.2387C9.03438 31.238 8.99619 31.2385 8.958 31.2392L8.87623 31.2399H2.79573C2.79573 31.1103 2.79284 30.9821 2.78999 30.855C2.78275 30.5335 2.77568 30.2194 2.81602 29.9111C2.83342 29.7785 3.05273 29.6539 3.21693 29.5606L3.24593 29.544C3.30678 29.5088 3.39307 29.5166 3.47897 29.5245C3.51549 29.5278 3.55195 29.5311 3.58635 29.5311H29.2857C29.9693 29.5311 30.0967 29.6554 30.0985 30.3221C30.0994 30.6161 30.0985 30.9093 30.0985 31.2399H11.8791C11.3182 31.2399 11.0728 31.4005 11.0802 31.7622C11.0867 32.112 11.3265 32.2654 11.8653 32.2654H31.0275C31.6991 32.2654 31.8274 32.3933 31.8283 33.0681V33.9476ZM25.2564 16.1176L25.2561 15.6044C26.3142 15.6044 27.3235 15.6044 28.3484 15.6053V28.4837H25.2542V20.2373C25.2542 19.6883 25.0835 19.4372 24.721 19.4473C24.3722 19.4564 24.2163 19.6965 24.2163 20.2308V28.4837H23.2135L23.2136 27.3462C23.2138 26.561 23.214 25.7761 23.2126 24.9907C23.2126 24.5714 23.0106 24.3276 22.6812 24.3367C22.3648 24.3449 22.1775 24.5805 22.1766 24.9825C22.1752 25.8511 22.1754 26.7193 22.1756 27.5961L22.1757 28.4837H21.1203V6.67124C22.4432 7.67116 23.3159 8.91138 23.8298 10.4135C22.9857 10.6045 22.8325 10.7953 22.8325 11.6537L22.8323 11.874C22.832 12.1309 22.8317 12.3874 22.8353 12.6446C22.8399 13.0054 23.0069 13.2638 23.3206 13.4555C23.4202 13.5167 23.5041 13.6702 23.5152 13.7889C23.534 13.9888 23.5311 14.1905 23.5282 14.3921C23.5273 14.4533 23.5264 14.5145 23.5261 14.5756L23.5263 14.6765C23.53 15.0501 23.6933 15.3212 24.0272 15.5122C24.1195 15.5652 24.2044 15.7131 24.208 15.82C24.2205 16.1651 24.2191 16.5105 24.2177 16.8558C24.217 17.0232 24.2164 17.1906 24.2173 17.3579C24.22 17.8336 24.3842 18.0582 24.7265 18.0638C25.0835 18.0692 25.2533 17.84 25.2551 17.3423C25.2571 16.9383 25.2567 16.5337 25.2564 16.1176ZM20.0658 28.4773H16.9531L16.9534 26.7172C16.9538 24.9727 16.9543 23.228 16.9485 21.4838C16.9476 21.2491 17.0011 21.1331 17.2511 21.0499C19.1073 20.4336 19.6294 18.1394 18.2253 16.788C18.0639 16.6328 17.9845 16.4847 17.9808 16.261C17.9707 15.6527 17.6783 15.2063 17.145 14.8994C17.0565 14.8483 16.9614 14.7168 16.9614 14.6218C16.9538 11.7533 16.9555 8.8847 16.9573 6.01626L16.9577 5.29587C16.9577 5.26292 16.9734 5.231 16.9891 5.16892C17.681 5.1752 18.3462 5.33511 18.9966 5.55239C20.0658 5.90971 20.0658 5.91599 20.0658 7.02699V28.4773ZM10.022 11.2893C9.99713 10.7715 9.72866 10.5515 9.03676 10.4245C9.5377 8.92132 10.4187 7.69122 11.7297 6.6831V28.4837H8.67143C8.66497 28.3678 8.65205 28.249 8.65205 28.1294L8.65171 24.8037C8.65159 21.8465 8.65147 18.8895 8.64744 15.9323C8.64744 15.7085 8.67789 15.5579 8.91406 15.451C9.21019 15.3167 9.33105 15.0382 9.33843 14.7205C9.34489 14.4127 9.34858 14.1049 9.34028 13.798C9.33474 13.6219 9.37441 13.5122 9.55984 13.43C9.85321 13.2994 10.0156 13.0455 10.023 12.7231C10.034 12.2456 10.0451 11.7661 10.022 11.2893ZM13.573 5.66766C13.6541 5.63087 13.7415 5.59146 13.8386 5.54978C13.8386 6.22639 13.8386 6.82732 13.8358 7.42825C13.8361 7.54561 13.8355 7.66297 13.8349 7.78033C13.8336 8.03859 13.8322 8.2972 13.8405 8.55512C13.8515 8.914 14.048 9.11489 14.3562 9.11489C14.6643 9.11402 14.8663 8.91226 14.87 8.55337L14.8729 8.28866C14.8825 7.4204 14.8921 6.55092 14.8645 5.68388C14.8534 5.33319 14.9853 5.21915 15.299 5.2045C15.4196 5.19909 15.5397 5.18741 15.6715 5.1745C15.7404 5.16788 15.8125 5.1609 15.8894 5.15427C15.892 5.19491 15.8952 5.23449 15.8982 5.27338C15.905 5.35918 15.9116 5.44183 15.9116 5.52414C15.9122 6.51935 15.9123 7.51456 15.9124 8.50978V8.51762C15.9126 10.5033 15.9128 12.489 15.9171 14.4748C15.918 14.7013 15.8664 14.8391 15.6468 14.9578C15.144 15.2309 14.8958 15.6838 14.8848 16.2491C14.8802 16.4675 14.8147 16.6199 14.6486 16.7787C13.2242 18.1377 13.7565 20.4235 15.6376 21.0592L15.6503 21.0633C15.802 21.1143 15.9198 21.1537 15.919 21.3687C15.9123 23.0471 15.9119 24.7254 15.9115 26.4039L15.9107 28.3385C15.9107 28.3823 15.8968 28.4253 15.8857 28.4855H14.9115V27.133C14.9115 27.096 14.9122 27.0589 14.9128 27.0217C14.9144 26.9335 14.9159 26.8451 14.9088 26.7577C14.8857 26.4609 14.6781 26.2572 14.4041 26.2509C14.1172 26.2445 13.8875 26.4564 13.8783 26.7695C13.869 27.0885 13.8707 27.4081 13.8724 27.7274L13.8733 27.9299L13.8737 28.102V28.4874H12.822C12.8146 28.3641 12.8026 28.2434 12.8026 28.1238L12.8022 24.1714C12.8017 18.2348 12.8012 12.2979 12.7952 6.36154C12.7952 6.09403 12.8626 5.93604 13.1264 5.85111C13.2687 5.80525 13.4061 5.74317 13.5678 5.66993L13.573 5.66766ZM8.32639 4.13413C10.4261 2.23473 12.952 1.2036 15.9005 1.03462L15.8996 3.98991C15.5977 4.07327 15.2967 4.15157 14.9974 4.22934C14.3225 4.40477 13.6563 4.57793 13.0083 4.80184C12.0682 5.1269 11.2527 5.69487 10.5174 6.35247L8.32639 4.13413ZM4.74138 10.4592C5.1759 8.35143 6.1049 6.52598 7.52839 4.93228L9.72313 7.13511C9.71811 7.14313 9.71061 7.16004 9.70019 7.17992C9.68953 7.20033 9.67581 7.22387 9.65855 7.24462C8.90483 8.13869 8.36053 9.14331 7.9952 10.2482C7.9666 10.3359 7.8356 10.4493 7.75073 10.4501C6.97888 10.4617 6.20703 10.4608 5.41639 10.4599H5.40839L4.74138 10.4592ZM25.3492 4.98809C26.7469 6.54795 27.675 8.35981 28.1279 10.4583L27.4965 10.4587C26.6828 10.459 25.8941 10.4594 25.1048 10.4529C25.0328 10.4519 24.9129 10.3917 24.8953 10.3351C24.5291 9.14419 23.9294 8.0794 23.1591 7.18079L25.3492 4.98809ZM8.9731 12.4829H3.126V11.5104H8.9731V12.4829ZM29.7304 12.4829H23.8833V11.5104H29.7304V12.4829ZM15.4125 19.7862C14.8387 19.2956 14.7113 18.4308 15.1293 17.8564C16.1551 18.7149 16.7981 18.7139 17.7281 17.8519C18.1441 18.3668 18.0473 19.2245 17.5159 19.7323C16.9338 20.2875 16.0269 20.3112 15.4125 19.7862ZM3.8299 13.5624H8.29318V14.5341H3.8299V13.5624ZM29.0385 14.5341H24.5752V13.5615H29.0385V14.5341ZM16.9439 16.6108C16.9494 16.6117 16.955 16.6117 16.9605 16.6117C16.9576 16.6575 16.9562 16.7037 16.9547 16.7501C16.9533 16.7972 16.9518 16.8443 16.9488 16.891C16.9454 16.9447 16.9399 16.9983 16.9301 17.0509C16.8784 17.324 16.692 17.4592 16.4171 17.4527C16.157 17.4464 15.9706 17.3103 15.9411 17.0509C15.9107 16.7824 15.9125 16.5084 15.9282 16.2381C15.9448 15.9495 16.121 15.7853 16.4162 15.7687C16.7022 15.7523 16.9061 15.9351 16.9411 16.2381C16.9496 16.3082 16.9493 16.3796 16.9474 16.4511L16.9462 16.495L16.9455 16.5201C16.9446 16.5505 16.9439 16.5808 16.9439 16.6108Z" fill="white"/>
<path d="M47.8313 6.29998H42.6781V9.89997H46.8796V11.6998H42.6781V15.3427H47.8313V17.1427H40.4059V4.49999H47.8313V6.29998Z" fill="white"/>
<path d="M53.3365 17.3141C52.6906 17.3141 52.1532 17.2054 51.7245 16.9883C51.3015 16.7712 50.9671 16.4856 50.7213 16.1312C50.4812 15.7769 50.3097 15.3856 50.2068 14.9569C50.1097 14.5285 50.0611 14.0998 50.0611 13.6712V8.03998H52.3247V13.0884C52.3247 13.4942 52.3733 13.8712 52.4705 14.2198C52.5676 14.5627 52.7449 14.8397 53.0021 15.0513C53.265 15.2626 53.6337 15.3685 54.1082 15.3685C54.5598 15.3685 54.9485 15.237 55.2743 14.9742C55.6001 14.7055 55.8516 14.3684 56.0289 13.9628C56.2118 13.557 56.3032 13.1456 56.3032 12.7285V8.03998H58.5583V17.1427H56.3032V15.8102C56.231 15.912 56.1538 16.0106 56.0717 16.1056C55.7459 16.4826 55.3515 16.7798 54.8885 16.9969C54.4311 17.2084 53.9138 17.3141 53.3365 17.3141Z" fill="white"/>
<path d="M60.7288 17.1427V8.03998H62.9839V9.26346C63.1021 9.07025 63.2393 8.89377 63.3955 8.73421C63.6527 8.46566 63.9642 8.25709 64.3301 8.10852C64.6959 7.95994 65.1132 7.88565 65.5819 7.88565C65.9535 7.88565 66.245 7.91425 66.4565 7.97128C66.6737 8.02272 66.8081 8.06562 66.8595 8.09997L66.4479 10.1656C66.4318 10.1542 66.4108 10.1422 66.385 10.1296C66.3538 10.1143 66.3155 10.0979 66.2701 10.0805C66.2206 10.0614 66.1627 10.0412 66.0964 10.0199C65.9249 9.95699 65.6934 9.9256 65.4019 9.9256C64.9388 9.9256 64.5501 10.0056 64.2357 10.1656C63.9271 10.3199 63.6813 10.5312 63.4984 10.8C63.3154 11.0628 63.184 11.3542 63.1039 11.6742C63.0638 11.8318 63.0337 11.9894 63.0137 12.1471C62.9938 12.3037 62.9839 12.4605 62.9839 12.617V17.1427H60.7288Z" fill="white"/>
<path fill-rule="evenodd" clip-rule="evenodd" d="M72.59 17.3226C71.6297 17.3226 70.7837 17.1226 70.052 16.7227C69.3203 16.317 68.7458 15.757 68.3285 15.0427C67.917 14.3285 67.7112 13.5113 67.7112 12.5912C67.7112 11.6656 67.917 10.8512 68.3285 10.1485C68.7458 9.43994 69.3203 8.88557 70.052 8.48554C70.7837 8.08567 71.6297 7.88565 72.59 7.88565C73.5503 7.88565 74.3964 8.08567 75.128 8.48554C75.8597 8.88557 76.4313 9.43994 76.8429 10.1485C77.2602 10.8512 77.4688 11.6656 77.4688 12.5912C77.4688 13.5113 77.2602 14.3285 76.8429 15.0427C76.4313 15.757 75.8597 16.317 75.128 16.7227C74.3964 17.1226 73.5503 17.3226 72.59 17.3226ZM72.59 15.4799C73.1102 15.4799 73.5646 15.3598 73.9533 15.1198C74.342 14.8799 74.645 14.5456 74.8622 14.1169C75.0794 13.6827 75.188 13.1742 75.188 12.5912C75.188 12.0084 75.0794 11.5055 74.8622 11.0828C74.645 10.6542 74.342 10.3227 73.9533 10.0885C73.5646 9.8541 73.1102 9.73709 72.59 9.73709C72.0756 9.73709 71.6211 9.8541 71.2267 10.0885C70.838 10.3227 70.535 10.6542 70.3178 11.0828C70.1006 11.5055 69.992 12.0084 69.992 12.5912C69.992 13.1742 70.1006 13.6827 70.3178 14.1169C70.535 14.5456 70.838 14.8799 71.2267 15.1198C71.6211 15.3598 72.0756 15.4799 72.59 15.4799Z" fill="white"/>
<path fill-rule="evenodd" clip-rule="evenodd" d="M79.3346 20.8883V8.03998H81.5896V9.13111C81.8539 8.85017 82.154 8.61214 82.49 8.417C83.0959 8.06283 83.7533 7.88565 84.4621 7.88565C85.1995 7.88565 85.8854 8.06562 86.5199 8.42555C87.1601 8.78565 87.6746 9.31421 88.0633 10.0114C88.4577 10.7084 88.6549 11.5599 88.6549 12.5656C88.6549 13.5999 88.4634 14.4713 88.0805 15.1798C87.6975 15.8883 87.1887 16.4256 86.5542 16.7913C85.9197 17.1512 85.2223 17.3312 84.4621 17.3312C83.7533 17.3312 83.0959 17.1484 82.49 16.7827C82.154 16.5749 81.8539 16.3248 81.5896 16.0329V20.8883H79.3346ZM81.5896 12.9601V12.0681L81.5982 12.0684C81.5982 11.617 81.7097 11.2227 81.9326 10.8856C82.1613 10.5485 82.4528 10.2855 82.8072 10.097C83.1673 9.90276 83.5475 9.80562 83.9476 9.80562C84.6107 9.80562 85.1709 10.0285 85.6282 10.4742C86.0912 10.9142 86.3227 11.6114 86.3227 12.5656C86.3227 13.5141 86.0912 14.2141 85.6282 14.6655C85.1652 15.117 84.605 15.3427 83.9476 15.3427C83.5417 15.3427 83.1588 15.2455 82.7986 15.0513C82.4442 14.8513 82.1555 14.5799 81.9326 14.2369C81.7097 13.8885 81.5982 13.4912 81.5982 13.0455V12.9599L81.5896 12.9601Z" fill="white"/>
<path fill-rule="evenodd" clip-rule="evenodd" d="M92.6565 14.1684C92.5368 13.9131 92.451 13.63 92.3991 13.3198H99.7647C99.7761 13.257 99.7847 13.1569 99.7904 13.0199C99.7961 12.8826 99.799 12.7541 99.799 12.6341C99.799 11.6912 99.6046 10.8655 99.2159 10.157C98.8272 9.44273 98.2727 8.88557 97.5525 8.48554C96.8379 8.08567 95.9891 7.88565 95.0059 7.88565C94.0513 7.88565 93.2053 8.08567 92.4679 8.48554C91.7305 8.87982 91.1531 9.4314 90.7358 10.1399C90.3243 10.8484 90.1185 11.6742 90.1185 12.617C90.1185 13.5369 90.3214 14.3541 90.7273 15.0684C91.1388 15.7826 91.7105 16.3398 92.4421 16.7398C93.1738 17.1399 94.0284 17.3397 95.0059 17.3397C95.7261 17.3397 96.3664 17.2541 96.9265 17.0827C97.4925 16.9055 97.9726 16.6713 98.367 16.3797C98.7615 16.0828 99.0673 15.754 99.2845 15.3941C99.5074 15.0284 99.636 14.6542 99.6703 14.2713H97.4239C97.4067 14.4198 97.3495 14.5684 97.2524 14.717C97.1609 14.8656 97.0209 15.0056 96.8322 15.1369C96.6493 15.2626 96.4121 15.3627 96.1206 15.437C95.829 15.5113 95.4832 15.5484 95.0831 15.5484C94.4943 15.5484 93.9941 15.4313 93.5825 15.1969C93.1767 14.9569 92.868 14.6141 92.6565 14.1684ZM97.4671 11.7171H92.4198C92.4741 11.4553 92.5559 11.2153 92.6651 10.997C92.888 10.5628 93.1995 10.2313 93.5997 10.0027C94.0055 9.76848 94.4828 9.65129 95.0316 9.65129C95.5861 9.65129 96.0434 9.75994 96.4035 9.97705C96.7636 10.1884 97.0323 10.4685 97.2095 10.8171C97.3555 11.0996 97.4414 11.3995 97.4671 11.7171Z" fill="white"/>
<path fill-rule="evenodd" clip-rule="evenodd" d="M104.779 17.3312C104.099 17.3312 103.502 17.2255 102.987 17.0141C102.473 16.797 102.07 16.4856 101.778 16.0798C101.487 15.6742 101.341 15.1856 101.341 14.6141C101.341 13.9912 101.51 13.4799 101.847 13.0799C102.19 12.6741 102.65 12.3628 103.227 12.1455C103.805 11.9226 104.445 11.7798 105.148 11.7171C106.188 11.6142 106.914 11.517 107.326 11.4257C107.743 11.3285 107.952 11.1742 107.952 10.9627V10.9456C107.952 10.5455 107.772 10.2371 107.412 10.0199C107.051 9.80284 106.543 9.69419 105.885 9.69419C105.194 9.69419 104.662 9.81696 104.29 10.0627C103.925 10.3028 103.742 10.6856 103.742 11.2113H101.512C101.512 10.4971 101.701 9.89421 102.078 9.4028C102.461 8.90563 102.984 8.52843 103.647 8.27139C104.31 8.01418 105.062 7.88565 105.902 7.88565C106.686 7.88565 107.403 8.00284 108.055 8.23704C108.706 8.47141 109.229 8.82559 109.624 9.29991C110.018 9.77424 110.215 10.3656 110.215 11.0741V15.2227C110.215 15.4398 110.221 15.6541 110.233 15.8655C110.25 16.0713 110.281 16.257 110.327 16.4226C110.384 16.6056 110.453 16.7599 110.533 16.8855C110.613 17.0112 110.676 17.097 110.721 17.1427H108.492C108.452 17.1027 108.395 17.0255 108.32 16.9113C108.252 16.7913 108.189 16.654 108.132 16.4999C108.094 16.3851 108.062 16.2653 108.036 16.1405C107.98 16.2029 107.919 16.2634 107.855 16.3222C107.781 16.3895 107.702 16.4545 107.617 16.517C107.269 16.774 106.851 16.974 106.365 17.117C105.88 17.2599 105.351 17.3312 104.779 17.3312ZM105.328 15.557C105.797 15.557 106.231 15.4769 106.631 15.317C107.031 15.157 107.354 14.9112 107.6 14.5799C107.846 14.2427 107.969 13.8112 107.969 13.2856V12.8594C107.734 12.9226 107.476 12.9789 107.197 13.0284C106.683 13.1142 106.163 13.1827 105.637 13.2342C104.962 13.297 104.453 13.4142 104.11 13.5856C103.773 13.757 103.605 14.0371 103.605 14.4256C103.605 14.8028 103.747 15.0856 104.033 15.2741C104.319 15.4626 104.751 15.557 105.328 15.557Z" fill="white"/>
<path d="M118.749 17.1427V12.0255C118.749 11.6142 118.688 11.2455 118.568 10.9199C118.454 10.5884 118.254 10.3284 117.968 10.1399C117.688 9.95124 117.299 9.85707 116.802 9.85707C116.368 9.85707 115.982 9.96275 115.645 10.1741C115.307 10.3799 115.041 10.6655 114.847 11.0314C114.659 11.3913 114.564 11.8084 114.564 12.2828V17.1427H112.309V8.03998H114.564V9.41291C114.876 8.99439 115.259 8.65382 115.713 8.39137C116.296 8.05411 116.942 7.88565 117.651 7.88565C118.383 7.88565 118.997 8.02848 119.494 8.31412C119.997 8.59993 120.375 9.00555 120.626 9.53132C120.884 10.0571 121.012 10.6742 121.012 11.3828V17.1427H118.749Z" fill="white"/>
<path d="M47.0232 28.1254C47.0232 29.2871 46.7519 30.1491 46.2093 30.7119C45.6668 31.2704 44.9116 31.5496 43.9439 31.5496C42.9802 31.5496 42.2271 31.2704 41.6846 30.7119C41.142 30.1491 40.8707 29.2871 40.8707 28.1254V22.4729H41.9093V28.1073C41.9093 29.0057 42.0814 29.6493 42.4255 30.0379C42.7697 30.4224 43.2758 30.6147 43.9439 30.6147C44.6161 30.6147 45.1242 30.4224 45.4684 30.0379C45.8166 29.6493 45.9907 29.0057 45.9907 28.1073V22.4729H47.0232V28.1254Z" fill="white"/>
<path d="M53.4242 31.4282V27.5365C53.4242 27.2005 53.3675 26.9071 53.2542 26.6562C53.1408 26.4053 52.9626 26.2108 52.7197 26.0732C52.4767 25.9356 52.1589 25.8669 51.7661 25.8669C51.422 25.8669 51.1021 25.9559 50.8065 26.1339C50.515 26.3081 50.2802 26.5448 50.102 26.8444C49.9279 27.1398 49.8408 27.4718 49.8408 27.8401V31.4282H48.8083V24.9804H49.8408V25.9243C50.0565 25.6551 50.3156 25.4317 50.6182 25.2536C51.0353 25.0067 51.4888 24.8832 51.9787 24.8832C52.4767 24.8832 52.912 24.9784 53.2845 25.1687C53.657 25.359 53.9445 25.632 54.147 25.9883C54.3535 26.3404 54.4567 26.7654 54.4567 27.2632V31.4282H53.4242Z" fill="white"/>
<path d="M56.3186 31.4282V24.9804H57.339V31.4282H56.3186Z" fill="white"/>
<path d="M56.8349 23.499C56.6446 23.499 56.4786 23.4465 56.3368 23.3412C56.1992 23.2318 56.1303 23.0841 56.1303 22.898C56.1303 22.7158 56.1992 22.5721 56.3368 22.467C56.4786 22.3576 56.6446 22.303 56.8349 22.303C57.0252 22.303 57.1892 22.3576 57.3268 22.467C57.4645 22.5721 57.5333 22.7158 57.5333 22.898C57.5333 23.0841 57.4645 23.2318 57.3268 23.3412C57.1892 23.4465 57.0252 23.499 56.8349 23.499Z" fill="white"/>
<path d="M64.4155 24.9804L62.2533 31.4282H60.8989L58.6882 24.9804H59.7571L61.5751 30.624L63.3465 24.9804H64.4155Z" fill="white"/>
<path fill-rule="evenodd" clip-rule="evenodd" d="M66.377 29.4854C66.2451 29.2305 66.16 28.941 66.1214 28.6171H71.5638L71.567 28.5999L71.5688 28.5884C71.5712 28.5711 71.5734 28.55 71.5754 28.5249C71.578 28.4916 71.5802 28.4515 71.582 28.4047C71.5846 28.3353 71.5864 28.2748 71.5873 28.223L71.588 28.1496C71.588 27.5224 71.4585 26.9638 71.1993 26.474C70.9402 25.9801 70.5717 25.5916 70.0939 25.3082C69.6162 25.025 69.0513 24.8832 68.3994 24.8832C67.7597 24.8832 67.1908 25.025 66.6928 25.3082C66.1947 25.5916 65.804 25.9843 65.5206 26.4862C65.2372 26.984 65.0954 27.5628 65.0954 28.2225C65.0954 28.8742 65.2351 29.4511 65.5145 29.9529C65.798 30.4548 66.1867 30.8473 66.6806 31.1307C67.1746 31.4141 67.7455 31.5557 68.3934 31.5557C68.8833 31.5557 69.3165 31.4929 69.6931 31.3675C70.0697 31.242 70.3875 31.0761 70.6466 30.8697C70.9058 30.6592 71.1062 30.4264 71.2479 30.1714C71.3896 29.9165 71.4706 29.6594 71.4909 29.4003H70.4584C70.4527 29.45 70.4428 29.4995 70.4287 29.5492C70.4182 29.5859 70.4055 29.6225 70.3905 29.6591C70.3678 29.7146 70.3398 29.77 70.3065 29.8255C70.2646 29.8952 70.2129 29.9625 70.1514 30.0274C70.088 30.0942 70.0142 30.1584 69.93 30.2201C69.768 30.3375 69.5615 30.4325 69.3105 30.5054C69.0594 30.5743 68.7639 30.6086 68.4237 30.6086C67.946 30.6086 67.533 30.5115 67.1847 30.3172C66.8365 30.123 66.5673 29.8457 66.377 29.4854ZM70.477 27.6943H66.1356C66.1805 27.4132 66.265 27.1603 66.3891 26.9354C66.5835 26.5793 66.8547 26.3039 67.203 26.1097C67.5512 25.9154 67.954 25.8183 68.4116 25.8183C68.8651 25.8183 69.2457 25.9114 69.5534 26.0976C69.8611 26.2837 70.0919 26.5327 70.2458 26.8444C70.3793 27.1045 70.4564 27.3879 70.477 27.6943Z" fill="white"/>
<path d="M73.1973 31.4282V24.9804H74.2298V25.8244C74.3003 25.7102 74.3812 25.6027 74.4728 25.5026C74.6469 25.3124 74.8635 25.1626 75.1226 25.0533C75.3818 24.9399 75.6855 24.8832 76.0337 24.8832C76.2928 24.8832 76.5034 24.9056 76.6653 24.95C76.8313 24.9905 76.9346 25.0229 76.9751 25.0472L76.7078 26.0612L76.6951 26.0528C76.686 26.0472 76.6753 26.0413 76.6632 26.035L76.646 26.0267C76.619 26.0138 76.5859 25.9996 76.5467 25.9843C76.5202 25.974 76.4909 25.9632 76.4588 25.9519C76.4471 25.9475 76.4348 25.9435 76.4221 25.9397C76.4084 25.9355 76.3942 25.9315 76.3794 25.9278C76.3499 25.9203 76.3181 25.9138 76.2841 25.9084C76.258 25.9043 76.2305 25.9006 76.2017 25.8976C76.1776 25.895 76.1526 25.8929 76.1267 25.8912C76.068 25.8872 76.0047 25.8851 75.9365 25.8851C75.6004 25.8851 75.321 25.9458 75.0984 26.0671C74.8797 26.1887 74.7056 26.3505 74.576 26.553C74.4505 26.7512 74.3614 26.9678 74.3088 27.2025C74.2562 27.4373 74.2298 27.6701 74.2298 27.9008V31.4282H73.1973Z" fill="white"/>
<path d="M80.4319 31.5496C80.0432 31.5496 79.6828 31.5091 79.3508 31.4282C79.0228 31.3433 78.7353 31.2218 78.4883 31.0639C78.2454 30.9021 78.0551 30.7037 77.9174 30.4689C77.7838 30.2342 77.717 29.965 77.717 29.6615V29.4732H78.7556V29.6068C78.7556 29.9346 78.9074 30.1856 79.2111 30.3596C79.5148 30.5296 79.9298 30.6147 80.4562 30.6147C80.7801 30.6147 81.0696 30.5823 81.3247 30.5176C81.5798 30.4527 81.7802 30.3537 81.9259 30.2201C82.0758 30.0865 82.1507 29.9184 82.1507 29.7161C82.1507 29.3801 81.9928 29.1413 81.6769 28.9997C81.3652 28.854 80.8975 28.7284 80.2739 28.6233C79.946 28.5666 79.6342 28.4937 79.3386 28.4047C79.043 28.3116 78.7799 28.1922 78.5491 28.0464C78.3223 27.9008 78.1421 27.7206 78.0085 27.5061C77.879 27.2875 77.8142 27.0264 77.8142 26.723C77.8142 26.3303 77.9296 25.9984 78.1604 25.7273C78.3952 25.4519 78.711 25.2435 79.1078 25.1019C79.5046 24.9561 79.946 24.8832 80.4319 24.8832C80.9015 24.8832 81.3348 24.9582 81.7316 25.108C82.1284 25.2576 82.4462 25.4763 82.6851 25.7637C82.9281 26.0469 83.0495 26.3971 83.0495 26.814V26.9354H82.0171V26.8444C82.0171 26.6096 81.9421 26.4173 81.7923 26.2675C81.6425 26.1137 81.4482 26.0003 81.2093 25.9276C80.9704 25.8507 80.7153 25.8122 80.444 25.8122C80.1889 25.8122 79.9379 25.8406 79.6909 25.8973C79.4439 25.9498 79.2394 26.0389 79.0775 26.1644C78.9155 26.2898 78.8345 26.4619 78.8345 26.6804C78.8345 26.8989 78.9094 27.0751 79.0592 27.2086C79.2131 27.3382 79.4277 27.4455 79.703 27.5304L79.7997 27.5576C79.8407 27.5689 79.8828 27.5801 79.9258 27.5911C80.1525 27.649 80.4062 27.7037 80.687 27.755C81.023 27.8157 81.3409 27.8926 81.6405 27.9857C81.9401 28.0748 82.2033 28.1901 82.4301 28.3319C82.6608 28.4735 82.841 28.6536 82.9706 28.8721C83.1042 29.0868 83.171 29.3497 83.171 29.6615C83.171 29.9772 83.0981 30.2523 82.9524 30.4872C82.8107 30.722 82.6123 30.9181 82.3572 31.0761C82.1061 31.234 81.8146 31.3513 81.4826 31.4282C81.1546 31.5091 80.8044 31.5496 80.4319 31.5496Z" fill="white"/>
<path d="M84.8357 31.4282V24.9804H85.8561V31.4282H84.8357Z" fill="white"/>
<path d="M85.352 23.499C85.1617 23.499 84.9957 23.4465 84.854 23.3412C84.7163 23.2318 84.6474 23.0841 84.6474 22.898C84.6474 22.7158 84.7163 22.5721 84.854 22.467C84.9957 22.3576 85.1617 22.303 85.352 22.303C85.5423 22.303 85.7063 22.3576 85.8439 22.467C85.9816 22.5721 86.0504 22.7158 86.0504 22.898C86.0504 23.0841 85.9816 23.2318 85.8439 23.3412C85.7063 23.4465 85.5423 23.499 85.352 23.499Z" fill="white"/>
<path d="M90.0458 31.5102C90.0145 31.5067 89.9832 31.5027 89.9521 31.498C89.8822 31.4877 89.8128 31.4746 89.744 31.4586C89.5537 31.4141 89.3816 31.3351 89.2277 31.2218C89.0779 31.1044 88.9585 30.9405 88.8694 30.73C88.7803 30.5155 88.7358 30.2403 88.7358 29.9043V25.8912H87.1628V24.9804H88.171C88.3086 24.9804 88.4159 24.9764 88.4929 24.9683C88.5225 24.9636 88.5489 24.9568 88.5719 24.9479C88.6086 24.9338 88.6369 24.9143 88.6568 24.8893C88.6933 24.8449 88.7156 24.7781 88.7236 24.689C88.7317 24.5958 88.7358 24.4684 88.7358 24.3065V22.8433H89.7744V24.9804H91.7908V25.8912H89.7744V29.5158C89.7744 29.8598 89.8149 30.1289 89.8958 30.3232C89.9809 30.5176 90.1691 30.6147 90.4607 30.6147C90.5781 30.6147 90.6894 30.6046 90.7947 30.5844C90.8438 30.575 90.8872 30.5654 90.9248 30.556C90.9679 30.5451 91.0035 30.5343 91.0316 30.5235V31.4221C90.9849 31.4385 90.9251 31.4542 90.8523 31.4687C90.8338 31.4725 90.8144 31.4762 90.7941 31.4797L90.7401 31.4889C90.6186 31.5131 90.4809 31.5254 90.3271 31.5254C90.2324 31.5254 90.1386 31.5203 90.0458 31.5102Z" fill="white"/>
<path d="M93.3086 34.1483C93.1466 34.1483 92.9988 34.1382 92.8652 34.1178C92.8077 34.1108 92.7596 34.1038 92.7208 34.0968C92.6695 34.0878 92.6347 34.0785 92.6162 34.0693V33.1707C92.6688 33.1949 92.7559 33.2153 92.8774 33.2314C92.9988 33.2476 93.1203 33.2558 93.2418 33.2558C93.5009 33.2558 93.7196 33.201 93.8977 33.0919C94.0759 32.9865 94.2257 32.8409 94.3472 32.6547C94.4686 32.4724 94.5678 32.2661 94.6448 32.0354L94.8391 31.4647L92.6162 24.9804H93.6973L95.4093 30.3066L97.0863 24.9804H98.1492L95.7866 31.9807C95.653 32.3734 95.491 32.7335 95.3007 33.0615C95.1144 33.3893 94.8634 33.6523 94.5476 33.8508C94.2358 34.049 93.8228 34.1483 93.3086 34.1483Z" fill="white"/>
<path fill-rule="evenodd" clip-rule="evenodd" d="M105.529 31.5437C104.881 31.5437 104.308 31.4 103.81 31.1126C103.316 30.821 102.927 30.4245 102.644 29.9226C102.364 29.4165 102.225 28.8418 102.225 28.1983C102.225 27.5546 102.364 26.984 102.644 26.4862C102.927 25.9883 103.316 25.5977 103.81 25.3143C104.308 25.0311 104.881 24.8893 105.529 24.8893C106.176 24.8893 106.747 25.0311 107.241 25.3143C107.739 25.5977 108.128 25.9883 108.407 26.4862C108.691 26.984 108.833 27.5546 108.833 28.1983C108.833 28.8418 108.691 29.4165 108.407 29.9226C108.128 30.4245 107.739 30.821 107.241 31.1126C106.747 31.4 106.176 31.5437 105.529 31.5437ZM105.529 30.5964C105.974 30.5964 106.367 30.4974 106.707 30.2989C107.047 30.1006 107.312 29.8213 107.503 29.4612C107.697 29.1009 107.794 28.6799 107.794 28.1983C107.794 27.7166 107.697 27.2997 107.503 26.9476C107.312 26.5913 107.047 26.3182 106.707 26.128C106.367 25.9337 105.974 25.8364 105.529 25.8364C105.087 25.8364 104.695 25.9337 104.35 26.128C104.01 26.3182 103.743 26.5913 103.549 26.9476C103.358 27.2997 103.263 27.7166 103.263 28.1983C103.263 28.6799 103.358 29.1009 103.549 29.4612C103.743 29.8213 104.01 30.1006 104.35 30.2989C104.695 30.4974 105.087 30.5964 105.529 30.5964Z" fill="white"/>
<path d="M111.158 31.4282V25.8912H109.749V24.9804H111.158V24.1487C111.158 23.8613 111.19 23.5982 111.255 23.3595C111.324 23.1165 111.421 22.9021 111.546 22.7158C111.676 22.5296 111.832 22.3718 112.014 22.2422C112.196 22.1128 112.403 22.0157 112.634 21.9508C112.868 21.8821 113.124 21.8476 113.399 21.8476C113.597 21.8476 113.755 21.8598 113.873 21.884C113.94 21.8981 113.995 21.9114 114.037 21.9241C114.054 21.929 114.068 21.9339 114.081 21.9386C114.092 21.9428 114.101 21.9468 114.109 21.9508V22.8616C114.061 22.8454 113.98 22.8271 113.867 22.8068C113.797 22.7945 113.724 22.7857 113.649 22.781C113.601 22.7781 113.552 22.7765 113.502 22.7765C113.227 22.7765 113.002 22.819 112.828 22.904C112.658 22.9891 112.526 23.1064 112.433 23.2562C112.34 23.4018 112.275 23.5679 112.239 23.7541C112.206 23.9402 112.19 24.1344 112.19 24.3369V24.9804H114.073V25.8912H112.19V31.4282H111.158Z" fill="white"/>
<path fill-rule="evenodd" clip-rule="evenodd" d="M117.854 31.4282L120.32 22.4487H121.936L124.383 31.4282H123.314L122.688 29.0543H119.555L118.923 31.4282H117.854ZM121.128 23.1455L122.447 28.1437H119.798L121.128 23.1455Z" fill="white"/>
<path d="M125.783 31.4282V24.9804H126.816V25.8242C126.886 25.71 126.967 25.6027 127.059 25.5026C127.233 25.3124 127.449 25.1626 127.708 25.0533C127.968 24.9399 128.271 24.8832 128.619 24.8832C128.879 24.8832 129.089 24.9056 129.251 24.95C129.417 24.9905 129.52 25.0229 129.561 25.0472L129.294 26.0612C129.271 26.0453 129.235 26.027 129.186 26.0061C129.147 25.9895 129.1 25.9716 129.045 25.9519C128.923 25.9074 128.749 25.8851 128.522 25.8851C128.186 25.8851 127.907 25.9458 127.684 26.0671C127.466 26.1887 127.291 26.3505 127.162 26.553C127.036 26.7512 126.947 26.9678 126.895 27.2025C126.842 27.4373 126.816 27.6701 126.816 27.9008V31.4282H125.783Z" fill="white"/>
<path d="M133.221 31.5254C133.103 31.5254 132.986 31.5175 132.87 31.5016C132.792 31.4908 132.715 31.4765 132.638 31.4586C132.448 31.4141 132.276 31.3351 132.122 31.2218C131.972 31.1044 131.853 30.9405 131.764 30.73C131.675 30.5155 131.63 30.2403 131.63 29.9043V25.8912H130.057V24.9804H131.065C131.203 24.9804 131.31 24.9764 131.387 24.9683C131.464 24.9561 131.519 24.9298 131.551 24.8893C131.562 24.8766 131.571 24.8621 131.579 24.8459C131.584 24.8351 131.589 24.8234 131.593 24.811C131.605 24.7765 131.614 24.7359 131.618 24.689C131.626 24.5958 131.63 24.4684 131.63 24.3065V22.8433H132.669V24.9804H134.685V25.8912H132.669V29.5158C132.669 29.8598 132.709 30.1289 132.79 30.3232C132.875 30.5176 133.063 30.6147 133.355 30.6147C133.472 30.6147 133.584 30.6046 133.689 30.5844C133.794 30.5641 133.873 30.5437 133.926 30.5235V31.4221C133.857 31.4464 133.76 31.4687 133.634 31.4889C133.57 31.5018 133.5 31.5112 133.427 31.5173C133.362 31.5227 133.293 31.5254 133.221 31.5254Z" fill="white"/>
<path d="M138.261 31.5496C137.872 31.5496 137.512 31.5091 137.18 31.4282C136.852 31.3433 136.564 31.2218 136.317 31.0639C136.074 30.9021 135.884 30.7037 135.746 30.4689C135.613 30.2342 135.546 29.965 135.546 29.6615V29.4732H136.585V29.6068C136.585 29.9346 136.736 30.1856 137.04 30.3596C137.344 30.5296 137.759 30.6147 138.285 30.6147C138.609 30.6147 138.899 30.5823 139.154 30.5176C139.409 30.4527 139.609 30.3537 139.755 30.2201C139.905 30.0865 139.98 29.9184 139.98 29.7161C139.98 29.3801 139.822 29.1413 139.506 28.9997C139.194 28.854 138.726 28.7284 138.103 28.6233C137.775 28.5666 137.463 28.4937 137.168 28.4047C136.872 28.3116 136.609 28.1922 136.378 28.0464C136.151 27.9008 135.971 27.7206 135.837 27.5061C135.708 27.2875 135.643 27.0264 135.643 26.723C135.643 26.3303 135.759 25.9984 135.989 25.7273C136.224 25.4519 136.54 25.2435 136.937 25.1019C137.334 24.9561 137.775 24.8832 138.261 24.8832C138.731 24.8832 139.164 24.9582 139.561 25.108C139.957 25.2576 140.275 25.4763 140.514 25.7637C140.757 26.0469 140.879 26.3971 140.879 26.814V26.9354H139.846V26.8444C139.846 26.6096 139.771 26.4173 139.621 26.2675C139.471 26.1137 139.277 26.0003 139.038 25.9276C138.799 25.8507 138.544 25.8122 138.273 25.8122C138.018 25.8122 137.767 25.8406 137.52 25.8973C137.273 25.9498 137.068 26.0389 136.906 26.1644C136.744 26.2898 136.663 26.4619 136.663 26.6804C136.663 26.8989 136.738 27.0751 136.888 27.2086C137.042 27.3382 137.257 27.4455 137.532 27.5304C137.631 27.5592 137.737 27.5872 137.848 27.6144C137.965 27.643 138.089 27.6708 138.22 27.6976C138.315 27.7172 138.414 27.7363 138.516 27.755C138.852 27.8157 139.17 27.8926 139.469 27.9857C139.769 28.0748 140.032 28.1901 140.259 28.3319C140.49 28.4735 140.67 28.6536 140.8 28.8721C140.933 29.0868 141 29.3497 141 29.6615C141 29.9772 140.927 30.2523 140.781 30.4872C140.64 30.722 140.441 30.9181 140.186 31.0761C139.935 31.234 139.644 31.3513 139.312 31.4282C138.984 31.5091 138.633 31.5496 138.261 31.5496Z" fill="white"/>
<path d="M5.53581 22.0097C5.53581 20.4729 5.53488 18.9359 5.53673 17.3999C5.53673 17.2637 5.50352 17.091 5.57363 16.9998C5.69264 16.8446 5.86423 16.672 6.04321 16.6308C6.28676 16.5742 6.48142 16.7432 6.54415 16.9962C6.5728 17.1123 6.57278 17.2368 6.57275 17.3579V17.3688C6.57413 19.7079 6.57396 22.0474 6.57378 24.3868L6.57367 26.742C6.57372 26.8388 6.57377 26.9364 6.55891 27.0316C6.51647 27.3047 6.34396 27.4655 6.06996 27.4718C5.77843 27.4791 5.59485 27.3175 5.55056 27.028C5.53119 26.9056 5.53673 26.7786 5.53581 26.6536V22.0097Z" fill="white"/>
</svg>
