<svg width="199" height="53" viewBox="0 0 199 53" fill="none" xmlns="http://www.w3.org/2000/svg">
<path d="M58.3 8.82L59.728 7.248V14.808L58.984 13.86H65.608V16.38H58.984L59.728 15.444V23.052L58.3 21.48H66.94V24H56.548V6.3H66.94V8.82H58.3ZM74.6446 24.24C73.7406 24.24 72.9886 24.088 72.3886 23.784C71.7966 23.48 71.3286 23.08 70.9846 22.584C70.6486 22.088 70.4086 21.54 70.2646 20.94C70.1286 20.34 70.0606 19.74 70.0606 19.14C70.0606 18.844 70.0606 18.536 70.0606 18.216C70.0606 17.896 70.0606 17.572 70.0606 17.244V11.256H73.2286V16.752C73.2286 17.04 73.2286 17.316 73.2286 17.58C73.2286 17.844 73.2286 18.092 73.2286 18.324C73.2286 18.892 73.2966 19.42 73.4326 19.908C73.5686 20.388 73.8166 20.776 74.1766 21.072C74.5446 21.368 75.0606 21.516 75.7246 21.516C76.3566 21.516 76.9006 21.332 77.3566 20.964C77.8126 20.588 78.1646 20.116 78.4126 19.548C78.6686 18.98 78.7966 18.404 78.7966 17.82L79.8766 18.54C79.8766 19.316 79.7566 20.048 79.5166 20.736C79.2766 21.416 78.9286 22.02 78.4726 22.548C78.0166 23.076 77.4646 23.492 76.8166 23.796C76.1766 24.092 75.4526 24.24 74.6446 24.24ZM78.7966 24V11.256H81.9526V24H78.7966ZM84.9902 24V11.256H88.1463V15.492L87.4143 15.084C87.4943 14.532 87.6423 14.012 87.8583 13.524C88.0743 13.028 88.3623 12.596 88.7223 12.228C89.0823 11.852 89.5183 11.56 90.0303 11.352C90.5423 11.144 91.1263 11.04 91.7823 11.04C92.3023 11.04 92.7103 11.08 93.0063 11.16C93.3103 11.232 93.4983 11.292 93.5703 11.34L92.9943 14.232C92.9143 14.176 92.7503 14.108 92.5023 14.028C92.2623 13.94 91.9383 13.896 91.5303 13.896C90.8823 13.896 90.3383 14.008 89.8983 14.232C89.4663 14.448 89.1223 14.744 88.8663 15.12C88.6103 15.488 88.4263 15.896 88.3143 16.344C88.2023 16.784 88.1463 17.224 88.1463 17.664V24H84.9902ZM101.59 24.252C100.246 24.252 99.0622 23.972 98.0382 23.412C97.0142 22.844 96.2102 22.06 95.6262 21.06C95.0502 20.06 94.7622 18.916 94.7622 17.628C94.7622 16.332 95.0502 15.192 95.6262 14.208C96.2102 13.216 97.0142 12.44 98.0382 11.88C99.0622 11.32 100.246 11.04 101.59 11.04C102.934 11.04 104.118 11.32 105.142 11.88C106.166 12.44 106.966 13.216 107.542 14.208C108.126 15.192 108.418 16.332 108.418 17.628C108.418 18.916 108.126 20.06 107.542 21.06C106.966 22.06 106.166 22.844 105.142 23.412C104.118 23.972 102.934 24.252 101.59 24.252ZM101.59 21.672C102.318 21.672 102.954 21.504 103.498 21.168C104.042 20.832 104.466 20.364 104.77 19.764C105.074 19.156 105.226 18.444 105.226 17.628C105.226 16.812 105.074 16.108 104.77 15.516C104.466 14.916 104.042 14.452 103.498 14.124C102.954 13.796 102.318 13.632 101.59 13.632C100.87 13.632 100.234 13.796 99.6822 14.124C99.1382 14.452 98.7142 14.916 98.4102 15.516C98.1062 16.108 97.9542 16.812 97.9542 17.628C97.9542 18.444 98.1062 19.156 98.4102 19.764C98.7142 20.364 99.1382 20.832 99.6822 21.168C100.234 21.504 100.87 21.672 101.59 21.672ZM111.029 29.244V11.256H114.185V29.244H111.029ZM118.205 24.264C117.213 24.264 116.293 24.008 115.445 23.496C114.605 22.976 113.925 22.268 113.405 21.372C112.893 20.476 112.637 19.468 112.637 18.348C112.637 18.316 112.637 18.288 112.637 18.264C112.637 18.232 112.637 18.204 112.637 18.18L114.197 18.144C114.197 18.16 114.197 18.18 114.197 18.204C114.197 18.228 114.197 18.248 114.197 18.264C114.197 18.888 114.353 19.444 114.665 19.932C114.977 20.412 115.381 20.792 115.877 21.072C116.381 21.344 116.917 21.48 117.485 21.48C118.405 21.48 119.189 21.164 119.837 20.532C120.485 19.9 120.809 18.92 120.809 17.592C120.809 16.256 120.485 15.28 119.837 14.664C119.197 14.04 118.413 13.728 117.485 13.728C116.925 13.728 116.393 13.864 115.889 14.136C115.393 14.4 114.985 14.768 114.665 15.24C114.353 15.712 114.197 16.264 114.197 16.896L112.637 16.824C112.637 15.696 112.893 14.696 113.405 13.824C113.925 12.952 114.605 12.272 115.445 11.784C116.293 11.288 117.213 11.04 118.205 11.04C119.237 11.04 120.197 11.292 121.085 11.796C121.981 12.3 122.701 13.04 123.245 14.016C123.797 14.992 124.073 16.184 124.073 17.592C124.073 19.04 123.805 20.26 123.269 21.252C122.733 22.244 122.021 22.996 121.133 23.508C120.245 24.012 119.269 24.264 118.205 24.264ZM127.862 18.648V16.404H136.778L136.418 17.004C136.418 16.956 136.418 16.904 136.418 16.848C136.418 16.784 136.418 16.732 136.418 16.692C136.418 16.14 136.294 15.624 136.046 15.144C135.798 14.656 135.422 14.264 134.918 13.968C134.414 13.664 133.774 13.512 132.998 13.512C132.23 13.512 131.562 13.676 130.994 14.004C130.434 14.324 129.998 14.788 129.686 15.396C129.382 16.004 129.23 16.732 129.23 17.58C129.23 18.452 129.378 19.204 129.674 19.836C129.97 20.46 130.402 20.94 130.97 21.276C131.546 21.604 132.246 21.768 133.07 21.768C133.63 21.768 134.114 21.716 134.522 21.612C134.93 21.508 135.262 21.368 135.518 21.192C135.782 21.008 135.978 20.812 136.106 20.604C136.242 20.396 136.322 20.188 136.346 19.98H139.49C139.442 20.516 139.262 21.04 138.95 21.552C138.646 22.056 138.218 22.516 137.666 22.932C137.114 23.34 136.442 23.668 135.65 23.916C134.866 24.156 133.97 24.276 132.962 24.276C131.594 24.276 130.398 23.996 129.374 23.436C128.35 22.876 127.55 22.096 126.974 21.096C126.406 20.096 126.122 18.952 126.122 17.664C126.122 16.344 126.41 15.188 126.986 14.196C127.57 13.204 128.378 12.432 129.41 11.88C130.442 11.32 131.626 11.04 132.962 11.04C134.338 11.04 135.526 11.32 136.526 11.88C137.534 12.44 138.31 13.22 138.854 14.22C139.398 15.212 139.67 16.368 139.67 17.688C139.67 17.856 139.666 18.036 139.658 18.228C139.65 18.42 139.638 18.56 139.622 18.648H127.862ZM146.64 24.264C145.688 24.264 144.852 24.116 144.132 23.82C143.412 23.516 142.848 23.08 142.44 22.512C142.032 21.944 141.828 21.26 141.828 20.46C141.828 19.588 142.064 18.872 142.536 18.312C143.016 17.744 143.66 17.308 144.468 17.004C145.276 16.692 146.172 16.492 147.156 16.404C148.612 16.26 149.628 16.124 150.204 15.996C150.788 15.86 151.08 15.644 151.08 15.348C151.08 15.34 151.08 15.336 151.08 15.336C151.08 15.328 151.08 15.324 151.08 15.324C151.08 14.764 150.828 14.332 150.324 14.028C149.82 13.724 149.108 13.572 148.188 13.572C147.22 13.572 146.476 13.744 145.956 14.088C145.444 14.424 145.188 14.96 145.188 15.696H142.068C142.068 14.696 142.332 13.852 142.86 13.164C143.396 12.468 144.128 11.94 145.056 11.58C145.984 11.22 147.036 11.04 148.212 11.04C149.308 11.04 150.312 11.204 151.224 11.532C152.136 11.86 152.868 12.356 153.42 13.02C153.972 13.684 154.247 14.512 154.247 15.504C154.247 15.672 154.247 15.84 154.247 16.008C154.247 16.176 154.247 16.344 154.247 16.512V21.312C154.247 21.616 154.256 21.916 154.272 22.212C154.296 22.5 154.34 22.76 154.404 22.992C154.484 23.248 154.58 23.464 154.692 23.64C154.804 23.816 154.892 23.936 154.956 24H151.836C151.78 23.944 151.7 23.836 151.596 23.676C151.5 23.508 151.412 23.316 151.332 23.1C151.252 22.86 151.192 22.604 151.152 22.332C151.112 22.052 151.092 21.744 151.092 21.408L151.716 21.84C151.476 22.328 151.108 22.756 150.612 23.124C150.124 23.484 149.54 23.764 148.86 23.964C148.18 24.164 147.44 24.264 146.64 24.264ZM147.408 21.78C148.064 21.78 148.672 21.668 149.232 21.444C149.792 21.22 150.244 20.876 150.588 20.412C150.932 19.94 151.104 19.336 151.104 18.6V16.896L151.872 17.76C151.36 17.952 150.744 18.112 150.024 18.24C149.304 18.36 148.576 18.456 147.84 18.528C146.896 18.616 146.184 18.78 145.704 19.02C145.232 19.26 144.996 19.652 144.996 20.196C144.996 20.724 145.196 21.12 145.596 21.384C145.996 21.648 146.6 21.78 147.408 21.78ZM166.19 24V18.348C166.19 18.028 166.19 17.748 166.19 17.508C166.19 17.26 166.19 17.036 166.19 16.836C166.19 16.26 166.106 15.744 165.938 15.288C165.778 14.824 165.498 14.46 165.098 14.196C164.706 13.932 164.162 13.8 163.466 13.8C162.858 13.8 162.318 13.948 161.846 14.244C161.374 14.532 161.002 14.932 160.73 15.444C160.466 15.948 160.334 16.532 160.334 17.196L159.266 16.536C159.266 15.472 159.506 14.528 159.986 13.704C160.474 12.872 161.126 12.22 161.942 11.748C162.758 11.276 163.662 11.04 164.654 11.04C165.678 11.04 166.538 11.24 167.234 11.64C167.938 12.04 168.466 12.608 168.818 13.344C169.178 14.08 169.358 14.944 169.358 15.936C169.358 16.32 169.358 16.752 169.358 17.232C169.358 17.712 169.358 18.184 169.358 18.648V24H166.19ZM157.178 24V11.256H160.334V24H157.178Z" fill="#2D2D2D"/>
<path d="M65.809 39.376C65.809 41.0023 65.4293 42.2093 64.67 42.997C63.9107 43.779 62.8538 44.17 61.4995 44.17C60.1508 44.17 59.0968 43.779 58.3375 42.997C57.5782 42.2093 57.1985 41.0023 57.1985 39.376C57.1985 39.1267 57.1985 38.8632 57.1985 38.5855C57.1985 38.3022 57.1985 38.0047 57.1985 37.693V31.4625H58.652V37.8205C58.652 38.1152 58.652 38.39 58.652 38.645C58.652 38.9 58.652 39.1352 58.652 39.3505C58.652 40.6085 58.8928 41.5095 59.3745 42.0535C59.8562 42.5918 60.5645 42.861 61.4995 42.861C62.4402 42.861 63.1513 42.5918 63.633 42.0535C64.1203 41.5095 64.364 40.6085 64.364 39.3505V31.4625H65.809V39.376ZM74.7673 44V39.6735C74.7673 39.4128 74.7673 39.2003 74.7673 39.036C74.7673 38.866 74.7673 38.7045 74.7673 38.5515C74.7673 38.0812 74.688 37.6703 74.5293 37.319C74.3707 36.9677 74.1213 36.6957 73.7813 36.503C73.4413 36.3103 72.9965 36.214 72.4468 36.214C71.9652 36.214 71.5175 36.3387 71.1038 36.588C70.6958 36.8317 70.3672 37.1632 70.1178 37.5825C69.8742 37.9962 69.7523 38.4608 69.7523 38.9765L68.9278 38.662C68.9278 37.9537 69.1007 37.3105 69.4463 36.7325C69.7977 36.1545 70.2623 35.6955 70.8403 35.3555C71.424 35.0098 72.0587 34.837 72.7443 34.837C73.4413 34.837 74.0505 34.9702 74.5718 35.2365C75.0932 35.5028 75.4955 35.8853 75.7788 36.384C76.0678 36.877 76.2123 37.472 76.2123 38.169C76.2123 38.4183 76.2123 38.6903 76.2123 38.985C76.2123 39.2797 76.2123 39.5545 76.2123 39.8095V44H74.7673ZM68.3073 44V34.973H69.7523V44H68.3073ZM78.8181 44V34.973H80.2461V44H78.8181ZM79.5406 32.899C79.2743 32.899 79.042 32.8253 78.8436 32.678C78.651 32.525 78.5546 32.3182 78.5546 32.0575C78.5546 31.8025 78.651 31.6013 78.8436 31.454C79.042 31.301 79.2743 31.2245 79.5406 31.2245C79.807 31.2245 80.0365 31.301 80.2291 31.454C80.4218 31.6013 80.5181 31.8025 80.5181 32.0575C80.5181 32.3182 80.4218 32.525 80.2291 32.678C80.0365 32.8253 79.807 32.899 79.5406 32.899ZM90.1498 34.973L87.1238 44H85.2283L82.1343 34.973H83.6303L86.2908 43.235H86.0613L88.6538 34.973H90.1498ZM91.9174 40.0645V38.7725H98.8959L98.6409 39.1975C98.6409 39.1635 98.6409 39.1323 98.6409 39.104C98.6409 39.07 98.6409 39.0388 98.6409 39.0105C98.6409 38.4892 98.5304 38.0132 98.3094 37.5825C98.0941 37.1462 97.7711 36.7977 97.3404 36.537C96.9097 36.2763 96.3771 36.146 95.7424 36.146C95.1021 36.146 94.5382 36.282 94.0509 36.554C93.5636 36.826 93.1839 37.2113 92.9119 37.71C92.6399 38.203 92.5039 38.7923 92.5039 39.478C92.5039 40.175 92.6342 40.7757 92.8949 41.28C93.1612 41.7843 93.5381 42.1725 94.0254 42.4445C94.5127 42.7165 95.0907 42.8525 95.7594 42.8525C96.2354 42.8525 96.6491 42.8043 97.0004 42.708C97.3517 42.606 97.6407 42.4728 97.8674 42.3085C98.0997 42.1385 98.2754 41.9543 98.3944 41.756C98.5134 41.5577 98.5842 41.3593 98.6069 41.161H100.052C100.024 41.5237 99.9102 41.8835 99.7119 42.2405C99.5136 42.5975 99.2331 42.9233 98.8704 43.218C98.5077 43.507 98.0629 43.7393 97.5359 43.915C97.0089 44.0907 96.4026 44.1785 95.7169 44.1785C94.8102 44.1785 94.0112 43.9802 93.3199 43.5835C92.6286 43.1868 92.0846 42.6372 91.6879 41.9345C91.2969 41.2318 91.1014 40.4243 91.1014 39.512C91.1014 38.5883 91.2997 37.778 91.6964 37.081C92.0931 36.3783 92.6399 35.8287 93.3369 35.432C94.0339 35.0353 94.8301 34.837 95.7254 34.837C96.6377 34.837 97.4282 35.0353 98.0969 35.432C98.7656 35.8287 99.2812 36.3727 99.6439 37.064C100.007 37.7497 100.188 38.5317 100.188 39.41C100.188 39.5007 100.185 39.6197 100.179 39.767C100.174 39.9143 100.165 40.0135 100.154 40.0645H91.9174ZM102.44 44V34.973H103.885V37.744L103.409 37.574C103.443 37.2397 103.528 36.911 103.664 36.588C103.8 36.2593 103.987 35.9647 104.225 35.704C104.469 35.4377 104.772 35.228 105.135 35.075C105.497 34.9163 105.922 34.837 106.41 34.837C106.772 34.837 107.067 34.8682 107.294 34.9305C107.526 34.9872 107.67 35.0325 107.727 35.0665L107.353 36.486C107.296 36.4463 107.18 36.3953 107.005 36.333C106.835 36.2707 106.591 36.2395 106.274 36.2395C105.803 36.2395 105.412 36.3245 105.101 36.4945C104.795 36.6645 104.551 36.8912 104.37 37.1745C104.194 37.4522 104.069 37.7553 103.996 38.084C103.922 38.4127 103.885 38.7385 103.885 39.0615V44H102.44ZM112.565 44.17C112.021 44.17 111.517 44.1133 111.052 44C110.593 43.881 110.191 43.711 109.845 43.49C109.505 43.2633 109.239 42.9857 109.046 42.657C108.859 42.3283 108.765 41.9515 108.765 41.5265C108.765 41.4812 108.765 41.4358 108.765 41.3905C108.765 41.3395 108.765 41.297 108.765 41.263H110.219C110.219 41.297 110.219 41.3253 110.219 41.348C110.219 41.3707 110.219 41.4047 110.219 41.45C110.219 41.909 110.431 42.2603 110.856 42.504C111.281 42.742 111.862 42.861 112.599 42.861C113.052 42.861 113.457 42.8157 113.814 42.725C114.171 42.6343 114.452 42.4955 114.656 42.3085C114.866 42.1215 114.97 41.8863 114.97 41.603C114.97 41.1327 114.749 40.7983 114.307 40.6C113.871 40.396 113.217 40.2203 112.344 40.073C111.885 39.9937 111.449 39.8917 111.035 39.767C110.621 39.6367 110.253 39.4695 109.93 39.2655C109.613 39.0615 109.36 38.8093 109.173 38.509C108.992 38.203 108.901 37.8375 108.901 37.4125C108.901 36.8628 109.063 36.3982 109.386 36.0185C109.715 35.6332 110.157 35.3413 110.712 35.143C111.267 34.939 111.885 34.837 112.565 34.837C113.222 34.837 113.829 34.9418 114.384 35.1515C114.939 35.3612 115.384 35.6672 115.718 36.0695C116.058 36.4662 116.228 36.9563 116.228 37.54C116.228 37.5627 116.228 37.591 116.228 37.625C116.228 37.6533 116.228 37.6817 116.228 37.71H114.783C114.783 37.6817 114.783 37.659 114.783 37.642C114.783 37.625 114.783 37.6052 114.783 37.5825C114.783 37.2538 114.679 36.9847 114.469 36.775C114.259 36.5597 113.987 36.401 113.653 36.299C113.319 36.1913 112.962 36.1375 112.582 36.1375C112.225 36.1375 111.874 36.1772 111.528 36.2565C111.182 36.3302 110.896 36.4548 110.669 36.6305C110.443 36.8062 110.329 37.047 110.329 37.353C110.329 37.659 110.434 37.9055 110.644 38.0925C110.859 38.2738 111.16 38.424 111.545 38.543C111.936 38.6563 112.395 38.7612 112.922 38.8575C113.392 38.9425 113.837 39.0502 114.256 39.1805C114.676 39.3052 115.044 39.4667 115.361 39.665C115.684 39.8633 115.937 40.1155 116.118 40.4215C116.305 40.7218 116.398 41.0902 116.398 41.5265C116.398 41.9685 116.296 42.3538 116.092 42.6825C115.894 43.0112 115.616 43.286 115.259 43.507C114.908 43.728 114.5 43.8923 114.035 44C113.576 44.1133 113.086 44.17 112.565 44.17ZM118.728 44V34.973H120.156V44H118.728ZM119.451 32.899C119.184 32.899 118.952 32.8253 118.754 32.678C118.561 32.525 118.465 32.3182 118.465 32.0575C118.465 31.8025 118.561 31.6013 118.754 31.454C118.952 31.301 119.184 31.2245 119.451 31.2245C119.717 31.2245 119.947 31.301 120.139 31.454C120.332 31.6013 120.428 31.8025 120.428 32.0575C120.428 32.3182 120.332 32.525 120.139 32.678C119.947 32.8253 119.717 32.899 119.451 32.899ZM126.413 44.136C126.136 44.136 125.864 44.1048 125.597 44.0425C125.331 43.9802 125.09 43.8697 124.875 43.711C124.665 43.5467 124.498 43.3172 124.373 43.0225C124.249 42.7222 124.186 42.3368 124.186 41.8665C124.186 41.7475 124.186 41.6257 124.186 41.501C124.186 41.3707 124.186 41.2347 124.186 41.093V36.248H121.985V34.973H123.396C123.589 34.973 123.739 34.9673 123.846 34.956C123.954 34.939 124.031 34.9022 124.076 34.8455C124.127 34.7832 124.158 34.6897 124.169 34.565C124.181 34.4347 124.186 34.2562 124.186 34.0295V31.981H125.64V34.973H128.462V36.248H125.64V40.6255C125.64 40.7502 125.64 40.872 125.64 40.991C125.64 41.11 125.64 41.2205 125.64 41.3225C125.64 41.8042 125.697 42.181 125.81 42.453C125.929 42.725 126.192 42.861 126.6 42.861C126.765 42.861 126.921 42.8468 127.068 42.8185C127.215 42.7902 127.326 42.7618 127.399 42.7335V43.9915C127.303 44.0255 127.167 44.0567 126.991 44.085C126.821 44.119 126.629 44.136 126.413 44.136ZM130.586 47.808C130.36 47.808 130.153 47.7938 129.966 47.7655C129.779 47.7428 129.663 47.7202 129.617 47.6975V46.4395C129.691 46.4735 129.813 46.5018 129.983 46.5245C130.153 46.5472 130.323 46.5585 130.493 46.5585C130.855 46.5585 131.161 46.482 131.411 46.329C131.66 46.1817 131.87 45.9777 132.04 45.717C132.21 45.462 132.349 45.173 132.456 44.85L132.728 44.051L129.617 34.973H131.13L133.629 42.7505H133.425L135.873 34.973H137.361L134.054 44.7735C133.867 45.3232 133.641 45.8275 133.374 46.2865C133.114 46.7455 132.762 47.1138 132.32 47.3915C131.884 47.6692 131.306 47.808 130.586 47.808ZM147.688 44.1615C146.782 44.1615 145.98 43.9603 145.283 43.558C144.591 43.15 144.047 42.5947 143.651 41.892C143.26 41.1837 143.064 40.379 143.064 39.478C143.064 38.577 143.26 37.778 143.651 37.081C144.047 36.384 144.591 35.8372 145.283 35.4405C145.98 35.0438 146.782 34.8455 147.688 34.8455C148.595 34.8455 149.394 35.0438 150.085 35.4405C150.782 35.8372 151.326 36.384 151.717 37.081C152.114 37.778 152.312 38.577 152.312 39.478C152.312 40.379 152.114 41.1837 151.717 41.892C151.326 42.5947 150.782 43.15 150.085 43.558C149.394 43.9603 148.595 44.1615 147.688 44.1615ZM147.688 42.8355C148.312 42.8355 148.861 42.6967 149.337 42.419C149.813 42.1413 150.184 41.7503 150.451 41.246C150.723 40.7417 150.859 40.1523 150.859 39.478C150.859 38.8037 150.723 38.22 150.451 37.727C150.184 37.2283 149.813 36.8458 149.337 36.5795C148.861 36.3075 148.312 36.1715 147.688 36.1715C147.071 36.1715 146.521 36.3075 146.039 36.5795C145.563 36.8458 145.189 37.2283 144.917 37.727C144.651 38.22 144.518 38.8037 144.518 39.478C144.518 40.1523 144.651 40.7417 144.917 41.246C145.189 41.7503 145.563 42.1413 146.039 42.419C146.521 42.6967 147.071 42.8355 147.688 42.8355ZM155.566 44V36.248H153.594V34.973H155.566V33.8085C155.566 33.4062 155.612 33.0378 155.702 32.7035C155.799 32.3635 155.935 32.0632 156.11 31.8025C156.292 31.5418 156.51 31.3208 156.765 31.1395C157.02 30.9582 157.309 30.8222 157.632 30.7315C157.961 30.6352 158.318 30.587 158.703 30.587C158.981 30.587 159.202 30.604 159.366 30.638C159.53 30.672 159.641 30.7032 159.697 30.7315V32.0065C159.629 31.9838 159.516 31.9583 159.357 31.93C159.199 31.9017 159.029 31.8875 158.847 31.8875C158.462 31.8875 158.148 31.947 157.904 32.066C157.666 32.185 157.482 32.3493 157.351 32.559C157.221 32.763 157.13 32.9953 157.079 33.256C157.034 33.5167 157.011 33.7887 157.011 34.072V34.973H159.646V36.248H157.011V44H155.566ZM164.938 44L168.389 31.4285H170.65L174.076 44H172.58L169.511 32.372H169.528L166.434 44H164.938ZM166.723 40.6765V39.4015H172.316V40.6765H166.723ZM176.035 44V34.973H177.48V37.744L177.004 37.574C177.038 37.2397 177.123 36.911 177.259 36.588C177.395 36.2593 177.582 35.9647 177.82 35.704C178.064 35.4377 178.367 35.228 178.729 35.075C179.092 34.9163 179.517 34.837 180.004 34.837C180.367 34.837 180.662 34.8682 180.888 34.9305C181.121 34.9872 181.265 35.0325 181.322 35.0665L180.948 36.486C180.891 36.4463 180.775 36.3953 180.599 36.333C180.429 36.2707 180.186 36.2395 179.868 36.2395C179.398 36.2395 179.007 36.3245 178.695 36.4945C178.389 36.6645 178.146 36.8912 177.964 37.1745C177.789 37.4522 177.664 37.7553 177.59 38.084C177.517 38.4127 177.48 38.7385 177.48 39.0615V44H176.035ZM186.445 44.136C186.167 44.136 185.895 44.1048 185.629 44.0425C185.362 43.9802 185.122 43.8697 184.906 43.711C184.697 43.5467 184.529 43.3172 184.405 43.0225C184.28 42.7222 184.218 42.3368 184.218 41.8665C184.218 41.7475 184.218 41.6257 184.218 41.501C184.218 41.3707 184.218 41.2347 184.218 41.093V36.248H182.016V34.973H183.427C183.62 34.973 183.77 34.9673 183.878 34.956C183.985 34.939 184.062 34.9022 184.107 34.8455C184.158 34.7832 184.189 34.6897 184.201 34.565C184.212 34.4347 184.218 34.2562 184.218 34.0295V31.981H185.671V34.973H188.493V36.248H185.671V40.6255C185.671 40.7502 185.671 40.872 185.671 40.991C185.671 41.11 185.671 41.2205 185.671 41.3225C185.671 41.8042 185.728 42.181 185.841 42.453C185.96 42.725 186.224 42.861 186.632 42.861C186.796 42.861 186.952 42.8468 187.099 42.8185C187.247 42.7902 187.357 42.7618 187.431 42.7335V43.9915C187.334 44.0255 187.198 44.0567 187.023 44.085C186.853 44.119 186.66 44.136 186.445 44.136ZM193.498 44.17C192.954 44.17 192.449 44.1133 191.985 44C191.526 43.881 191.123 43.711 190.778 43.49C190.438 43.2633 190.171 42.9857 189.979 42.657C189.792 42.3283 189.698 41.9515 189.698 41.5265C189.698 41.4812 189.698 41.4358 189.698 41.3905C189.698 41.3395 189.698 41.297 189.698 41.263H191.152C191.152 41.297 191.152 41.3253 191.152 41.348C191.152 41.3707 191.152 41.4047 191.152 41.45C191.152 41.909 191.364 42.2603 191.789 42.504C192.214 42.742 192.795 42.861 193.532 42.861C193.985 42.861 194.39 42.8157 194.747 42.725C195.104 42.6343 195.385 42.4955 195.589 42.3085C195.798 42.1215 195.903 41.8863 195.903 41.603C195.903 41.1327 195.682 40.7983 195.24 40.6C194.804 40.396 194.149 40.2203 193.277 40.073C192.818 39.9937 192.381 39.8917 191.968 39.767C191.554 39.6367 191.186 39.4695 190.863 39.2655C190.545 39.0615 190.293 38.8093 190.106 38.509C189.925 38.203 189.834 37.8375 189.834 37.4125C189.834 36.8628 189.996 36.3982 190.319 36.0185C190.647 35.6332 191.089 35.3413 191.645 35.143C192.2 34.939 192.818 34.837 193.498 34.837C194.155 34.837 194.761 34.9418 195.317 35.1515C195.872 35.3612 196.317 35.6672 196.651 36.0695C196.991 36.4662 197.161 36.9563 197.161 37.54C197.161 37.5627 197.161 37.591 197.161 37.625C197.161 37.6533 197.161 37.6817 197.161 37.71H195.716C195.716 37.6817 195.716 37.659 195.716 37.642C195.716 37.625 195.716 37.6052 195.716 37.5825C195.716 37.2538 195.611 36.9847 195.402 36.775C195.192 36.5597 194.92 36.401 194.586 36.299C194.251 36.1913 193.894 36.1375 193.515 36.1375C193.158 36.1375 192.806 36.1772 192.461 36.2565C192.115 36.3302 191.829 36.4548 191.602 36.6305C191.375 36.8062 191.262 37.047 191.262 37.353C191.262 37.659 191.367 37.9055 191.577 38.0925C191.792 38.2738 192.092 38.424 192.478 38.543C192.869 38.6563 193.328 38.7612 193.855 38.8575C194.325 38.9425 194.77 39.0502 195.189 39.1805C195.608 39.3052 195.977 39.4667 196.294 39.665C196.617 39.8633 196.869 40.1155 197.051 40.4215C197.238 40.7218 197.331 41.0902 197.331 41.5265C197.331 41.9685 197.229 42.3538 197.025 42.6825C196.827 43.0112 196.549 43.286 196.192 43.507C195.841 43.728 195.433 43.8923 194.968 44C194.509 44.1133 194.019 44.17 193.498 44.17Z" fill="#2D2D2D"/>
<g clip-path="url(#clip0_186_1501)">
<path d="M24.3542 0C25.2877 0.158539 26.2225 0.306849 27.1534 0.479452C27.5317 0.549772 27.9061 0.657169 28.2728 0.774795C28.7311 0.921826 28.9325 1.29644 28.8021 1.70174C28.6821 2.07379 28.3115 2.23744 27.8609 2.14539C26.5246 1.87178 25.1857 1.60712 23.7732 1.32457C23.7732 2.87799 23.7732 4.28438 23.7732 5.74959C26.5995 5.99379 29.1262 7.00128 31.2423 8.85644C32.2494 7.84384 33.25 6.83635 34.2997 5.78027C33.8917 5.45169 33.405 5.02082 32.8769 4.64493C32.3024 4.2358 31.6955 3.86886 31.0913 3.50447C30.5684 3.18868 30.3928 2.82685 30.6097 2.42411C30.824 2.02648 31.2643 1.94849 31.7833 2.24C35.7871 4.49023 38.5785 7.75562 40.1304 12.0413C40.4325 12.8762 40.6417 13.743 40.909 14.6431C41.1956 14.6431 41.5158 14.6354 41.836 14.6444C42.5526 14.6661 43.038 15.0906 43.0742 15.7887C43.109 16.4561 43.0922 17.1273 43.0793 17.7973C43.0703 18.2473 42.8547 18.613 42.4415 18.7932C42.1588 18.9173 42.1149 19.0924 42.1213 19.3507C42.1317 19.7816 42.1291 20.2124 42.1149 20.642C42.102 21.069 41.9328 21.4552 41.5352 21.6214C41.1646 21.7774 41.1517 22.019 41.1517 22.3386C41.1569 27.2354 41.1556 32.131 41.1556 37.0278C41.1556 37.9662 41.1556 38.9059 41.1556 39.8661C41.2976 39.884 41.4048 39.9006 41.5119 39.9096C42.6571 40.0004 43.4886 40.811 43.5583 41.9527C43.5932 42.5229 43.5648 43.097 43.5648 43.6365C43.6371 43.6877 43.6616 43.7196 43.6875 43.7222C45.2717 43.8667 45.9908 44.6389 45.996 46.2077C45.9973 46.6539 45.9998 47.1014 45.9947 47.5476C45.9844 48.573 45.5505 48.9987 44.5151 49C38.2867 49.0013 32.057 49 25.8287 49C17.7437 49 9.65871 49 1.57501 49C0.411708 49 0.00371477 48.5985 -0.000158591 47.4504C-0.00144971 47.0835 -0.000158591 46.7165 -0.000158591 46.3496C0.00113253 44.6261 0.636363 43.9114 2.42069 43.6915C2.42069 43.3105 2.42069 42.918 2.42069 42.5255C2.42198 40.8033 3.07141 40.0694 4.84154 39.8661C4.84154 39.691 4.84154 39.5069 4.84154 39.3227C4.84154 37.4574 4.84154 35.5907 4.84283 33.7253C4.84283 33.5668 4.83896 33.4044 4.86478 33.2484C4.92804 32.8661 5.17207 32.6488 5.55811 32.6437C5.94416 32.6385 6.19851 32.8482 6.26564 33.2305C6.29921 33.4172 6.29405 33.6115 6.29405 33.802C6.29534 35.8106 6.29534 37.8192 6.29534 39.8674C7.74656 39.8674 9.16937 39.8674 10.6219 39.8674C10.6219 33.8711 10.6219 27.8811 10.6219 21.8553C9.19649 21.8553 7.77109 21.8553 6.29534 21.8553C6.29534 22.0574 6.29534 22.244 6.29534 22.432C6.29534 24.8088 6.29534 27.1843 6.29405 29.5611C6.29405 29.7363 6.3005 29.914 6.27339 30.0866C6.21142 30.4919 5.95448 30.7182 5.54649 30.7092C5.16303 30.7003 4.91901 30.4753 4.8622 30.0917C4.83637 29.9191 4.84154 29.7414 4.84154 29.5662C4.84025 27.1574 4.83767 24.75 4.84412 22.3412C4.84541 22.0241 4.8041 21.8132 4.47357 21.6099C4.20114 21.4424 4.02426 21.0575 3.90677 20.7328C3.81381 20.4758 3.86674 20.1651 3.8732 19.8787C3.88611 19.375 3.94163 18.9083 3.32964 18.6091C3.09465 18.4941 2.9578 18.0248 2.92423 17.7027C2.86096 17.103 2.88937 16.4919 2.91132 15.8871C2.93972 15.1047 3.41614 14.6597 4.20502 14.6431C4.50843 14.6367 4.81313 14.6418 4.97065 14.6418C5.56457 13.059 5.98547 11.4877 6.71624 10.071C9.76716 4.15525 14.6876 0.838722 21.3666 0.0792694C21.4931 0.0652055 21.6158 0.0268493 21.7397 0C22.6112 0 23.4827 0 24.3542 0ZM1.45493 47.5271C15.8496 47.5271 30.1811 47.5271 44.5435 47.5271C44.5435 47.0924 44.5435 46.6935 44.5435 46.2959C44.5422 45.3511 44.3627 45.1721 43.4228 45.1721C34.4831 45.1721 25.5446 45.1721 16.6049 45.1721C15.8509 45.1721 15.5152 44.9573 15.5062 44.4676C15.4959 43.9613 15.8393 43.7363 16.6243 43.7363C24.9017 43.7363 33.179 43.7363 41.4577 43.7363C41.663 43.7363 41.8683 43.7363 42.1226 43.7363C42.1226 43.2734 42.1239 42.863 42.1226 42.4513C42.12 41.518 41.9419 41.3441 40.9851 41.3441C28.9958 41.3441 17.0078 41.3441 5.01842 41.3441C4.85703 41.3441 4.66336 41.2917 4.542 41.362C4.3096 41.495 3.96616 41.6791 3.94034 41.876C3.86158 42.4782 3.91193 43.0957 3.91193 43.7363C4.13142 43.7363 4.30702 43.7363 4.48261 43.7363C7.1294 43.7363 9.77491 43.7363 12.4217 43.7363C12.5508 43.7363 12.6799 43.7299 12.809 43.7388C13.2609 43.7695 13.5501 44.0572 13.545 44.4637C13.5398 44.8665 13.2441 45.1427 12.7884 45.1695C12.6593 45.1772 12.5302 45.1721 12.401 45.1721C9.06092 45.1721 5.72079 45.1708 2.38067 45.1733C1.71703 45.1733 1.46914 45.4111 1.45622 46.0568C1.44719 46.5337 1.45493 47.0106 1.45493 47.5271ZM35.3455 21.8464C35.3455 22.6877 35.3481 23.4842 35.3442 24.2795C35.3417 24.9763 35.1041 25.2972 34.6044 25.2895C34.1254 25.2818 33.8956 24.9673 33.8917 24.3012C33.8879 23.5839 33.9046 22.8654 33.8788 22.1481C33.8737 21.9985 33.7549 21.7914 33.6258 21.7173C33.1584 21.45 32.9298 21.0703 32.9247 20.5474C32.9208 20.1332 32.9479 19.7163 32.9092 19.3047C32.8937 19.1384 32.7762 18.9237 32.6368 18.838C32.1978 18.5695 31.9641 18.2077 31.9576 17.7027C31.9512 17.2398 31.9538 16.7783 31.9538 16.3154C31.9538 15.1136 32.1681 14.8464 33.3495 14.5792C32.6303 12.476 31.4089 10.7397 29.5574 9.33973C29.5574 19.5795 29.5574 29.7158 29.5574 39.8776C30.0545 39.8776 30.5271 39.8776 31.0345 39.8776C31.0345 38.2245 31.0332 36.6007 31.0358 34.9757C31.0371 34.4132 31.2992 34.0833 31.742 34.0718C32.2029 34.059 32.4857 34.4004 32.4857 34.9872C32.4883 36.455 32.487 37.9215 32.487 39.3892C32.487 39.5567 32.487 39.7242 32.487 39.8776C32.9931 39.8776 33.423 39.8776 33.8904 39.8776C33.8904 39.6424 33.8904 39.4365 33.8904 39.232C33.8904 35.5958 33.8904 31.9596 33.8904 28.3235C33.8904 27.5755 34.1086 27.2393 34.5967 27.2265C35.1041 27.2124 35.3429 27.564 35.3429 28.3324C35.3429 31.9686 35.3429 35.6048 35.3429 39.2409C35.3429 39.4455 35.3429 39.65 35.3429 39.8776C36.8135 39.8776 38.2402 39.8776 39.6734 39.8776C39.6734 33.8544 39.6734 27.8645 39.6734 21.8477C38.2389 21.8464 36.8264 21.8464 35.3455 21.8464ZM23.7255 39.8687C25.2077 39.8687 26.6305 39.8687 28.0817 39.8687C28.0817 39.6066 28.0817 39.3854 28.0817 39.1629C28.0817 29.3911 28.0817 19.6179 28.0817 9.84603C28.0817 8.28238 28.0843 8.2747 26.5853 7.77352C25.675 7.46922 24.7441 7.24548 23.7758 7.23653C23.7539 7.32347 23.7319 7.36822 23.7319 7.41425C23.7293 11.7664 23.7255 16.1185 23.7371 20.4707C23.7371 20.6037 23.8701 20.7878 23.994 20.8594C24.7403 21.2889 25.1496 21.9142 25.1638 22.7657C25.1689 23.0789 25.28 23.286 25.5059 23.5034C27.471 25.3956 26.7402 28.6073 24.1425 29.4703C23.7926 29.5867 23.7177 29.749 23.719 30.0776C23.7293 33.1858 23.7255 36.2952 23.7255 39.4033C23.7255 39.5439 23.7255 39.6871 23.7255 39.8687ZM12.6464 14.5945C13.6147 14.7722 13.9904 15.0804 14.0253 15.8053C14.0576 16.4727 14.0421 17.1439 14.0266 17.8126C14.0162 18.2639 13.789 18.6194 13.3784 18.8022C13.1189 18.9173 13.0634 19.0707 13.0711 19.3174C13.0828 19.747 13.0776 20.1779 13.0686 20.6088C13.0582 21.0537 12.8891 21.4437 12.4746 21.6316C12.1441 21.7812 12.1015 21.9921 12.1015 22.3054C12.1093 27.9974 12.1067 33.6895 12.108 39.3816C12.108 39.549 12.126 39.7153 12.1351 39.8776C13.6031 39.8776 15.0156 39.8776 16.4151 39.8776C16.4151 29.7081 16.4151 19.5693 16.4151 9.35635C14.5805 10.7679 13.3474 12.49 12.6464 14.5945ZM19.3666 7.76968C18.9561 7.94612 18.6707 8.09443 18.3699 8.1916C18.0006 8.3105 17.9064 8.53169 17.9064 8.9063C17.9167 19.0617 17.9154 29.2184 17.9167 39.3739C17.9167 39.5414 17.9335 39.7101 17.9438 39.8827C18.4538 39.8827 18.9135 39.8827 19.4157 39.8827C19.4157 39.6871 19.4157 39.5158 19.4157 39.3432C19.4157 38.7218 19.4041 38.0992 19.4221 37.4778C19.4351 37.0393 19.7566 36.7427 20.1581 36.7516C20.5416 36.7606 20.8321 37.0457 20.8643 37.4612C20.8785 37.6351 20.8682 37.8115 20.8682 37.9867C20.8682 38.6183 20.8682 39.2486 20.8682 39.8802C21.364 39.8802 21.7926 39.8802 22.2316 39.8802C22.2471 39.7958 22.2665 39.7357 22.2665 39.6743C22.2691 36.4217 22.2652 33.1691 22.2781 29.9165C22.2794 29.6071 22.1051 29.5573 21.8843 29.4831C19.2517 28.5932 18.5067 25.3931 20.5002 23.4906C20.7326 23.2681 20.8243 23.0546 20.8308 22.749C20.8463 21.9576 21.1936 21.3235 21.8972 20.9412C22.2045 20.775 22.2768 20.5819 22.2755 20.2648C22.2665 16.0879 22.2704 11.9109 22.2678 7.73388C22.2678 7.56639 22.2484 7.39763 22.2368 7.21607C21.923 7.24292 21.6674 7.27489 21.4105 7.28639C20.9715 7.30685 20.7869 7.46667 20.8024 7.95763C20.845 9.29498 20.8243 10.6362 20.8101 11.9748C20.8049 12.4773 20.5222 12.7598 20.091 12.7611C19.6597 12.7611 19.3847 12.4798 19.3692 11.9774C19.3524 11.4519 19.364 10.9251 19.3628 10.3996C19.3666 9.55836 19.3666 8.71708 19.3666 7.76968ZM22.2523 1.44858C18.1259 1.68511 14.5908 3.12858 11.6522 5.78795C12.698 6.84785 13.6986 7.86046 14.7186 8.89352C15.7476 7.97297 16.889 7.17772 18.2046 6.72256C19.5138 6.26995 20.876 5.96566 22.251 5.58594C22.2523 4.29333 22.2523 2.90868 22.2523 1.44858ZM10.5354 6.90539C8.54318 9.13644 7.24302 11.6922 6.6349 14.6431C8.07579 14.6431 9.46117 14.6508 10.8465 14.6303C10.9653 14.629 11.1487 14.4705 11.1887 14.3478C11.7 12.8007 12.4617 11.3943 13.5166 10.1426C13.5643 10.0851 13.5927 10.0122 13.6069 9.98922C12.5728 8.95105 11.5683 7.94228 10.5354 6.90539ZM39.3648 14.6418C38.7308 11.7037 37.432 9.16712 35.4759 6.98338C34.4547 8.00621 33.4515 9.01114 32.4108 10.0532C33.4889 11.3112 34.3281 12.802 34.8407 14.4692C34.8652 14.5485 35.0331 14.6329 35.1338 14.6342C36.5217 14.6457 37.9084 14.6418 39.3648 14.6418ZM4.37415 17.4763C7.13328 17.4763 9.84592 17.4763 12.5573 17.4763C12.5573 16.9995 12.5573 16.5609 12.5573 16.1147C9.81364 16.1147 7.101 16.1147 4.37415 16.1147C4.37415 16.5814 4.37415 17.0084 4.37415 17.4763ZM33.4243 17.4763C36.1835 17.4763 38.8961 17.4763 41.6075 17.4763C41.6075 16.9995 41.6075 16.5609 41.6075 16.1147C38.8638 16.1147 36.1512 16.1147 33.4243 16.1147C33.4243 16.5801 33.4243 17.0084 33.4243 17.4763ZM21.1729 24.9993C20.588 25.8035 20.7662 27.0142 21.5693 27.7008C22.4292 28.436 23.6983 28.4027 24.513 27.6254C25.2567 26.9145 25.3923 25.714 24.81 24.9929C23.5085 26.1998 22.6086 26.2011 21.1729 24.9993ZM11.6057 18.9876C9.49086 18.9876 7.42507 18.9876 5.35928 18.9876C5.35928 19.4645 5.35928 19.903 5.35928 20.3479C7.45735 20.3479 9.52443 20.3479 11.6057 20.3479C11.6057 19.8813 11.6057 19.453 11.6057 18.9876ZM34.3927 20.3479C36.5062 20.3479 38.5733 20.3479 40.6391 20.3479C40.6391 19.871 40.6391 19.4325 40.6391 18.9863C38.541 18.9863 36.474 18.9863 34.3927 18.9863C34.3927 19.4517 34.3927 19.8787 34.3927 20.3479ZM23.7358 23.2566C23.728 23.2566 23.7203 23.2566 23.7125 23.2553C23.7125 23.0815 23.7293 22.905 23.7087 22.7337C23.6596 22.3092 23.3743 22.0535 22.974 22.0765C22.5609 22.0995 22.3143 22.3297 22.291 22.7337C22.2691 23.1121 22.2665 23.4957 22.3091 23.8716C22.3504 24.2347 22.6112 24.4252 22.9753 24.4342C23.3601 24.4431 23.6209 24.2539 23.6932 23.8716C23.7306 23.6709 23.7229 23.4612 23.7358 23.2566Z" fill="#2D2D2D"/>
<path d="M7.74677 30.8141C7.74677 28.6623 7.74548 26.5106 7.74806 24.3601C7.74806 24.1696 7.70158 23.9279 7.79971 23.8001C7.96626 23.5827 8.20641 23.3411 8.45689 23.2835C8.79774 23.2043 9.07017 23.4408 9.15796 23.7949C9.19928 23.9624 9.19799 24.1427 9.19799 24.3166C9.20057 28.6828 9.19928 33.0503 9.19928 37.4165C9.19928 37.5597 9.20057 37.7042 9.17862 37.8448C9.11923 38.2271 8.87779 38.4521 8.49433 38.4611C8.08633 38.4713 7.8294 38.245 7.76743 37.8397C7.74031 37.6684 7.74806 37.4907 7.74677 37.3155C7.74677 35.1484 7.74677 32.9812 7.74677 30.8141Z" fill="#2D2D2D"/>
<path d="M36.797 30.8141C36.797 28.6623 36.7957 26.5106 36.7983 24.3601C36.7983 24.1696 36.7518 23.9279 36.8499 23.8001C37.0165 23.5827 37.2566 23.3411 37.5071 23.2835C37.8479 23.2043 38.1204 23.4408 38.2082 23.7949C38.2495 23.9624 38.2482 24.1427 38.2482 24.3166C38.2508 28.6828 38.2508 33.0503 38.2482 37.4165C38.2482 37.5904 38.2495 37.7719 38.2069 37.9381C38.1165 38.291 37.8428 38.5263 37.5019 38.4457C37.2514 38.3869 37.0139 38.1427 36.8486 37.9241C36.7518 37.7962 36.7983 37.5546 36.7983 37.3641C36.797 35.1803 36.797 32.9966 36.797 30.8141Z" fill="#2D2D2D"/>
</g>
<defs>
<clipPath id="clip0_186_1501">
<rect width="46" height="49" fill="white"/>
</clipPath>
</defs>
</svg>
