<svg width="126" height="126" viewBox="0 0 126 126" fill="none" xmlns="http://www.w3.org/2000/svg">
<path d="M0.500244 62.7773C0.500244 28.2596 28.4825 0.277344 63.0002 0.277344C97.518 0.277344 125.5 28.2596 125.5 62.7773V125.277H0.500244V62.7773Z" fill="#6FBFF9"/>
<path d="M32.9284 99.1242L39.5799 99.1242L39.5799 92.241L32.9284 92.241L32.9284 99.1242ZM88.3047 42.6618C88.3047 42.1962 87.94 41.8188 87.4901 41.8188L80.1584 41.8188C79.7085 41.8188 79.3438 42.1963 79.3438 42.6618C79.3438 43.1274 79.7085 43.5048 80.1584 43.5048L86.6755 43.5048L86.6755 50.2489C86.6755 50.7145 87.0402 51.0919 87.4901 51.0919C87.94 51.0919 88.3047 50.7145 88.3047 50.2489L88.3047 42.6618ZM36.8302 96.2787L88.0661 43.2579L86.9141 42.0657L35.6781 95.0865L36.8302 96.2787Z" fill="#2D2D2D"/>
</svg>
