<svg width="12" height="28" viewBox="0 0 12 28" fill="none" xmlns="http://www.w3.org/2000/svg">
<path d="M6.00012 27.3301L10.3302 23L6.00012 18.6699L1.66999 23L6.00012 27.3301ZM6.53045 0.469669C6.23756 0.176777 5.76269 0.176777 5.46979 0.469669L0.696823 5.24264C0.403929 5.53553 0.403929 6.01041 0.696823 6.3033C0.989716 6.59619 1.46459 6.59619 1.75748 6.3033L6.00012 2.06066L10.2428 6.3033C10.5357 6.59619 11.0105 6.59619 11.3034 6.3033C11.5963 6.01041 11.5963 5.53553 11.3034 5.24264L6.53045 0.469669ZM6.75012 23L6.75012 1L5.25012 1L5.25012 23L6.75012 23Z" fill="#6C6C6C"/>
</svg>
