<svg width="12" height="28" viewBox="0 0 12 28" fill="none" xmlns="http://www.w3.org/2000/svg">
<path d="M6 0.669873L1.66987 5L6 9.33013L10.3301 5L6 0.669873ZM5.46967 27.5303C5.76256 27.8232 6.23743 27.8232 6.53033 27.5303L11.3033 22.7574C11.5962 22.4645 11.5962 21.9896 11.3033 21.6967C11.0104 21.4038 10.5355 21.4038 10.2426 21.6967L6 25.9393L1.75736 21.6967C1.46446 21.4038 0.989591 21.4038 0.696698 21.6967C0.403804 21.9896 0.403804 22.4645 0.696698 22.7574L5.46967 27.5303ZM5.25 5L5.25 27L6.75 27L6.75 5L5.25 5Z" fill="#6C6C6C"/>
</svg>
