<svg width="13" height="13" viewBox="0 0 13 13" fill="none" xmlns="http://www.w3.org/2000/svg">
<path fill-rule="evenodd" clip-rule="evenodd" d="M9.44138e-05 6.36128C9.44138e-05 9.87452 2.84814 12.7226 6.36138 12.7226C9.87461 12.7226 12.7227 9.87452 12.7227 6.36128C12.7227 2.84804 9.87461 0 6.36138 0C2.84814 0 9.44138e-05 2.84804 9.44138e-05 6.36128ZM6.36138 11.0626C3.76493 11.0626 1.66009 8.95773 1.66009 6.36128C1.66009 3.76484 3.76493 1.66 6.36138 1.66C8.95782 1.66 11.0627 3.76484 11.0627 6.36128C11.0627 8.95773 8.95782 11.0626 6.36138 11.0626ZM3.82992 6.36128C3.82992 7.75937 4.96329 8.89274 6.36137 8.89274C7.75946 8.89274 8.89283 7.75937 8.89283 6.36128C8.89283 4.96319 7.75946 3.82982 6.36137 3.82982C4.96329 3.82982 3.82992 4.96319 3.82992 6.36128Z" fill="white"/>
</svg>
