<svg width="13" height="80" viewBox="0 0 13 80" fill="none" xmlns="http://www.w3.org/2000/svg">
<path d="M6.72266 79.5174L11.5058 74.8953L6.72266 69.9455L1.93955 74.5676L6.72266 79.5174ZM7.30846 0.433904C6.98492 0.099101 6.46037 0.0811358 6.13684 0.393778L0.86457 5.48857C0.541037 5.80121 0.541037 6.32608 0.86457 6.66087C1.1881 6.99567 1.71265 7.01364 2.03619 6.701L6.72265 2.17229L11.4091 7.02201C11.7326 7.35681 12.2572 7.37478 12.5807 7.06214C12.9043 6.7495 12.9043 6.22464 12.5807 5.88983L7.30846 0.433904ZM7.55111 74.7598L7.55111 1.02837L5.89419 0.971619L5.8942 74.7031L7.55111 74.7598Z" fill="white"/>
</svg>
